<mxfile host="Electron" agent="Mozilla/5.0 (Macintosh; Intel Mac OS X 10_15_7) AppleWebKit/537.36 (KHTML, like Gecko) draw.io/27.0.9 Chrome/134.0.6998.205 Electron/35.4.0 Safari/537.36" version="27.0.9">
  <diagram name="Seite-1" id="oT_gCo5KX6RftP2cWDx9">
    <mxGraphModel dx="1541" dy="514" grid="1" gridSize="10" guides="1" tooltips="1" connect="1" arrows="1" fold="1" page="1" pageScale="1" pageWidth="827" pageHeight="1169" math="0" shadow="0">
      <root>
        <mxCell id="0" />
        <mxCell id="1" parent="0" />
        <mxCell id="i77vXYI-hBcrAHT1acc3-3" value="" style="endArrow=none;html=1;rounded=0;strokeColor=#808080;" parent="1" edge="1">
          <mxGeometry width="50" height="50" relative="1" as="geometry">
            <mxPoint x="-3.552713678800501e-15" y="163" as="sourcePoint" />
            <mxPoint x="-3.552713678800501e-15" y="9" as="targetPoint" />
          </mxGeometry>
        </mxCell>
        <mxCell id="BnfIDBQJlwFSEMfQzMYi-1" value="&lt;font face=&quot;Helvetica&quot; style=&quot;font-size: 20px;&quot;&gt;a) Accessibility-aware output by GPT-4o&lt;/font&gt;" style="text;html=1;align=center;verticalAlign=middle;whiteSpace=wrap;rounded=0;" vertex="1" parent="1">
          <mxGeometry x="-618" y="130" width="410" height="30" as="geometry" />
        </mxCell>
        <mxCell id="BnfIDBQJlwFSEMfQzMYi-2" value="&lt;font face=&quot;Helvetica&quot; style=&quot;font-size: 20px;&quot;&gt;b) Simplified Llava markup&lt;/font&gt;" style="text;html=1;align=center;verticalAlign=middle;whiteSpace=wrap;rounded=0;" vertex="1" parent="1">
          <mxGeometry x="22.589999999999986" y="200" width="410" height="30" as="geometry" />
        </mxCell>
        <mxCell id="BnfIDBQJlwFSEMfQzMYi-3" value="" style="shape=image;verticalLabelPosition=bottom;labelBackgroundColor=default;verticalAlign=top;aspect=fixed;imageAspect=0;image=data:image/png,iVBORw0KGgoAAAANSUhEUgAABCIAAACWCAYAAAALxSkjAAAMS2lDQ1BJQ0MgUHJvZmlsZQAASImVVwdck0cbv3dkQggQiICMsJcgIiOAjBBW2BtBVEISIIwYE4KKGylWsG4RwVHRKkNxVUCKC7VqpSjuXRyoKLVYi1v5LgTQ0m/8vsvv7v7533P/e57nvXccAPQuvlSai2oCkCfJl8UG+7MmJ6ewSD2AAHThjwpYfIFcyomODgewDPd/L6+vAUTZX3ZQav1z/L8WLaFILgAAiYY4XSgX5EH8IwB4q0AqyweAKIW8+ax8qRKvg1hHBh2EuEaJM1W4VYnTVfjioE18LBfiRwCQ1fl8WSYAGn2QZxUIMqEOHUYLnCRCsQRiP4h98vJmCCFeBLENtIFr0pX67PSvdDL/ppk+osnnZ45gVSyDhRwglktz+XP+z3T875KXqxhewxpW9SxZSKwyZpi3RzkzwpRYHeK3kvTIKIi1AUBxsXDQXomZWYqQBJU9aiOQc2HOABPiSfLcON4QHyvkB4RBbAhxhiQ3MnzIpihDHKS0gflDK8T5vHiI9SCuEckD44ZsjstmxA6vey1DxuUM8U/5skEflPqfFTkJHJU+pp0l4g3pY46FWfFJEFMhDigQJ0ZCrAFxpDwnLmzIJrUwixs5bCNTxCpjsYBYJpIE+6v0sfIMWVDskH1dnnw4dux4lpgXOYQv5WfFh6hyhT0S8Af9h7FgfSIJJ2FYRySfHD4ci1AUEKiKHSeLJAlxKh7Xk+b7x6rm4nbS3Oghe9xflBus5M0gjpcXxA3PLciHm1Olj5dI86PjVX7ildn80GiVP/g+EA64IACwgALWdDADZANxR29TL/ynGgkCfCADmUAEHIaY4RlJgyMS2MaBQvA7RCIgH5nnPzgqAgWQ/zSKVXLiEU7VOoCMoTGlSg54DHEeCAO58L9iUEky4kEieAQZ8T884sMqgDHkwqoc//f8MPuF4UAmfIhRDK/Iog9bEgOJAcQQYhDRFjfAfXAvPBy2frA642zcYziOL/aEx4ROwgPCVUIX4eZ0cZFslJcRoAvqBw3lJ/3r/OBWUNMV98e9oTpUxpm4AXDAXeA6HNwXruwKWe6Q38qssEZp/y2Cr67QkB3FiYJSxlD8KDajZ2rYabiOqChz/XV+VL6mj+SbOzIyen3uV9kXwj5stCX2LXYQO4OdwM5hrVgTYGHHsGasHTuixCM77tHgjhteLXbQnxyoM3rPfLmyykzKneqdepw+qsbyRbPzlTcjd4Z0jkycmZXP4sA3hojFkwgcx7GcnZxdAVC+f1SPt1cxg+8VhNn+hVvyGwDexwYGBn76woUeA2C/O3wkHP7C2bDhq0UNgLOHBQpZgYrDlQ0BPjno8O7TB8bAHNjAeJyBG/ACfiAQhIIoEA+SwTTofRbc5zIwC8wDi0EJKAOrwHpQCbaC7aAG7AEHQBNoBSfAz+A8uAiugttw93SD56APvAYfEAQhITSEgegjJoglYo84I2zEBwlEwpFYJBlJQzIRCaJA5iFLkDJkDVKJbENqkf3IYeQEcg7pRG4i95Ee5E/kPYqh6qgOaoRaoeNRNspBw9B4dCqaic5EC9FidAVagVaju9FG9AR6Hr2KdqHP0X4MYGoYEzPFHDA2xsWisBQsA5NhC7BSrByrxhqwFnidL2NdWC/2DifiDJyFO8AdHIIn4AJ8Jr4AX45X4jV4I34Kv4zfx/vwzwQawZBgT/Ak8AiTCZmEWYQSQjlhJ+EQ4TS8l7oJr4lEIpNoTXSH92IyMZs4l7icuJm4l3ic2El8SOwnkUj6JHuSNymKxCflk0pIG0m7ScdIl0jdpLdkNbIJ2ZkcRE4hS8hF5HJyHfko+RL5CfkDRZNiSfGkRFGElDmUlZQdlBbKBUo35QNVi2pN9abGU7Opi6kV1Abqaeod6is1NTUzNQ+1GDWx2iK1CrV9amfV7qu9U9dWt1PnqqeqK9RXqO9SP65+U/0VjUazovnRUmj5tBW0WtpJ2j3aWw2GhqMGT0OosVCjSqNR45LGCzqFbknn0KfRC+nl9IP0C/ReTYqmlSZXk6+5QLNK87Dmdc1+LYbWBK0orTyt5Vp1Wue0nmqTtK20A7WF2sXa27VPaj9kYAxzBpchYCxh7GCcZnTrEHWsdXg62TplOnt0OnT6dLV1XXQTdWfrVuke0e1iYkwrJo+Zy1zJPMC8xnw/xmgMZ4xozLIxDWMujXmjN1bPT0+kV6q3V++q3nt9ln6gfo7+av0m/bsGuIGdQYzBLIMtBqcNesfqjPUaKxhbOvbA2FuGqKGdYazhXMPthu2G/UbGRsFGUqONRieNeo2Zxn7G2cbrjI8a95gwTHxMxCbrTI6ZPGPpsjisXFYF6xSrz9TQNMRUYbrNtMP0g5m1WYJZkdles7vmVHO2eYb5OvM28z4LE4sIi3kW9Ra3LCmWbMssyw2WZyzfWFlbJVkttWqyemqtZ82zLrSut75jQ7PxtZlpU21zxZZoy7bNsd1se9EOtXO1y7Krsrtgj9q72YvtN9t3jiOM8xgnGVc97rqDugPHocCh3uG+I9Mx3LHIscnxxXiL8SnjV48/M/6zk6tTrtMOp9sTtCeETiia0DLhT2c7Z4FzlfOVibSJQRMXTmye+NLF3kXkssXlhivDNcJ1qWub6yc3dzeZW4Nbj7uFe5r7JvfrbB12NHs5+6wHwcPfY6FHq8c7TzfPfM8Dnn94OXjleNV5PZ1kPUk0acekh95m3nzvbd5dPiyfNJ/vfbp8TX35vtW+D/zM/YR+O/2ecGw52ZzdnBf+Tv4y/0P+b7ie3Pnc4wFYQHBAaUBHoHZgQmBl4L0gs6DMoPqgvmDX4LnBx0MIIWEhq0Ou84x4Al4try/UPXR+6Kkw9bC4sMqwB+F24bLwlgg0IjRibcSdSMtISWRTFIjiRa2NuhttHT0z+qcYYkx0TFXM49gJsfNiz8Qx4qbH1cW9jvePXxl/O8EmQZHQlkhPTE2sTXyTFJC0Jqlr8vjJ8yefTzZIFic3p5BSElN2pvRPCZyyfkp3qmtqSeq1qdZTZ089N81gWu60I9Pp0/nTD6YR0pLS6tI+8qP41fz+dF76pvQ+AVewQfBc6CdcJ+wReYvWiJ5keGesyXia6Z25NrMnyzerPKtXzBVXil9mh2RvzX6TE5WzK2cgNyl3bx45Ly3vsERbkiM5NcN4xuwZnVJ7aYm0a6bnzPUz+2Rhsp1yRD5V3pyvAz/02xU2im8U9wt8CqoK3s5KnHVwttZsyez2OXZzls15UhhU+MNcfK5gbts803mL592fz5m/bQGyIH1B20LzhcULuxcFL6pZTF2cs/jXIqeiNUV/LUla0lJsVLyo+OE3wd/Ul2iUyEquL/VauvVb/Fvxtx3LJi7buOxzqbD0lzKnsvKyj8sFy3/5bsJ3Fd8NrMhY0bHSbeWWVcRVklXXVvuurlmjtaZwzcO1EWsb17HWla77a/309efKXcq3bqBuUGzoqgivaN5osXHVxo+VWZVXq/yr9m4y3LRs05vNws2XtvhtadhqtLVs6/vvxd/f2Ba8rbHaqrp8O3F7wfbHOxJ3nPmB/UPtToOdZTs/7ZLs6qqJrTlV615bW2dYt7IerVfU9+xO3X1xT8Ce5gaHhm17mXvL9oF9in3P9qftv3Yg7EDbQfbBhh8tf9x0iHGotBFpnNPY15TV1NWc3Nx5OPRwW4tXy6GfHH/a1WraWnVE98jKo9SjxUcHjhUe6z8uPd57IvPEw7bpbbdPTj555VTMqY7TYafP/hz088kznDPHznqfbT3nee7wL+xfms67nW9sd20/9Kvrr4c63DoaL7hfaL7ocbGlc1Ln0Uu+l05cDrj88xXelfNXI692Xku4duN66vWuG8IbT2/m3nx5q+DWh9uL7hDulN7VvFt+z/Be9W+2v+3tcus6cj/gfvuDuAe3HwoePn8kf/Sxu/gx7XH5E5MntU+dn7b2BPVcfDblWfdz6fMPvSW/a/2+6YXNix//8PujvW9yX/dL2cuBP5e/0n+16y+Xv9r6o/vvvc57/eFN6Vv9tzXv2O/OvE96/+TDrI+kjxWfbD+1fA77fGcgb2BAypfxBz8FMKA82mQA8OcuAGjJADDguZE6RXU+HCyI6kw7iMB/wqoz5GBxA6ABftPH9MKvm+sA7NsBgBXUp6cCEE0DIN4DoBMnjtThs9zguVNZiPBs8H3Mp/S8dPBviupM+pXfo3ugVHUBo/t/ASVngw4IJLDzAAAAlmVYSWZNTQAqAAAACAAFARIAAwAAAAEAAQAAARoABQAAAAEAAABKARsABQAAAAEAAABSASgAAwAAAAEAAgAAh2kABAAAAAEAAABaAAAAAAAAAJAAAAABAAAAkAAAAAEAA5KGAAcAAAASAAAAhKACAAQAAAABAAAEIqADAAQAAAABAAAAlgAAAABBU0NJSQAAAFNjcmVlbnNob3RvnD90AAAACXBIWXMAABYlAAAWJQFJUiTwAAAC3GlUWHRYTUw6Y29tLmFkb2JlLnhtcAAAAAAAPHg6eG1wbWV0YSB4bWxuczp4PSJhZG9iZTpuczptZXRhLyIgeDp4bXB0az0iWE1QIENvcmUgNi4wLjAiPgogICA8cmRmOlJERiB4bWxuczpyZGY9Imh0dHA6Ly93d3cudzMub3JnLzE5OTkvMDIvMjItcmRmLXN5bnRheC1ucyMiPgogICAgICA8cmRmOkRlc2NyaXB0aW9uIHJkZjphYm91dD0iIgogICAgICAgICAgICB4bWxuczpleGlmPSJodHRwOi8vbnMuYWRvYmUuY29tL2V4aWYvMS4wLyIKICAgICAgICAgICAgeG1sbnM6dGlmZj0iaHR0cDovL25zLmFkb2JlLmNvbS90aWZmLzEuMC8iPgogICAgICAgICA8ZXhpZjpVc2VyQ29tbWVudD5TY3JlZW5zaG90PC9leGlmOlVzZXJDb21tZW50PgogICAgICAgICA8ZXhpZjpQaXhlbFhEaW1lbnNpb24+MTA1ODwvZXhpZjpQaXhlbFhEaW1lbnNpb24+CiAgICAgICAgIDxleGlmOlBpeGVsWURpbWVuc2lvbj4xNTA8L2V4aWY6UGl4ZWxZRGltZW5zaW9uPgogICAgICAgICA8dGlmZjpSZXNvbHV0aW9uVW5pdD4yPC90aWZmOlJlc29sdXRpb25Vbml0PgogICAgICAgICA8dGlmZjpYUmVzb2x1dGlvbj4xNDQvMTwvdGlmZjpYUmVzb2x1dGlvbj4KICAgICAgICAgPHRpZmY6WVJlc29sdXRpb24+MTQ0LzE8L3RpZmY6WVJlc29sdXRpb24+CiAgICAgICAgIDx0aWZmOk9yaWVudGF0aW9uPjE8L3RpZmY6T3JpZW50YXRpb24+CiAgICAgIDwvcmRmOkRlc2NyaXB0aW9uPgogICA8L3JkZjpSREY+CjwveDp4bXBtZXRhPgriHJXkAABAAElEQVR4AeydBXwUxxfHX3B3d3eXAoWW4sWtSHEptLj8aSlSilNKsRYo7u7u7hR3dydAgOD6n9+E2ext9i53ubvkkryXz2Ztdnb2e3t7O2+eeL1+++ETsbiNwMePH+n169f0/v17eY6IESJQtOjRKGLESHad882bN/Tu3Tv6+OEDeYljI0WKRNGjR7fr2NBS6OnTp/ReXCN5eVHChAlDS7NDvJ24L8BOYKMYMWKGufvCUcD8XXOUGJdnAkyACTABJsAEmAATYAIhQ8CLFREhA57PygSYABNgAkyACTABJsAEmAATYAJMIDwSiBAeL5qvmQkwASbABJgAE2ACTIAJMAEmwASYABMIGQKsiAgZ7nxWJsAEmAATYAJMgAkwASbABJgAE2AC4ZKA1ych4fHKfXx85GXHjx8/PF4+XzMTYAJMgAkwASbABJgAE2ACTIAJMIEQIcAWESGCnU/KBJgAE2ACTIAJMAEmwASYABNgAkwgfBJgRUT4/Nz5qpkAE2ACTIAJMAEmwASYABNgAkyACYQIAVZEhAh2PikTYAJMgAkwASbABJgAE2ACTIAJMIHwSSCSp1/2s2fPCGEsvLy8KHbs2HLu6W3m9jEBJsAEmAATYALBS+DWp+vBe0I+GxNgAiFCIJVX2hA5L5+UCTAB1xLwSEUEFA+3b9+mS5cuka+vr3bF5cqVo2jRomnrvMAEmAATYAJMgAkwASbABJgAE2ACTIAJhC4CHqWI+PjxI924cYMuX75ML1++DF0kubVMgAkwASbABJgAE2ACTIAJMAEmwASYQKAEPEoRcfHiRbpw4YLW6IgRI0q3DCgoWJgAE2ACzhKAq9ezZ/5WVqq+aNGjUaKECdVqmJu/ffuW3r59RxEjRqDo0aMH+/W5kzss6F688FNcR48RnSJGCNuhj6Ck//jxE0WNGoUiR44c7J9leDih77Pn9PzZiwCXGi16VIqfMF6A7byBCTABJsAEmAATcJyARykiVPMjRYpE6dKlo4wZM9Lhw4fp4cOHale4mefMW5A+fPhA1atVpaGDB4Sb6w4PF3r4yFFq/VN7eakpUiSnVcsXa5c9eep0+nf8JLleqVIFGtC3j7YvvCyAz7t37ylOnNiUI3s2l172n8NH0sJFSwPUmS9vHlo4b1aA7WFlQ7dfetL6jZuka9uJIweC/bLcyf3Af4eoSfMf5DX9Mag/1apZPdivL7hO+ObNG8pXqJg8Xb26tT32+RDan3ETh0+nNYs3BvhYc+TNSmPmDguw3VM2nDxyhnq26S+bkzRFEpq87G+taQumLqXZExbK9VIVv6Kufdtp+9TCpXNXNAVMnkI5KYKJUu/Rg8d089pteUiaDKkoQaL46nCeGwiUz1dLvseVr1qKug/ubNjLqyDQo00/OnXkrITR5fe2VLrS1xqY6l82oI8f/AYiJy39m5KlTKLt4wUmwATCBgGPUkRgpC5r1qyUPn36cD/S8/79e2ENQvRBzFnCFgGMTvs+fy4vSh8DBRtevXqt7Xv5eZQ3bF297as5dvwEfd+omSxUvVoVGvbHINsHOLg3YoSIDh4RNop/IvEwgeChEgLiXu7+16RdZwhcY3CfEpYgniqh/RkXQVgOuUIeP/Sh+VP8FJ9flStGuQvkcEW1Vut4J6yeXjz3sw567uv3G6MKv379Rtv36uVrtdliPrLfODp7ws8qdfGOGaZKhm3rd9O4oZPlcR16taaaDapY1MEr/gTw/ibf48SgEos5gZfPX2n35ds3by0K+T71v4fxTszCBJhA2CPgml9bF3FJkyYNZcmSJdwrIVyEk6thAqGOwMTJU2WbRZIcatWyucvb3+/33nThzHFtSpsmtcvPwRUGJMDcAzLhLZ5LoEuftrT19EptSpkmeZAa+8jbhxbPXCGncyf93U6DVBkfxASYABNgAkwgjBHwKIuIMMbWqcuZPWOqMOn7SEmTJHaqHj6YCYQWApevXKEtW7fJ5n5T8mvKkjlTaGk6t5MJBAuBqFGj0rLF8+mTiJuUKFGiYDknn4QJMIGgERg5fYiI5/KREiZOELQK+CgmwASYQBgnwIoID/2ACxcq6KEt42YxAfcQmDR5muY58OMPLd1zEq6VCYRyAjlzZA/lV8DNZwLhgwDibLAwASbABJiAdQKsiLDOxuV7Hj16TEuXrxBxAF5Rx/ZtLerfuWs3nT133mIbVrJlzUIlv/4qwHZsWLRkGd28eYty5MhGD70f0uq162VwqXJlSlHzZk1o67YdosxSWSZ3rpzUrWtnSpgwoGb+tQiANn/BIjpy5BhdEqlTM4kgoQUL5qe639WSddy6fZvixY1L9ep+Z9oOZzc+8/WlOXPn04mTp+jOnbsiUOE7mcEgVaqU9PXXJeir4l9SzJgxTU8Dv8F/xo4XHdhPlD9fXir1zdd08NBheT1Xrl6TdaVKmZIQ+LFyxW9F1gDzGAE3bt6k9Rs20cVLl+mSmBAoNHXqVFSoQH6qXauGCJwYx/T8Ib1x/4GDtHzFSrp95w7df+BNsWPFoiSJE1OePLmodKlvKGuWzFabuGv3XsnKS/hBtPnxB3oruM+bv5D27jtA9+7fpwTx4xM6PU0bN5QszCpyFbd79+7TytVr5SkKCuYFCuQzOx0tW76Srl67TrFjx6KWzZvSMnHt+/f/R6fPnKW0wrULQSfr1qlN8eO7J7L9NXHubdt30PETJyUjnydPKVWKFJRZWG/gO1apYgUCz8AE9+u69Rvp+MmTdOniZbolPr8kiRNRunRpqXrVKlSoYAGrVeA7v3b9Bvm8wL0aL15cyp4tG5Up/Q0VLfKF1eP0O/Bd375zF/138JDIpvFGPGeyUoPv61GunLZ92J88eSKfO+fEs+rS5SsyA0f2bFkJn1mVyhX1p3D58tFjx2XAzePHT4p79S0VFozKlytr93kUc9Rz7vx5evzYR35uuMe/r1eXYsUyf8bgBK56ztjd2M8F9ec1Hot7vXSpksbN2jq+U3PF9xlSvmxpiiZiMK0S3zF85m/EZ543d276puRXVn9fVEVHjh6jDSLQ6dFjJ+RzFt/NCmXLEgLtrli1WhYrU7qU+N3IoA7xiPktEVBx346DMuaB972H9OyJrwx2lz5zWsqSMxMhYKM931VHL2bG2LnifvGLCYDAjkr2bT8o26DWMYfLx7c17b+H9cd68vJz3xe0fO4aOn/qIt2/80AGH0a2keSpktIXXxWkwsULUIyY1rP33L11j7aLWBQInnnt0g2KEy8OZcqWnr4sVYTyF8lj89IP7jlCJw6dlp9tw9Z15LlXLVhHh/cdI+97jyhegriUOUcGqt24mmhPMpt1Obrzv12H6fL5qwEOy5AlHRX5ulCA7diwdskmwvVmyp6BEFNk29pd5BXBi0qUKUp1mtagfdv/k2Xu3LxLWXNlptZdm8lrMFbm7P3+RsRnWLVgPZ0+eoauXb5J6TKmplwipknl78rT3m3/yc8xdtzYVKVOBeOp5Tqer/jMzhw/R5fPXaUnPs8ofeY0lDl7RqpWryLFiBXD9LigblywcLF477lLdWrXtPp+EtS6+TgmwASCjwArItzMGmZ5e/ftl5H6Nwuzc7xYlhWKAqPgBXHFqjXGzVStSiWrL4pLli4nvCQa5dDhI3Ty9BnZscb5IBcuXpLTkoVzLYpDOfJTu46yY6V2oIOBCPs7d+6WgRMRQDBF8mRuUUQc+O8gtW3fWQvQqG+DeGOmxeIaobRp3/ZHtctijgBc/07wyzJRXyhKkNquS7fuFmVw7VtF5zGGeBEvW6a0xT78eM6eM4+GjRhNr19bBvA6d/4Cbdq8lUaOHkNbNq2lxB5kCv1B3FedunSjjZu2WFyPWtmybTuN/mcsnTsV8P5QZXbv2UPTZsyWq/gxb9+pK505e07tpqtCkYPo9+i4rFy2SNuOBVdzmzZjpvxuoO7WP7TAzFSWrVhF+w/8RwkSxJftw/2hBPctrhvKt0njx4qgt+nULpfMFy5aQr1/7x+gLnDatWev3I6O2V9DB9tUXEF506NXH6EEOmJRF+pBBogFC5dQ86aNqEf3ny32Y2XpshXUf9AQcZ+/stj338HDNHP2HGrRrCn9r0tHihTJ+qN93YaN1OV/v8gUkKqSU6fP0qo1a+mfUcNF59Q/arnajzmeNTjurujg6gXb58xbQGuEInTokAE2r11/nCPLeOnsO2CwVBCq406dOkOz5synRg3qq01W597e3vRLj960Z+9+izJQPK5dt0EwX0yjR/4lFW8WBT6vOPucMavTnm368xrL161Ty6YiAgrk8RP9ggr6PPGh9es30VORvlYJ+OFza/tTK+rUoZ1pp3zh4qX0e7+BFtyhhMMzs4VQdk+Y5BfTJVGihB6liFizeAMN/32sulRtjmwPB/ccleubV22nHkO7Uuw4sbT9rliYNX6hNMc31nXsv5OESS95C+cKc4oIXONvHQZpAQjV9V4XnVvsW7d0MzVr34CatDH/3q5fvoX+GTSBjAE1jx88RUtnr6I6zWrSD52biGec+aDCwd1HZUwOnLdirXLUt/MQunj2imqGzPiB7CLHD56mSUtHa9tdsbBlzQ7aJO4ro5StUtKqImL9ss106qhf1gj9cScPnxGKnEu0c+MeTbF19eINuiamcQuG64uKDC/O3e9PHj+lXu0GaIFKUTk+rx0b9xKUKwiAeub4eUqSPJGpIuKR92P6o8coqezRNwxKpG3rdtPqRRvo9xHdhQIoo363U8s3b92iiZOniWfQZCpWtAjVEwMQeL/jlMZOYeWDmUCwE7D+thrsTQlbJ3wgRqcXL10mRw9v375jcXFmo/uwQIDSQsmqNevUol3zdGnTUMYMGWRHDAesFsdHFKm3Kn1bng4KxYS3sJg4eeo0Xb9xQ44cq0rbduikKSGgbMAoOlJ2QWmiOleqrKvniKzeUXSmVQaJL4sVkSO66ETdunWboFCBEuHTJ38uttqAjujK1WtkkeTJkooMLFlkhxmWJvg8zOSvEaNo0pTp2i60IUf27OKl3E95AyUSLEZgpQGBpUSv3/qqHATacYEtYLTcng5TYPWo/TNnztaUEOiUV6lUkVKmTEFPxAj9latXaceOXbLdqnxg874DBkklRNSoUURshsyUStSF0YbTQqFlJo5yM6tDbXv69CktEJ18COJCYJQ2MMFoNpQQsAApX66MVEzs3rNPWgncuHmLmrRoRVs3rnXpSwksRiC4P+E6lSF9OkqWNCk9Fp28zUJhdVPcs9sF9ybNW9HyJQtkWeM/b5GKuGbt+to9nzRpEvkSlSZ1arotOo6HRaceVhfPnvkaDxVKo1k0ZOhfcnsEMWKGly5YvDx8+EgqDn18ntCUaTNEis6osmMZoAKxAfdyt196UIwYMaj0NyWF5Uh82i2UKJevXCWMiP3510ip+DSOFOP701QwRRlIrlw56ItChej5i+e0det2eigUmlACdflfd5oy6V9ZxlX/du7eQ7/1HSCrU9eNZ90p8TzDM2q6+C7YkhcvXlCtug3o/v0Hslia1KmksgUWEEeOHpeKLdwzzVq0po3rVgVqTROU54yt9tnaFyVKZGGtUUc+x1AOimW98s3Wsfp9UG5BYEVR5ItCBGuJDUKJCeXruPGTKLGwomooLGL0gvuid59+2iZYm8Fy5sKFi/KzVkoIrYAHLbx766eAR2cV5vGp06WixMkS0lMxSrt7y34xAn2f9u88RN1a9KYJi0e5tOXV6lcU2a78LCJ8Hj2R58MJsuXOLEeH9SdLnT6VtorfluF9xmiftbYjkAWMktdoUDmQUsGzG1k7+nUdqikhChbLS/m+yCOVBndv36eTh08TOtOIcWImi2esoHF/TpG7pFVA6aKUIUtaeiw47hSdYnx+C6ctI/xONe/Q0KwKi22jB46XSogoUSNThszpKKlI/wgLjQunL1uUc9UKLAg+fvTPZgPFhCOSMm1ySpshtbRAwHFb1+6U72PffFtCskPw03PCyuT2jbvSmkbV7ez93rvDQE0JAWUDLE/wrN2z9YCmuFPnMs5fvnhFbep2pYefrX9SpE5GRUsWkhYQp4+eo6MHTtCdm/eoW8veNHPtBIob3zXWpeo9WowlSStOWHLiXahm9WrSmjd9+nTGpvI6E2ACHkiAFREu/FAwSg0rAoycbt+xk7CuJEaM6PRt+XIyx71Z/If6desQJiWr164TLyRqzfYcL9SrVyyhKFGi0K89fxPuHyvlAT1+/ZmaNGogOzblK1WT2w4fPqopIjCyDHNbCDo0M6ZOkg9yrLf5sRU1atpCdlCw7g7ZLywe0HmCfFG4IE2fMjHAaeB6YIeluzwOigu8uPfp9Ss1avi9Vhde3uFykCxZMm0bFjACrSwC0KEdJkayjabOCKDYR3SCIkX0+6qgLsXXorJAVpCmUyki8PmjkwzBZ6aXFs0aix/SqnIT3A+syboNm7Rdo0cME52Lwto6FmBCr1wdLHZYWdm5aw8VyJ+Xhg/7g1IKVwMl6HRt3LRZrcp5ULhZVGBYmS3cctQI/w8iU4axE2worq3GFe4yM6dPFm4JWeW2Lp06UIdO/5OdJHQ6YWH0nXCrcZVAOdOh3U/ie/qd7Ljp6/1ZuD392KaD7BjDqgTfLTM3iWHDR2lKCChQhgzsL91MVF14ZkyfMYseiBF8vcBy6Z+xfh183Kuw+NC7r8BiqEHj5kLReJMmT51OtWvWILg2mUm8ePFo1rTJlCFDerkbyokGjZuJjv0Z6W4BF6m8eXJbHDph0hRNCQHrmQH9+sgXZBS62+ZHaiqUL9eu35DXD9cHuEm5Sv4VHWUlfwweSDWq+acLnDBxCg0f9bfabTqHVYBSQlQXx6Lt0UTQRyVQ3gwdNkJaC4wY/TcN6NtH7TKdO/qcMa3Ezo14PiDjiJI34rMKiiICx+NzG9j/d+37Vee7Q9SydRv5uYJBfaHwgPJaCRQUSgb0/c3CIg4WEf0H/aF2B5i74hkXoFIHNiRLmZSatq1PVep+GyBQYCth2t6rbX/ZwcJIOTpKgZn7O3Bq6tjL33oP9UPxAYErCEztrQmUF7AGcFQwWq0UEXkK5aI5G/w+N/wW6gXnLl+ttNwUK7ZrzeTVeY4KiwcoCyCw9hg22U+BqPZjbrQKUfswKj9duLVAYgoz/iHjf6dc+bOr3dKConOTHrITvmDaUmlJAlcPW4LR/Jz5slHvYd0oaYokWlGM9u/a5GfFpm10wUJVcb9hUrJ17Q673+PgqjJ1+RiKLD63P3uN1u6Ftt1bUq1GVQmuF00qt5FVw6JDn8nFmfsd9/+ZY+dlvXAh+WvKAM31o9GP9ahz0x5048otdUkB5nMmLtSUEOWqlaKufdtJRZEquEAojib8NY18n72gKaNnyf1qH+b9RvfQrF8SJI6v30XzN08Rgz9+79H6zw+F8I4K6z1YCWIACu+SGKDAswxT4UIFpJsm3rsR5JeFCTABzyTg/9bhme0LFa2Cf/7fY8ZRqTLf0o9tO8iOEDoU6ECjg/3HoP60d+dW+mPwALFeSHsRdNXFZRUpT1WHNnv2bFq1GP2CpBXWEhhBgGD0WcnM2X4/+lj/+X+dNSUE1hFLokM7vx89rLtD9FYK1uJgFC1SOEAn21ZbOrRtY6GEQFmMYDcWChmj/ztcF5TrSqeO7QIoIXAsRl7nzJxGST5nL4G1CDq+UNw4MiHehBK0B51ETKpetQ9afrUvrojLYU3uixgOECi4CgnFhlHQ2YQSyl5BnIEpE/+1UELgWPh9t/2ptUU1QeFmUYFuBSOy6j6ERU5VB+IMfF+/rqaEQJXg2lMo35TiCp0lVwpeevCdwOixUXDuNsLEXYmZyxSUOitWrpJF8LkP/3OIhRICO9ARROyLHr90U1XJOTrTz5+/kMu/9e5hoYTARrSpWdPGcj+sFuDCYk2QFlUpIVAGnfLGDfwVd7BG0gsUFQsX+42o437r1eMXTQmBcsmFgk8f80Z9nvo6grqMWBRwD4Lkz5fHQgmBba1btbCqcMH+h48eSUsSLGcUipdBoiOuV0Jge7MmjbTvIV5q1TMB+6yJI88Za3UE53Zc86/intIr+fBbVPHbCrIZ+MyhPFcC7lC4QPLkzmWhhMA2KHphEWRNXPGMs1a3PdsxItu0XYMASggcCyuJRj/W1ao5bWIWr+0MxgX8tiAOAjqDjkz6zjiuDeuYEiZJYNF6dHTVPvj6u0MePXikVVtExIIwk3xf5BZWEpaKTpRDhxaj6xAoc/RKCGxD5onvmlTHIr198442rtwql239ixMvNg2d2M9CCYHyaUX8g0Y/WVoA2aonOPZlzJpeKiFwroziPlCSI29WuZgybQqCZQfE96mvnKt/ztzvy+b4xXlBXa27NtWUEFhHPI2mbf1/G7BNL7D4QXpaSJoMqahbv/bau6Yq912Tatq9CEWbip+i9uMc6r5U76lqX5LkibV9sNAwCt7F8Hu0Z8cWGvv3SCpT6hstDhhcH3/u3otKlCxLAwcPlda1xuN5nQkwgZAnwBYRTnwGMKVsLUZB9+zda2GOhyBetWpUkyZi+g6oE6eyeah+5FyZq+EAjJxC8PIJU2x0UJQbBLbDHBuCwH4lREBIoyCWBUZV3gpzS3cIOp5KEIQQgf70o/Fqn71zXG+TxvZ3vk99djtAJxyj3PYI/A9XLPULAGdPeXeVSZ48ufTVhyXBzFlzxHU3tBjNdPS8zUUnVn/v2Do+KNys1bdI+KArq5gWogNuLZio2fFmwRHxfcuVM6d0Q7ry+f42O9bZbeisYpT97r17WmyRxz4+WrVwkTHK6TNntNEx8HZklObEyZNadQkTJBAWFwe1dRGxQy4nE24eSs6cPasWA8zLisCCRkGQTCUPHvi5MKj1u8JFR7lklBPuIHiWGAXWHdFFDBYE4oXFjKvkiq6uypUqBqgWzza4JalYCMYC6FCr5xeCmcIVw1/8Tc7Q2d68ZZsMbIe4EcrKxr+s/5Kjzxn/I0NuqaRwd9L/TqiWVBbP3OWflVaXhaIML/IQ9duA5WpVzc3+K1f6VgYKRhlPFnR8Ht5/JAIVetOb129lU5/4+H8/n4oglp4gkSJHoolLRntCU4LcBnQclWxYsVVagRhHstV+4/zsyQvapngJ41pYTiAmESRR0oRamUu6uA/aRsMCFBe2gmIaiofoKqxAlOjbHFNYvELwrIsuFMFQwrzwfamKBpg7er/DOgQCl4lCIoioURA0M3KUSKTcP/T7EZRSbYeFxulj57Td6jPDhuy5s0jLoPfv3ovgo9eFwi2DVs4VC1B8lhMBeTHBenCliNW0RCiVL1y8JC3doBzHhMG5MaNHaIpnV5yb62ACTMA5AqyIcIIfOiO7hP+yErzM9xdmtDCT1488qf3umkeLGk2rOno0/+Vo0f2Xo0aJKsu8EMEcIfiRuCMsOSApheIEozFGgZUFctUjk4U7BD8K8LFHhgaMFpctX1lkAMkuRvgLyIjuxb8sSrasAoxtypQpg+wMGbebrb9790745Ptdf4b06TWLErOynritooj9oUbdETdgoggaB3NojBoXFNkEEJPCkXsQ5e0RV3KDIm/K9JnytFAGIUuLIwJffzNJLSxNEA8FI/kw1YTfqKsEgfrQ6UXmDL0vsLH+d+8DKu8Q+0GJrY6uKqOfI1OIEpjTBybWlAHiXVa4KAU0Z4abi5KXQpmgl1u6GDdp0qTW79KW8axAvTiv+l5pO51YgLWZEmS/MRNbyl49cwSsxRSY4BpsfT6OPGcCO1dw7U+dyvy7AusrJXfv3lOLhECXSqwd64zSWNXtzvnZExdo7qRFtFdkHfik89s3nvOD+B1ncQ2BHHmzUWKhLPAWih90cBtWaE1ZRIDC3AVziBgZWajQl/nImjXGrWv+3/XurfsG2qCbV627C6iDs4n4GaFFokaLojU1qojzoyRqdP9l5W7zyhCsGGWDcr/jPfD+XT/Fc1KhRDKzOoCrSIJE8UVsDW/VJG1+87r/cwJZYTAFJjev3na5IkJ/TljzImscJgyawB1y3/4DsggCrz9+/JgVEXpgvMwEQpgAKyKc+ADQ0cODW3VI8NLbt/8gGQcCKfgQiC44JKIwx1QSIaK/QiGSLlWlKqNeyJ49e6aNcsaPb2nCqerC3FZKO325oCxjZHX8uL/pjz+HS596uLOgA4kJgtHx2rWqU++evwYwpzY7X0orHRWzsgjEqGJ4wIIltAlMoxGEb9r0WVLj/0j8uCLTCSYIOhhDBvaz263FWifPyMWV3BAHRSm5GjdsIIIs+ivOjOc1rqOstfKxdLE1ZBpSFyki4If6c/eemlUD2oQOPJQoeBa8F4oV5daggtXp231DxG9QkkJYtNgrvr7PZRBSlIfrhj33a5Ik5s8eKCQxemRLPg8+akXAUEnChP4jkmqbmsNSA514ZGaAy421z0eVt2euYjugrNmIPrbjvNYEQSiVQCEV08SaQ+1Xc6N5sNqu5o48Z9QxIT03S9uMNsWLG09rGgJYKtG7zVlT5MX6bHGnjvGk+ebV22nIryMsvqux48SUaSBJKOM+vv9ICJ4IUT7ontT+kGqL2YCEI22JHiMaDRz7G40fNlXG3kAAbgRXxASJKN5PkK60fc/WFib8iHOB9KoQtCFpCn/LCrnR5F/CJNafRap4MhGcMrSI3hrQctn/nU69x6l3TnVtQb3fnz97Li0sUA9cJKxJjJj+1hr6Mndu+Csv4wmLiug2UrKq46J8dhNW6+6Y4/0W6exhaYvBA714mQy66ffzMhNgAsFLwPYbafC2RZ7tnjB1RgpGJfrla9euWYxcpxcj2Y6M+qo6XTXHKOAWEXRw8ZJlMoAYXpphSvzXiNE0QgRQK16sGNUULhplhbmY0S/ZVW0Iaj14iUSnBp3x58/9XgDM6nor3DncKTmyZ6OZ0yZJf+Q169YTgmkibSYEI+YLFy0lmPMhvkZgEkvEV7BXlNsKyj9//tzew2Sbuos0gB+NvbVAakDwv6bCfcJVgs8OsRvQgV8s0lUeEn700PqrOALoELdo9ROtWbmMkFElMFHmn4GVCyo3Y70YiZk0eZrcDJP+xg3rG4vYXH8nMq7gJdfsxfnj5+BWqAApW10hUPr07tNfdmzAvqtIkQkLDr3FDtw0SpauYPV0sWP7+2U7cs8hLgNeTPF9QGyHNSuXWj2HO3bE0r2EvjZYS+jP9/q1nyUF2qpi1uj3B2VZrwi11mE0pt3Vn0evvOjbp5cMGKzfH5RlR54zQanfHce8evXatNq37/yf7zD7VgLlmhIE2jUTBM70REGcgeG/I/uEX6f2h86NqfJ35S1G4h/ce0j1y7TwqObj+z205yhtYMPexmXPk4VqN65mb3Gb5VRHF4X0pvUWB+l++9QIvX5/5uwZaPjUgTLLw7Z1u+jkkbN0+fxVWQTf4TWLN8qsIr8M6qQdFk2M+kNJgf2INTB1xRhtnzMLMXTuDs7U48nHOnO/gw9+Q/Fbqt4dzK4VGc7MRB/0tFOfNlSyfHGzYsGyDe+yu4WFMuL8IIOTcsnDyTFgABezunVqy9hewdIgPgkTYAJ2EfA4RQSUDd6GiPHqSi5e9NOqq/W0adPKF3S1HhJzmKciB3t7EcQOKRORMWPHzl2yg4/UcpjQeatYsTzVql49QJC5kGgzzonOQlJhSo0Raf2oo749eBFBusHgkELCnQATBD7ayHKBbAqQZStWioBE3a2OiMpCDv7DCGEc0TF8Jl6y1Si2PVXAHceRbBSqTnSWXKmIUPWio6XMEHGOjZu30JhxEwjWOe+EAmfegoUBAh+qY4MyDyo347mQ5hL+mxB06BFc0xHBSwdiS5iN9CJAoZJkyZOpRZtzuJzYkp27dmuxINqKLBEI+GiUm7rRd+M+rOvjMNwUpu+57HSHwXcV7gf4TPXXZnYOd2xLocui8sDb+vNA7UsumJspiMzaFhh3veXII93nqq/L1jMqfbp0WlGkOQ0pwb26as1ai9MjeG6B/Pkstrlr5aGV5/gjHRN9zB6928V9Q8wQ1UZjZhe1PaTnyJSgYkE0blOP6resHaBJd0U6waAInqnuElhRbV4duOuQ8fwYLHCVIkJvDYRYBGai75RGiervNmAsm7tgTuGS4efyd+3SDVq5YB0tn7tGFtuwYgu169FKZsfABjzjkou0j3DPQABEFvsJOHO/gzvS2sLtAnFUzATvgT4PzT8TffpZa2XM6nTlNrxHwPIBcSG8dc8znIMzZ7iSNNfFBNxDwOMUEY5YODhS1j34/GvFKClSP2JCx37JsuW0SFhKwF8aASIxso8Jo9NIOwRLiZCWNMJvGIqIO8I3+KwI6mb0i0bU9Bcv/K1Tgqu9mTNlpD4iMwDiRiANIgZgrt+4ESDrhbPtQTYRuIEgRSeC2mUTEZgDE/xwI57Cp09+KaUCK6/2p9cFA1TbXD2HKXy1KpVlwM/vGzWT1et95F11vqBwM5574uSpchPcBJqLlKVBkf8OHaKKFcpbHApFkTLFhEl5YJZIKIOUlxeEkhMjvNYCSOrN1nPnymFxTrWyd99+tWg6198Dq9esC9B204M+b8Sx+CzRoT1/4WKwjuroXUEOiJS7ZgKXDGXOj5gzgYm93BGUVQmeRwiQaJT/Dh4ybtLW9coftF2l0NUKBNPCzVu3ZOR2/emaN20UbIoIa4wOfs6MgXbpWevjbiCIJ9LBGgWKd08U7/v+yrKsOc1jBBzef8yhpsdNEEemjbx68bowZX8rshf4+/PbqkhlOUCZl8L9wJZEEL8tiGmA0WlHJFW6FI4Ut1lWb57/3PeFaVn9dgQ4tEfSZUojM2EgbgTSReI3/fb1O5QlZybt8NRpU0pFBNJ/XrlwTWYO0XbyglUCzt7vyVMlk4qIB3cf0qVzVwLEbzh5+IyWzcTYiFQik4cSpGVVaWTVNnfOd4tBPlgenzptGZgZwddrVq9G9YT1Q/r06dzZBK6bCTABFxDwOEVEkSJFXHBZIVsFYkPAbP6n1j+IjBr7Zeq7LVu3y7Rw167foE1btnqEIgLKkP2fOxbjxk+k0SOGaSOZeBmaPHW6W0E+efKEognTeWudRf0InbUOojMNrF6tilRE4KXoz+EjaeK/Y0z95xEUEi4k6Oij47xk4VxnTuuSY+EGgLSJZqIPRqiClJqVC+q2oHDTn+vIkWNaSkZkvtCPeuvLBbY8b/4iaWqvV0hu2LhZy8LxVYnigVVBCMR39NgJaT2COdLFmok+ZSfMPpHKUy/ohM8Q2UtsCdIlquCsmzZvJXQOsc0oyDwB96T8+fJqu2qIe3Xb9p1yffjI0TRh3D9W3dIwQgSmercGraIgLCQScSGyZMlEFy5cotNnzhI+vwIF8lnUNHOO/3ei+JfFLPaZrdjLvaA4D8xqEXcCypuunTtaWEbduXtX42J2nuzie6vavnHTZqmkgpuUmSC46ZUrV+V33Wx/aN4Gpa7xfoMrwJKly+VlIdaR/nMrUCA/IRgsYmxsF/cdPvecIpCwEij7Dhw0V0qpMiE1R5pHJXu3HSCkNtTLowePaemsVfpNgS6nEJ21M8fOSzfBM8fPm6afNKskSTL/WAcXzlw2K6JtQ+rNcQuGa+shsQCFgZItIs4G3Cz0AjeAvVsPaJvSiTSYekGcBwRX1FtW6PcjIKISozKnXLVStG+H3z01eeRMGjTuN6vPOCiEUFd4cL1QvKzNnb3fK9Qoo2UomT1+IfUZ0V28B4pAKkIQi2LBVOuugJnE/ZE+c1rC57Fr814ZMBOuQmaCzEs3rtwKcE+ZlbVnGwaplBICQZiLFS0ilQ9lRWYnZDdjYQJMIHQQ8I+CEzraG6paCfPkr0p8Sf+MGk47t22kn//XmdKaRJ2HewA6lvoJnWMILBL027GMUV9XCHzm1GgnOnDtOnShLVu3yalD5//ZfMF3xflhTlfi6zI0YNAfhGjG8FGEAgQvvf+MHU/LV/q9LCYXLiSZMlq+ELni/A2/r0dZMvuNyOzes49gRYBOFlwc0ClBO/r0HSC2NyV9akZXnNvZOipVrUn1GzaRJolwLQE3KHYQrLJj525a9V99FXhnXCts54Kz3CZMniLPhJcHMxcHO5shrWV69Orjl0JTfF64h3v+1leru/UPLQKtqlzZMlqZth06ifguo4TycB/BukGlKUUBKKKUoEM8Z94C6baEewVuG7XrNQjUegixMH795X+qGmr+w480ddoMaTUF81dYXaxbv4EqVaslXby0gmKh4rcVqKjIxgOBW0vDJi1k1hQoLdChhIITwTQbNG5OVarXFtZEtjs9siI7/0HR077tT1rpH9t2kM8GfEfgRjdi1D80Z+4CuT9u3Dgi3sf3WllrC/ZyR0DbBuJ7CoEyolnL1tKlR1m+NGn2g83nISzV+vTqIY/HM7WxKC+Zi2wcYI6gZkePHachf/5FX4l888NFfJ+wKu07daWdwocapvV4ZuAZr9yjKpQraxFLBtzU9wduUOA8U6S/Qxwa3PstfvhJjmp7Iit0jpRsXbuTVsxbS48f+gh3jTcEM/Y29bpaHeFVxxnnJcr6K9d6tx9Ik0bMoMN7hUJ13zG6cNrPxcx4DNYRvFEFTNwvOtk47sSh0yKF4Q2ZVQKxKjxJKtYqRwjqCVk4fTmN/WMynRNpNWG2D3bdWvamGyLrAaRkheKkT9eJbXC5qFOyKf0zeCJBYQMrEHRmLwolzIxx82jDyq0oRkmSJaK0BiXGN9+W0BQ8+3ceos5Ne9Dpo2fptYhvgmfcLWFBgaCMnZr8Si1rdKBrn9NOygo94B8sRfB56if1HgcFjn47lpFm0xXi7P1etkpJLTjozk17qU/HQbRHKJsw9e0yRFMOmbUV77gde/0od+FauzbvKe6bZcLC4oF8vvqKYJhnRErPf/+cQnW/aUqTR84wqybI2xInSkg/tmpJm9evoelTJsrfSVZCBBknH8gEQoSAx1lEhAiFYDgpRhXR6fqhRTNChgO9DBw8VMvlrt+OZYy+YtLL1En/UoniX+o3BWkZbgYj/xpKP7XrKEeRjedC5x9lYAruLoESZtaceXLCORD8Sh9kCJ3VHr/+bHVkxJl24doQBLN9xy7SPQWjfPWF0iG0yJGjx0Vn9LhsbmSRgx6dM/Xig415cueiqlUqufxynOGGjs/2HTtlm0qVLElwwwmqYKR8qVBmYTJKk0YN7aq7QvmysoMPyyAowiZOniYn1JdLuGAsXThPVo0gkXXrQEGwVCoc+g0YTP0HDpb3pYpgXq5saYKlgy2pVLECHTx8WHbc4W/+x7ARcrJ1jNrXv18fatu+k3RZgptC/YZNxfkRVE6VcN8cHdVS33wtFRBQCEAZYRTcFz1+6UYx7Qgaay93nAMuDJuFFRlix8CVCooWvcBSCQohawKrk47t29LYceNlOUeYW6sztG3H8+HJk6f0Q+u2AZqeSMTLQZwjo9SuVYMOC2swKIzhXojfKb3AmglKOU+TNOlTyeCUCIqIDuDogePp70HjCV8WlTWqRNmitHuzbVcq/XV9Xe5L2UmG+TnqnDdliZxQJqtwL/h34Qh9cYvl5h0aaRk89MehUN7CuWjk9MEW5UNyBa4Zrbo2oxF9x8pmLJm1kjAZJaYIctj+11bGzXIdHfJlc1bLCRsiR4lE7976D57gmdWme0vT3/SufdvRbx0GSSUNXAI6NOoebM8404txYOMYoXzZuHKb6RF7t/1HmPTy58R+VKh4fv2mIC07e7/juf3bsJ+pl1CwwS3G2FYojFAG7jJmgnu4WfsGNHPcfBmbZfywaSJryjSzoi7d1rJ5M+rSqYNsm0sr5sqYABMIVgIRgvVsfDL54wulhF4w+uSI4EcBgijTcq47PmIEv33Yrk9TpM5hDCIH8+9F82cTOlF4IYUkSZKYqoqXzEnjx2quCrF0KRFlIRf8yy06yl8WK2JhxqlXQiAWw+QJ/9qMdA8TQrzYQBQXvzX7/iNgHLIQ1Ktb29RFBCO8UB4lsJEi0L4zubZUrRrVhVtBSq1SdGpVhxQj7y2bNyUorKy5veDACLp7RX/faJXaWAgqt0lTpmntVCOuNk5jdRdSNk4R14d7VS+43l9/7iqCm/6i32xzeerk8dSuTWvKljWLMOn0180amfQWAVNbiNzk6j4Dbygh4AKB2ANDBw+06178vXdPmibOqY9foG/gF4ULUo3qVfWb5DLiyyxfskCMVDcnZNKAqM9croh/sPBp3/ZHypA+ndok59r3//Mzw2KnWIF/uhL1XFHrmMMqYvzYv+l/IlsIOv5GgaXXnJlTZepi4z5r6/ZyRyDT+XNmCneYrzS+qBPf/ZJfl6Axo/3N2Y2fmTo3mCyYN0tatqjnhdqHOXhWrFCOmgqlh5k4+5wxPndxDi8vx577OCaoOqce3X8WcR6qa/cu6oJA2bZYuJpB0WYU3OdDBw8QyqX/yXJYx/ejQP689PtvPalKpYraIbFjxdaWPWGhvQiEWLdZDe03Et8TKCFiiPSC8GP/dVBn7V4y+2zMruHPSf2p8U/1KGPW9BRJ95zQp8w2O65c1W9o3Py/qEzlkiJ9aGzN/RFl7T23Wb3u2lalTgUaJq7VaLGgzofrmLZyLCVM4ve+oLZjjhgXBYvlFTE0/E3j9UoI7P9jQl+r2RUQc2Di4lH0vQgwCmsSiPEZlz5zGmrSpj6lTu//+ycLfv6n/zyCk6/+vPr2WFtW5Y1zlFfb5LLu/U5dj/EZ7ez9niNfNho7bxhBQRc/YTzZZHy++KyH/Ps7qWwq1rJr4fMYM/dP6XZh9nzFZwkLmtpNqsu6XfEPsSDUb7Er6uM6mAATCBkCXsI8NajvNiHTYhed1cfHR9YUP358F9UYNqpBmkL9iGaxEqWkBUeZ0t/Qv2NGu+UiESTwylUEu3sgTKV9ZecyVcqUlDKlfyAkt5zYUCncGxBUDv7USAGJjj5e0F2VitBwOpeswlUHAVFhIg+TxJSCGzqFMGkPLrGX221hDl+2QhVpZltQ+KDPmz3d4SY2ad5KumRAEbFv9zZ5PNwSzp49S2nSpJHKBHe/nMAFBqPz3t4PKbPo+GcU94h6QXT0gnx9n0s3CnyGiRIlIgSlRIyZwASPbcRHuCTagRTHSZMmlferPpZFYHUEdT8+7+uCOaxboITJljWrafaSoNZv6zjwOnHypLSaQvyIOMIqxlGBOwu4If5B7DixZawVfGc8+XuurhH3XWXhugNp0qgB9e7ZXe0KMIfVDFx1IEhd2qB+XcK1wxUF/tq5c+cUymdLpXiASnQb4NIBhZQyfZ47fyH17T9IllixdGGAYMe6Q4Nt8dan6xbnQswCuEE88n4sfdnTZEgtFVgWhXjFlACeMd7CJePm1VtypDyFyGqBLAmwhghMENDzhjgO8ThgIYE4BslSJtXcVAI7Hvtx/gd3veXn9+rla0qcNCElS5VU1mXP8eGxjKvud1j9QGmnpNZXjenJ46dUvHQRGvBPL7XZdA5XGrjN3Llxl2LFiSXdcFKmSS4sY/yVU6YHOrgxlVdaB4/g4kyACXgiAf/hP09sHbcp2AnolRBnzp7T3EjSiBd1dwkCUSJjhzFrh7vOZ61edCbTis4sptAiCFhpLWhlcF2DvdymTZ8llRBolzPWEMbrgqUApuASjNAXLlTQJadD+lVYJekDU9pTMTqESLGoT7Noz3GuKIPPO336dCESkRy89EEVg3I9sBiCNRam0CaHjxzRmhwURS2u/ctiRbU6HFkwKmp2iXgTShB81BMFFgh5CuX0xKZ5fJvwjEEsB0yOCgJRZsqWIUAGBkfqwfmTpkgiJ0eOC89lXXW/65UQF89ekUoIcIUyKjCJFj2atIyB9QsLE2ACTCAwAuFWEcGWEH63xroNG+WIOkzB9aNjjx49Fj7wQ2QhmCXDFYCFCThDAJ13WJgg8wjM7FmYABOwnwDSj6qgoDhKH0DV/locK9mrTz+qLOKaFC3yhYXVz4pVq2nr59hFcGmBZQwLE2ACoZPAjg176N7t+1S+emnNNQNXAiuIfwZNkBflJd4DkWGDhQkwASbgSgLhVhHhSoihuS6YKCNDxfCRf1P27FlFyrbU5CvcIxC4EYEkIbVr1aSsWVi7HZo/Z09oOwIUsjABJmAfAbhW/Pyrnxn0u3fvhOuat3Zggfz5qMjnLCraRjcsLFq8lDAlTpyIsmXJQnFEzJzLwnUN6WUhiBnRrWtnN5yZq2QCTCC4CFy7dF1kNZlPk0fNlFYsKdIko+fPXsh0nHCtgVSsWZYyZEknl/kfE2ACTMBVBFgR4SqSobQe5e+L9FinTp2Rk7oU+Nr/1Loltf2ptdrEcybABJgAEwgGAojXg9ghRilUsACNGPaHcbNb1qFoQCBcxEPBpBcop5F1KHVqz3TL0LeVl5kAE7BOIJKILwX5IGJjnRfpaDEpQWDMBq3qyECtahvPmQATYAKuIhBug1W6CmBYqOemCNp2+MhRGfzu8WMfgg98xozpKXfOnJRKl5khLFwrX0PoJrBj5y6ZahVZDqpXrRK6L4ZbzwRsELh//wFt3b5DKxEzZgzKmjmzDJBqT3BUuNdt3LxFHl9EpDA1y4yhVW5l4bUIJHxMBLc8e+48PRZppxGwEkFhM2bIQAgWqhTZVg4P9s3GYJXB3gA+IRMIpQTu3rpHSJmKAKFPfJ6KDC9xKK0I7ppFpKdNLoKEeppwsEpP+0S4PUwgaARYERE0bnwUE2ACTIAJMAEmwASYABNgAkyACTABJhAEAo4nMg/CSfgQJsAEmAATYAJMgAkwASbABJgAE2ACTIAJgEC4VUT4+PgQJhYmwASYABNgAkyACTABJsAEmAATYAJMIPgIhFtFRPAh5jMxASbABJgAE2ACTIAJMAEmwASYABNgAooAKyIUCZ4zASbABJgAE2ACTIAJMAEmwASYABNgAm4nwIoItyPmEzABJsAEmAATYAJMgAkwASbABJgAE2ACikAkteAp80+fPsk0Yc+fP6eXL1/Sx48fKWbMmHJKlCgReXl5eUpTuR1MgAkwASbABJgAE2ACTIAJMAEmwASYgIMEPEYRAYXDuXPn6Pbt2/T69WvTy4gdOzblzJmTEidObLqfNzIBJsAEmAATYAJMgAkwASbABJgAE2ACnk3AY1wzPnz4QJcvX7ZQQsD6IVIkf12Jr68vHThwgB49euTZVLl1TIAJMAEmwASYABNgAkyACTABJsAEmIApAf9evunu4N8YJUoUypAhAyVNmpRixYpFESJEoBcvXtDJkyfJ29ub4Lpx5MgRKl26NEWMGDH4G8hnZAJMgAkwASbABJgAE2ACTIAJMAEmwASCTMBLdOw/BfloFx4I14ybN29SqlSpTBUMsJjYtm0bvXr1Sp61RIkSFD9+/CC3wMfHRx7rTB1BPjkfyASYABNgAkyACTABJsAEmAATYAJMIJwS8BjXDFg+pE2b1lQJgc8G1g+wklDy9OlTtchzJsAEmAATYAJMgAkwASbABJgAE2ACTCCUEPAYRYQ9vPTGG/rYEfYcy2WYABNgAkyACTABJsAEmAATYAJMgAkwgZAnEKoUEcqdAtgSJEgQ8vS4BUyACTABJsAEmAATYAJMgAkwASbABJiAQwRCjSLi4cOH9OzZM3lxCGIZI0YMhy6UCzMBJsAEmAATYAJMgAkwASbABJgAE2ACIU8gVCgi3r9/TydOnJC0kNIzb968IU+OW8AEmAATYAJMgAkwASbABJgAE2ACTIAJOEzA4xURiAtx9OhRmcITV5cxY0Z2y3D4Y+YDmAATYAJMgAkwASbABJgAE2ACTIAJeAYBj1dEnDp1iu7duydpJUyYkLJmzeoZ5LgVTIAJMAEmwASYABNgAkyACTABJsAEmIDDBDxaEXHhwgW6du2avKjYsWNT4cKFCWk+WZgAE2ACTIAJMAEmwASYABNgAkyACTCB0EnAY3v1V69epfPnz0uqCExZtGhRihw5cuikzK1mAkyACTABJsAEmAATYAJMgAkwASbABCQBj1RE3Lp1i+CSAYkaNapUQkSLFk2u8z8mwASYABNgAkyACTABJsAEmAATYAJMIPQS8DhFBOJBHDt2TBKFBQQsIWLGjBl6CXPLmQATYAJMgAkwASbABJgAE2ACTIAJMAGNgEcpIry9venw4cOETBmRIkWSSog4ceJojeUFJsAEmAATYAJMgAkwASbABJgAE2ACTCB0E4jkKc1/+fIlHTx4kD5+/CibhAwZjx49kpNZG+PGjUuJEiUy28XbmAATYAJMgAkwASbABJgAE2ACTIAJMAEPJeAxiog3b97Qhw8fNEz3798nTNYkbdq0HqeI8PF5QqvWrLVocq6cOahA/nwW26ytbN+xk27cvKXt9hJLDb6vRxEjRtS2WVtw9tzW6uXtTIAJMAEmwASYABNgAkyACTABJsAEXEnAYxQRXl7odtsvjpa3v+agl7wpgmwOHDzUooLmTRvZrYiYPXc+7dy1x+L4mjWqU6xYgcfIcPbcFiflFSbABJgAE2ACTIAJMAEmwASYABNgAm4i4DGKiHjx4lHVqlXddJlcLRNgAkyACTABJsAEmAATYAJMgAkwASbgCQQ8KlilJwDhNjABJsAEmAATYAJMgAkwASbABJgAE2AC7iPAigj3seWamQATYAJMgAkwASbABJgAE2ACTIAJMAEDAVZEGIA4sxohQkCcXl4Bt1k7hzEoJcJm2Bs6w9lzW2sTb2cCTIAJMAEmwASYABNgAkyACTABJuBKAl6fhLiywtBSl4+Pj2xq/PjxQ0uTuZ1MgAkwASbABJgAE2ACTIAJMAEmwARCPQH7h+tD/aXyBTABJsAEmAATYAJMgAkwASbABJgAE2ACIU0g3FpEhDR4Pj8TYAJMgAkwASbABJgAE2ACTIAJMIHwSIAtIsLjp87XzASYABNgAkyACTABJsAEmAATYAJMIIQIsCIihMDzaZkAE2ACTIAJMAEmwASYABNgAkyACYRHAqyICI+fOl8zE2ACTIAJMAEmwASYABNgAkyACTCBECLAiogQAs+nZQJMgAkwASbABJgAE2ACTIAJMAEmEB4JsCIiPH7qfM1MgAkwASbABJgAE2ACTIAJMAEmwARCiEC4VUT4+PgQJhYmwASYABNgAkyACTABJsAEmAATYAJMIPgIhFtFRPAh5jMxASbABJgAE2ACTIAJMAEmwASYABNgAooAKyIUCZ4zASbABJgAE2ACTIAJMAEmwASYABNgAm4nEMntZwjDJ7j16XoYvjq+NCbABJgAE2ACTIAJMAFrBFJ5pbW2i7czASbABJhAIAQ8ThHx5s0bGbvhxYsXhOWPHz9SzJgx5ZQ4cWLy8vIK5JJ4NxNgAkyACTABJsAEmAATYAJMgAkwASbgqQQ8ShGxb98+evjwoVVWUEhkz56dkidPbrUM72ACTIAJMAEmwASYABNgAkyACTABJsAEPJeARykiXr9+bUEqUqRI0iICVhEQWEkcOnSIvvjiC0qaNKlF2dC84vvsOT1/9iLAJUSLHpXiJ4wXYLurNnz69IlevXglq4sqzhUxYkRXVW13PXdv3TctmzhpQooUOeRuz48fP9Hrl35s0MAYsWKYtpM3WhJgbpY8eI0JMAEmEJwEQup9Atf49s1bev/uPUWIGIGiRY8WnJctz+Wp7xPBDoJPyASYABMIJQRCrqdnAih27NiUJEkSqWSIFy8eQRHx4cMHaSVx69YtunPnjjzq6NGjVL58eYoQIWzE2pw4fDqtWbwxAJEcebPSmLnDAmx31YZLZ6/Qj3W6yOra92hFtRpVdVXVdtXz6MFjalihlWnZoRP7UuHiBUz3uWsjFF5LZ6+m1YvW091b9+jd2/faqWatm0Ap04QNS5webfrRqSNn5bV1+b0tla70tXad1b9sQB8/+Cn+Ji39m5KlTKLts7bgLLfZExbSIceMwwAAQABJREFUtDFzZPWz102k5KnCjpIRF3X9yk3xgv5OXl9E8YKeIUs6uWz278qFa+KZ91E827woY9b0ZkVC3baTR85Qzzb9ZbuTpkhCk5f9rV3DgqlLCZ8/pFTFr6hr33baPlctvBGdo7PHz9tdXZYcGQNVPJbPV0v+NpWvWoq6D+5sd91hvSA6wfduP9AuEwrleAniauv6hSePn5L3/UdyU6IkCdyqdNefNyws4zv14f0Hihk7JmXOnsHikkLqfQKN6Nd1KO3bfpBix4lJK/bNs2iXu1c87X3C3dfL9TMBJsAEwgIBj1JEFCpUKABTjNLD+gHTq1evZPyId+/e0bNnzwjKirAgGD0ICYFFhBL9strm7rmX6Gx5kvz75xRaMmuVaZNCgo9pQ1yw8eXzV/Ti+UtZE0aw9OL79Lm2+v69vyJG22iy4Cw3KDI+CQsUiLJ+MjmNR23asGIrXT53VYz6RaUWHRvZbFvXZr3I59ETrcw/s4dSzvzZtXX9QqvanTQW6w4voqjRoup3h8rld2/faffbc1//+wsX8/r1G23fq5eWFnGuutgbV25R1+a97K5u2OT+VLBYPpvlP4jvBh6fUJSHBnn80IfmT1kqm/pVuWKUu0AOtzR7+7pdNLL/v1rd4AieZrJq4Tqa9s9cuatei5r04/+amxXjbQYCZ4RSrVPjX+XWctVKUY8hfoMJqlhIvU/I839+pdC9WqhmuX3uae8Tbr9gPgETYAJMIAwQ8ChFRGA8EyVKJBURKOfr6xtmFBFd+rQlTEoaV/yRbt+4q1bD7DxBovi09fRK7fo2r95Og7uP0NaDcwEdxRXz1spTJkgUj2o0qEIFiuShKNGiyG1hbZTeVWzDK7ddm/bS3m3/UYyY0QNVRBhZz5m4iAb/28e4mdeZgNsIPPL2ocUzV8j6EydL6DZFhPECDu87RudPX6KsOTMZd/F6EAnMn7JEHom43fVb1ApQC79P+CEJyfeJAB8Kb2ACTIAJMAFTAqFKEQGLCCVRovh1ENU6z5mAMwQwavpemLpCKlQvQ41+rOtMdeHmWFdw+7ZmWcpTMKdkljR54jDPbv/OQ3T5/NUw43oRmj6w3AVzUNvuP9hsctoMqWzux86R04dI652EiRMEWja8F5gzcSH1H90zvGNwyfXDzWvP1v2yrqJfF6b0mdO6pF6uhAkwASbABJhASBAIFYoImMXfu3ePbt++LRkhdkT8+PFDghefM4wSeHDXW7uy3J87xdoGXrBKwBXckiRLRJjCk8ydtIh+++uX8HTJHnGtcePFccnofJ5Cfoozj7goD2/Eni37ZZyUtBlSe3hLPb95C4R7jXJ7+L7Vd57fYG4hE2ACTIAJMAEbBDxSEQHf9KtXr4of3E8yFgRSeiIuBMRL2CPmzp2bQqNFBIJzrV+2mV6/ekPN2jew8bE4tuvWtdu0b8dBOnviAnnfe0jPnvjKIIMYLckiTGIRBA7cApObV2/TljU76PihU/RSZNPIliuzCBiZn0qULRbYoTK44/b1u+nSuSt07dINiiNe+DNlS09flipC+YWLg6fJU59nmqky2nZRBO5UsnnVNjp9zC+Yo9pWT5jAxhKBwYwC1muXbBQj3Nfo+uUbMlI4ggxi5FUfBNJ4HNZhgTFz3Dx5n+fIl42KlSxMJw6dplUL19ONq8JCQ9zzyVImlZ8fPsOQyGpibLcruOHeWjFvjbFquV69fqVAAwWi4ME9RyQr3NcNW9cRz4f3tGrBOoIpuPe9RzJAXuYcGah242oi+GWyAOc69t9J2ijiPNy7fZ8eej+mWLFiUoLE8Slb7izinv0iQEBJfC44p5KrF6/LRXyXp4yepTZr86p1v6UkJtYdCIR44cxl2r5hDzXvcIdSpU2hHRPYAoIuHtl/nA7uOkx3bt6Tgf6QWSZdpjSUQXzX8T01C6i6dskm+f3MJILaIVbAtrW7CP7UJcoUpTpNa4jgcv+Je3iTqPMuZRXf+dZdm1kNMIhnMr7nZ46fkzEynojvUfrMaUTAvIxUrV5Fuz67wK5T7cf3o1+XPwh+8HiORIoU/Fl9VFv+E8xhxWIUBB4t8nUh4+YA68F9v6IBM8bO1ay8EMhPCYIJ4rmlF9w3sExypWQW9/pFca+j4zx30uIAsQwCO5cn3O8IWuyu3zV8l44eOEFrRaDqlp2bBBqk1/v+Q4K7AQQxPnJZiTMjCzjxL6jcjafE9W1cuY2OiWuEe04yEag2e94sVKl2eQrMksid3I3t9KTnjLFtvM4EmAATCOsEPFIR8fbtWzp37lwA9tGjRycEtAxNQSqRzvCI6BytWbxBmFQekC+G6AC4SlDv8N/HBqjuplBOHNxzVG7fvGo79RjaVUSyjhWgnNqAjtWs8QssXlDxEolOce3GVanNLy2tZilZv3wL/TNoAhmDzR0/eEpkoVhFdZrVpB/Ei1ZIdiTUdao5OmTw1TeTrSLgmlEq1CgTQBFx+uhZGtBtGD0Qyh+9nBLbV8xfS1vX7pQR9a1xfysC9amMAei4IpXqwJ//0ldFVy/ekFHIkQrNlfeNxUkcWHEFtyePn9CkkTNNz/p1+eJ2dWYP7j6qKZIq1ipHfTsPsVAm4f5HZPnjB0/TpKWjtXMhGGa/LkNp1+Z92jb9AuI+IIPHlpN+/vRq3wmhnDO7X1Cf2XYE6TNTRDQQSpO+nf+QASnh692tfwd1ikDnjb5tTfoOpToA31MIvr8/D+xIJQVDvUD5iXvSKCcPn6Hzpy7Rzo17tA4r7rdrYhq3YLixOD0SCps/eoySyh79Tiget63bLbLNbKDfR3QndEBdIR9FIEg8MzEhjfG34jtY6bvypsoWV5zPVh1Q0G4Sz1GjlK1S0j5FRDDfr2jnrPELTYO/QgmHSS95C+dyuSIio1DSJBKuK1CSbxX8mrdvaFcWHtWukL7f3fW7hmcovpPIlKXSTdpj3bBo+grte1r/h9oKk8vnQeWubwiUEKNE0FK8PyjBcwJuaasXbpAxcqxlBXIXd9UO49yTnjPGtvE6E2ACTCCsE/BIRQRGOZXFAywh8KMGQYyIkydPUuHChSlatODPUe3IzYAOw7qlm2itmPTpzFBHdBHgzlWiUkyikw9z4dTpUhGCkWHkercwicWLDn78u7XoTRMWj7J6WoyIQrLlziwtGND+nSIgH0Z8kUkCHYEGreoEOH7xjBU0TmSbgMhR1tJFxWhyWnosgj/u3LhXtmPhtGUUNWoUMQLcMMDxIbUBKeXQ+VdyTVgzoGMG+eKrgmSMVRAnbmxVVM7B538te2tpGRGMDS/zyEaBziyCOGI+UCgqhk7sZ3Gs2QrOr0a74KaAkdZP4u+SyMyg73ziM9kn6nVUWnZqTIlEKj1nxVluOH9MYX1QpnJJrSmworl++aa27ujC6IHjpRIiStTIwjIgHSUVKUfv33lAF077ddD19S2ZtVJTQsSLH4dKV/5ajNQlpWdPfQnxLg6I7wpGBI2SVXwv9PfLftG5QupB3PNVvqtgLC6UEOauJrhPCn2Znw7tPSpHC5u2+54SJzUva6z0vbD6gCQXVjLZ82ShFGmTSyuZa0KJuGvzfmnFBCXLgH96UfHSRYyHy/WU4hiYyOPehEBZhjTI33xbQtz/p4WywYfOnboog+XqrStgxdKmbld6+HlkPUXqZFS0ZCGpNDp99Jwc2YWVRjfxnZi5dgLFFWydFfwORI8RTSo48X2aJxQ386cuEd+z3FSlTgX6SliARI4S2aHTQHFkK9MFWJhZj+USI9BQKiuBYiKoEhz3K9pWrX5FmeIRy+CH3wMInvGwYNFL6vSBx8XQl7d3GdZKUEQgJS0+u86/tbH3UGERFnL3u6t/13DvHBIWVavFwAGe3+ChBL/dgd3HvuL5hEEHCCyQitphhaPqd3TuCu74HYQSAsF88T1FYGpYq8EaDM9NZLGZv3mq/H7r2+dq7vq6rS274zlj7Vy8nQkwASbABCwJeKQiApYPFSr4vdzjxREZMi5cuCDjRDx5Il6odu+mUqVKeYSpuh4n2npAmPCuESOD+3ccshiNwgs1Rioxsu5K/2KY7jdtW5+qiE610dyxlTCx7tW2v7SMgOsBzEBtuUnABLr7oM6iY+LnxoGO18+t+khlxOKZK6l2k+pSoaCuGa4m04X5LyRmrBg0ZPzvFuaiTdrUp85NeshOzYJpS+WIm6dkn4Bipcvv/plKMEKlFBH1mte0yQnXO3fyYk0JUal2Oerat73GrXGbh/S/Fr3o9vW7kv2ZY+cIrhe2BOeOHCUSdejVmmqKjB1KYDYKlwMVQ+H8yYuE1JGOyndNq2uKiH6je2jWK3BH0Mv8zVO0l+SkwpTWKM5yQ33opPb6839a1TP/nU/Tx/jdR9pGBxZgNp9T8O09rBvp2wzlBrJb6GWHcIlQ0keM3uf7IrdalXOYrCuFkH5H4eIFhJtSAW1T7/YD5Qt1dGGpor+PtAI2FtA5gyICL/xQ0rX7tZWN0v678EIPBQMUZcbOMqyPuop7DmlQF05fZqqIQKdg6vIxstPzZ6/RhJFHSNvuLalWo6oEF68mlf06irAm0SsiEHBQKSHwnOjat53Fs2CBuI4Jf00j32cvpKsK9ivJUygXzdkwSa5GMSgO4BpSvlppuS9W7BjqEDlH52zxjpm0Q1hs+H0/T0szfzWiHydebHls5TrlpXLF4mArK1DAlMtT08peEikkmxHcsIyCZ6FeEbV17Q7ZFmM5e9aD435FOzr2+lFrDp7/ShEBNy9wDw7Bcy+fUNAeE/cnPkP8JqBTao+E1P3uyt81uFNAyY9BiQd3LS3n4LqI94GyVb4JVHG3XLiyKYvD+i1qB/j+28PT3jLOclfnwTvBX1MHajFZWnxoJC3+8AxGmujVi9Zb3Ieu5K7aYM/cHc8Ze87LZZgAE2ACTIAogqdDwAhV3LhxpRVE8uTJZXNhGYEYEp4iGH1FR+r7si1Fx3+AHG2EUgJhGTBK/sugTvKFGnOsGzsRzlwHRiWbtmsQQAmBOjHSos/+AFcCawJf83YimrxSQqBcTuGDWq5qKXkIXhJ2CN9wvaBzgpFSCF56jT6rUIx8J5QXkLdv3okRYMc70PJgD/uHEXM1OgUFEzqSem5QGsAMWQncU+yRpm2/t1BC4Bh8hjUbVpGxPrCeSFi7wFrC0QmuHUpg1QCFECZYqugF7gRqn/6a9GU8bRkdUlid6JUQaGPajKmp0U/1LJr7UIzGQfC5mSkEURc65e4UPAOgOIHAnQHWS/YIOveIR2D2/ECd+YSlAASxYvSj96pumEKrkdeMohOkJEferHIxpYhXAasSCEZglWA0XaV+TCMySnTr1z7AffNdk2qUMEkCeQgUHFCgKcE9rO4pVUbtg3JE7YttsDpCGXxOcMkYNWMIzV4/UXZkk6ZILA+H0gjtal61HXVs1F3G/DCzZlHnsmf+8bP1nT1lg1omtN2vQb1OdVzD1n4ZiPAbsGjGcrU50HlI3e/O/q7B4gbuRD3b9BfvBD+IWB3zNCUElLBwdZy4ZJSYRssYNoFZD70RLnxLZ6+WvGBpBSsud4qz3FXbKgs3Kn3aVsQ4wjsGrMggy+esUUXl3FnuFpU5uBLczxkHm8fFmQATYAJhloBHWkRYo50lSxa6e/eu3P3o0SPKlCmTtaLBsh0vHFA8HBSjmxiJVIIXZaSArFCjtHjJDhgoT5Vz9Rwv/+hoed/zpjev/czLn/g81U7z1BCgTNshFhCUEi/IRsHomfLzRABFvZw9eUFbjZcwroXfsXKn0bsDXNIFhNQODIULD+54a9YQiNuAlxijYFQpWvSo0poE8QoCE4we2dMBhrWE3mIisHrDw34ou9ChtUegaEFMD4wuLhUuR7VEpwDKzuAWdM56CmslfE/hLtKiYyOHmgBFAa7jyaOnmuuaCmYKS4tXL19JKyV9pbjHlOh5wVUG4meiHF3e2y98X6qiMiilcgGDlcRpYeGjRH3PsZ5dBPrEqDvOf+3SdRGsNoMq5pI5nqUI8gt3FlhFQOGB+BZgiBgYmMYMmURNhEIPihEzgXKqsokrjSoLhY67JTTer84wKfhlPtkhRcDCVQvWSxc/a3FzrJ0nOO93Z37X4DqHeElwcVISMWIEqUCEQq3oN184HCsJFhVKWVlXxFtS33NVvzvnQeGu2qN3v1Pb8D6AVM2w4Lp35z69e/tOU446w13V74q5K54zrmgH18EEmAATCA8EQpUiAi4bSmAVEdLyQXT8/9t9RGtGqnQpqEufttLc22zUUivo4gWMgCId4F4R/V6vEDGe5oPIRmJN4PNtJhitVKJP1Yhtt67dUbuoe+u+2rK1hZsGRYa1cp6+HS9QSqxxw8gzfP+hhEBmhsAkbabUMuNGYOV4f0ACyO5ir5SsUFwL3IjYJnCxyStiq8CEHJHokTUiOL67sGSChQIyMSyfu4bqC3eAGDpFgdn1QHmyUrjpLBFWAMpNwqwctik/b/3+qNH8rV+iRouq7YoqFGZKlOsEFBlKbl73V6Qh4wKmwAQZeFytiFDnxOcDFzNMnXr/JFyVECx3otz93PeFyKZyyqoiInW6lFb3qfrdPQ+N96uzTOCO1KfTEGlBt2zOamnZElidIXW/O/O7Btc5vRKisbDIgkUbrNCCIhjsgKsVBAMFsDJwtzjLXbUvubV3CuFOCkUEjI+gTFUuYM5wV+d05dyZ54wr28F1MQEmwATCMoFQpYhArAglwTkqoM5pnOOHCmaGqvOPH9LRA/6lCiINWjnh96m3BjAe66p1+LMP+XWEhb9y7DgxZfpMEhaQH99/pLufO8L6AFnG88eNb/6ipH+BUmbtOBbBqFQKOIwoK3NpY7369YRJEupXQ+0y0kMqQcwEawIrESgi4DcP81p95894DAImsgSNQDIRnNJeQacA2UlgIo7PRbociaCqO8QEQSBIZJ4wxo6wt35HyjVo9Z3MuoLOM7KsfP/Dd1YPR+egc9MeMh2iKgSXB/jbR/7sTuHz8InmKmUWkFH/zLRc9rcIiSjqhOhdO+7cuKdOSQjwaU+w3SgGlx+tAhcuIPYKrCK2GbLchISFiyOXFVrvV0eu0Vi2uLAcgzUK4rbAVa1uM9sxKkLqfnf2dy2CsH7QC2Ij3b5+h8oLa4hCwjLE0Xtzq0i1e19Y4EHw7LL1G6I/b1CXXcEd58azySzdNfbF1MWCwTsFFBHOcke97pLQ+pxxFw+ulwkwASbgSgIeo4h48eKFjGYeJ04c0+uDCfCZM2e0fYkS2RdpXjvADQsY9Z4rgrCpYFQYpbwhRgInjZhBk0fNpEIihR+CUeElzOiL74rmID7D8N/HSCUEXnB+6NxYjpjofa0x4lC/TItAT4eOspkoFw/sixnbz4Qby3A7gMkplBvwG5+6Ygw2hwvRm7W/tsININ6IjCMQcIocxX80Wm40/NObzRt2Wawi0Je11JMWBQ0rP3ZrZnd2BsOhHr8amCWB/gLwPUHciJoiDsTaJRtlis8j+45rHXgo7X5p/bu8n1OJmAnuFFhnTP1ntgxqimCwtRqbuxOgDUj1qdJ0IqYDgioik4PeemPYb3+LoHibXd5kfRDJTn3aBEgP6vIT2qgQz7NNK7dJKwj9CCoOQYyayiKbxjeCqydLaL1fnWGK+7SBULQN6TFSKrCVu5+1OkPqfnf2dw2uQ9mEixICMcJaEnExkA4aE+KjlKv6jXwnQOaawATvPPOnLJbF0K7gcMlzFXe4icIqC7GnjKIfEFFKCWe5G8/h7HpYeM44y4CPZwJMgAkEB4GAvxLBcVaTc3h7e8vUnPHixaOUKVNSrFixKEaMGFI58ezZM7p8+bLMnoFD0ZlAGU8QBMhDWkr4LSP1H4LPHdh5WGbMOLjnqMyagE4m0uNBKWEM6GjrGt6JH3JbgujrSlHQuE09qt+ydoDid0VKPXsEAenMBDnPlcC/XglGVGF6ic6AtWNV2aDMzUzLg1KPO47RB0V8rPMFNp7r0Wd2SZIltghmaSznyPoF4WeNlIuOyvci77y9aSIdrTs0lsd3EpkDMEEJB+UOsnfgfsa9h0wlbX5p6dZLw3Ps+5bf0V99/pHfIShGrAkyR0Bg7fTHhL6mo432ftetncPadn1qR1hdBLfg89m5aZ8IRrmFjojMP8oCDe2AuToC6iKdJ0bcw6p4wv3qLFsEWZw2Zo5MZ71w+nKqKCwHrUlI3e/O/q7heGS2wYTOLLJlrBMxHrCMNMzzpyyVE9xz8D5QutJXpB840PNA2u2rF2/ITXDJMIvhpC8f2HJg7xM43pXcfR4/Mf3N8dG9U6g02c5yD+za7Xmf4OdMYBR5PxNgAkzA9QQ8RhGhLg3pOTHZkty5c5M1ywlbx7lzHzoVxUQgKkwwN0SqsrXiJeTe7QfS7HDN4o0i08JGSpk2uchkUU8EsyxttTlxE8SRKS+vXrwuRlTeikj25qPpSA2mJGtOcz/5w/uPqSI258eFX7WZnDx8WtusV0RgY+q0KWXHDYG0rly4JjM5aIWDsBBP5x5yTvjagqUnit4N5agImmcm8JHHiydEX96srCPb8BlkyZHRkUNkWbOAmg5XEkYPgLkzUuhBwdSp8a/yKo2j7cZLV9/J18LqBRly8P0PipQXqTBniBS43uKZgVSe+k62vj7lFpUidXJTJYTvs+d04cxl/SEuW9ZbhiBIZI0GlV1Wt62KwBUWX7ACUtl5VHm4zkD5gKCwKhOI2hfW50G7XyNrWF4Kt7qQEHQ2EQtl1IDx8tmI30hrEpL3u6t+15A9CZmQGv9Unw7uFmm9xe//PhHHCRYB505dlNPYoZOpeKkvqNNvbQLEkZg/eYnEAzcHZ9Kt2vs+gZO5kjviQOC5qhd8p1WwW1hB6JUwruKuzmfv+wQ/ZxQxnjMBJsAEgp+Axygi4sePTylSpKCHDx/S27dvTUkkTpyYsmfPLtN5mhbwkI2IDQHz7wYiMv7hfUdpzaKNIqXnAZnS7vb1u7RHRJa3pYhIIaLDnzl2Xo7Mnjl+3qq/OtJjKkH9CICnF3SEkRnAHkG7Du89RohwrgQ/0Hh5giAVaVGROlAv5UQnat8Ov8B1k0fOpEHjfrMwFdeXhVIFox+2zJL1wa2sKUb0dYbUMuJCpM+cVoxWXZfm8ojWb7R0WTbHn3vBL/O7rKnVv69EmFiCRgAjk+ggmIl+u0pjaVYO25RSDt+Ry+euUuYgKIdQD0yX6zavSWP/mKz5gmO7URIkji874xfOXhZKi4cBRhpnj18QoLNurCOo65myZ9Du912b98r0oNnzZDGtDukzb1y5RZnFMc4KRjH1riaIV/NtzTJUqXZ50itHnD2PJx/vsvtVWGUpcZfCStVva/6tsIKA5dFjYVljK+BqSN7vrv5dQxpkpN3F9Mj7MW0QcU3wu3r31n35G4/4NHhf0Mdjwm/KySN+rqilK32tPW9ssbW2z973CRzvSu7IkFK6UkkLa8C92/7TPvdi3xS2aLKrudv7PsHPGYuPgVeYABNgAsFKIGjDeG5oYty4calgwYJUoUIFKl26NBUvXpwKFSokp6+//poqVqxIRYsW9XglhB4NXkAKFy9AfUf9Sgu2TqPWXZtqEaL15YzLJcQon5Le7QfKmBNQEhzed4xgmq8EHQQlMNdfMW+teMHzkabmcNtoU6+rQ52Tfl2H0v4dh6QVBiw5BnQbpo2ywjrBaPoMdxMV1A9mpAimd1q8QL1+9Vq61NwSQboQTLNTk1+pZY0OdE0EKrMlSJuVIUs6WeTEodPUsVF36YaA68aEUV9PEPg7N2lbX2tKL5GGEQoZdMLwojll9CxaLj4LSOy4sWSQMa1wOF+A3zM6V/oJKeKUeBv2qbR1ar+z8xbV2lGHhr+IGANbZUcAQRkRdBUmyf26DNWqL1yioLZstgBFlJLBIlgsRu0vivS0CMaHCZZM9gpG9uOKIJC2JEt2PysYWEyM6v+vTF8JJcj9Ow9oZL9xIvjmCluHO7UP1h4de/0o60Ck+67Ne8pI/jg3Pk98LxHQ7V+RhaTuN01p8sgZTp1PfzCCARcSijw8Qxdumy6eoc2CXQmBYKL6+xXL4ACBpYZxH/zjXSWuul9hEaWCZO4XzyrEMcIz9tqlG/J+xTUEh8CSyJ7R/ZC83139u6bnisGDBq3q0Oz1E2nY5P7SZdMsjsK8SX6xITAAYOZyqa8zsGV73ydQjyu5Q5HyR48R8hmF5+GerQfE+kitufVb1NaWseBq7o68T3jCc8YCBq8wASbABMIJAY+xiNDzjhkzJmEKS4JRdLxQ1BOmqYjUb0u+Lvel7ODDDBovuvNEoDpMkKw5M9G/C0fI5TTpU8nglBhdQbnRA8fT34PGS/MFZeJdomxR2r15vyxv6x9S++GFu6foVBsFIzUtOzU2bpbrXfu2o986DJIvsycPn6EOQnmAlyf1om56kJWNUNy0+bkF9RBtwCgFRoUwKRk8rk8Aqw+1L7jn+IyKlSwsFRDIvtCr7YAATUCQSsQZ0Ae3DFAonG2AgqthhVZWr7pr814W+3Lky0pj5gyz2ObsCkyDlXkwOgFIa6u/X7PlzkxlqpS0eZqyYv88kTIXwWmheIASTy8jpg3SlHT67WbLMLWvLQJVTv17ttluua2ZiEOzR1g9ISaMSqGpgsWiAGJHpBdKPHQu3SF5C+ciBOKbOW6+bMP4YdMIkzsFndZFQvmAzCAhKWMGT6SNIkCmmWCEF5Ne/pzYjwoVz6/f5NSyK+5XNKB5h0ZahiX9bwr24fMdOX0wFt0uVetVlOmm8dy0JiF9v7vyd83sGqHMLiiCWWOCIlRvKQhLu/07/SwNi4rfmHSZ0phVYfc2e98nUKEruSPDzubVO+RkbGy1+hVNrchcyd3e9wlPec4YGfE6E2ACTCA8EPAYi4jwABvXiBcQWykfFYc/J/UXvqX1KGPW9BaRp43pwdr3aCVToaFTAkGHCkoIdH7hy/3roM5SMYB9Rj92fV2tujSlGsLk3zg6AxPrsfP+kqbZqMMoMJGeuHiUCLpXm1QcAn2nDuXTZ04j88anTh94gFG4hoyZ8yd9UaKA6IDEszidvr0WO1ywomejX7ZWNT7HgWN7U6suTURKtYAxPJCSbNSMIfStCEhmTbzESDOUNhB7zulX0rP+69utX7bWSnWfWttv3B4xQkTjJrmuvxfsOa+qBAHikqfyT5UKhZe6X+GzDDeJoaIjGViWG/i7j1swgjr0bC3vb+M9oL9Oi7Z+/p6q9qg5vqt6hRXuC9xjSvA9wzNB3ymBrzmKIGvNX1MGymj9qryeiTq/mqOMxbIuvoU6Tt9+VWeTNvVpzNw/pduFrmlqt/z+IxNI7SbVtW3OLrhCCaG/FnV9jrRLz8qe48zK67c50gZX3a9oNzI2jJv/F5WpXFIGPtS3Q79szzVaK4NnmhL9NattmOM+r9mwqn5TgOdfSN/vrv5ds7hYwwqCUCIOhJL5U5dqzyRbKX1VeXvm9r5POMMd7VCfOa5p2JQBAeIj4bmK38zOIiaGmbiau73vE654zphdD29jAkyACTAB2wS8hGmt6LqGP/Hx8csGgdgUQZVbn64H9VCXH4dRFZjZwjUAZuNpRHowjAg4KogcjbgUcK9AGjJ7lCbqHNLs/q63bAfykScWsTKSiU6fPpaFKhuW5jDvR674q5euC0ueGJQxW3oLf9+wdK1h5Vpgin5fpOp8JLKeQPkGs/WUaVJoyjRPvU64YyAQ6s2rtyiqUJzgOxo7Tqxgby6eD3C1unPjLsUS50d8DSjfwlvgyOACH1rvV2f5eML9Hpy/a3B3avRtaxnQMrdIzzt61h/OIgzS8a7kfufmXeFSeplSiCxbGTCwolO62GpccHK31Y7A9qXyShtYEd7PBJgAE2ACVgiwIiKMKCKsfL68mQkwASbABJgAEwgFBMYMmUhLZ6+WLUXwZ7j/sXg2AVZEePbnw61jAkzAswl4ZIwIz0bGrWMCTIAJMAEmwASYgGsJ5CmUixD7KVKkSAGyVLn2TFwbE2ACTIAJMIGQJxBuLSJcgd6TXDNccT1cBxNgAkyACTABJsAEmIB9BNgiwj5OXIoJMAEmYEbAP7KU2V7exgSYABNgAkyACTABJsAEmAATYAJMgAkwARcSYEWEC2FyVUyACTABJsAEmAATYAJMgAkwASbABJiAbQLsmmGbD+9lAkyACTABJsAEmAATYAJMgAkwASbABFxIgC0iXAiTq2ICTIAJMAEmwASYABNgAkyACTABJsAEbBMIt4oIHx8fwsTCBJgAE2ACTIAJMAEmwASYABNgAkyACQQfgXCriAg+xHwmJsAEmAATYAJMgAkwASbABJgAE2ACTEARYEWEIsFzJsAEmAATYAJMgAkwASbABJgAE2ACTMDtBFgR4XbEfAImwASYABNgAkyACTABJsAEmAATYAJMQBGIpBY8ef727Vt69uyZbKKXlxclTJjQk5vLbWMCTIAJeASBW5+ue0Q7uBFMIDwQSOWVNjxcJl8jE2ACTIAJMAGXEAgVioijR4/SgwcPtAuuXLkyRYjAxhwaEF5gAkyACTABJsAEmAATYAJMgAkwASYQSgh4fG/+9u3bFkqIUMKVm8kEmAATYAJMgAkwASbABJgAE2ACTIAJmBDwaIuId+/e0alTp0yazZuYABNgAkzAUwh8+vSJXr14JZsTLUa0UGWx9ubNW/rw7r1se+QokQkTCxNgAkxAT+D1mzf0/vNzIop4RkSJEkW/m5eZABNgAk4TUM+ZSJEiUrRo0ZyuLzRU4NEWEadPnybEh4gbNy7Fjh07NPB0WRtz5i1I2XLlo+49f3NZnVwRE3CWwOEjR6ngF8XlVLXGdxbVTZ46Xdv3W9/+Fvt4hajVT+00PqvXrLNAUrjYV9q+27fvWOxz18rsCQupTO7qcrp7675Tpzl+8BRVKVJfThtXbnOqLuPBPdr0o6qibkxb1+602F39ywbavnu3/d33LAqZrNy4eot6tRtAtb5qTBULfKe1fdhvf5uUDripfL5aktvQnqMC7gzlW65fuUkXz16R05UL12xeDfaj7OXzV22WC007Tx45o91TP9TsaNH0BVOXavtG9B1rsY9XQpaAO56vV65cpZ/adqRiJUpRnvxfUIEvvpRTz96/23WxYfk97vKVK3Tm7Dk5nT9/wSaP8xcuynLnzp23WS607XTHPRfaGHhKe8PKd61lq5/kM+bbKjU8Ba3b2+GxFhEPHz6kmzdvSgC5c+emEydOuB2GJ53g/fv3JAYZ6YOYhwdZtnwlnTt/XmgAo1OXTu2D9ZK9xb02eco0ec7y5cpSwQL5g/X8oelkUAz6Pn8um+zr62vR9FevXmv7Xr54abHPbCUkP3Oz9jiyLShtf/78hcbnzds3Fqd7+tQvGC82vgum7/zHjx/p00fxkBGCZWcEFhGa6Je1jUFfePn8Fb147nc/vRXWC3rxfep3L2Ibnpn2yMP7j+inOl3o9SvLzwDH2tt0PJfl8/nDB3tOGeJlHj/0oflTlsp2fFWuGOUukMNqm7o260U+j55o+/+ZPZRy5s+uresXWtXupN1D6w4voqjRoup3h8rld2/faffbc1//+wsX8/r1G23fq5evQ+X1hdVGu/r5ev/+A6pZ53t69crP0kvPzeJ5p99hWA5t73GOvAs1btqSHj56rF3x/DkzqED+fNq6fqF6rTriN8bvN+LEkQNhZqTX1fecnhkv/7+9q4CP4ujir1CguHsCwaVIW7Roi1txd6e4FCgUSrHi7u5QLGhxKO5QSrEWd/d+lY+Wft/7z2U2c3d7yVmSSzLv99vbubGdfTs7O/OfJ65xILK9a47uzpiDGAFHOaNOvE8CEZgUS+DB39+fkiZNGnU4ru/ElAM7d+2hPXv3Ufz48cIfiHjylBYuXibalSZ1ag1EmD4h70dG5DP39G4ic9s9vffIXn7lgkADhChRriiVrVKa0mdMK24rcdJEkf32TNv/7MkLWrtko0hLmSZ5iECEbQXL56yhETMH2Ubr/5oDUZoDc3lzQoIQ5cuVoWpVK1NAxozinpMmSRIl7/2JB3OhWXPm0ZyZ06IkX/RNaQ5oDoQdB3wSiLh8+TL9/vvvFCtWLMqVy3wnJuxY4hs1L1u8gN6+/ZdSp0rpGw3SrdAc0ByIUhyoVKsc5Svwvrin1Gmjzzhz/deb4p5jxoxB/Ub0pHjx47r8XCcuGimkSJKnTOZy2chW4NiBU0L1IkuOTJGt6bq9mgNuc+BXnoeCYsaMSWNGDudNkvgu1xWd5nH79h8kqF7kzJnDZT7pApoDnnIgOr1rnvLK18r7HBDx+vVrunbtmuBTjhw5KE6cyC/q6c5DL1SwgDvFdBnNAc0BzQGnOJAqTQrCEd3o0YMn4paz5szsFgiBwvkKWgCc6MK7FXPX0Nfj+kaX29X3qTlA9+8/EFzIlSuHWyAECke3edysufNp0vgxuvdoDoQ7B6LbuxbuDA7DC/oUEAG9O6hkQDUjUaJEFBAQEIa3Hv5VP2N9unUbNgpxv25dOlk14MDBQ3TJxJBPzhzZqXSpklZ51T9bt+1g2wqXGbCJTZ07dqAff/yJ9h04SCdOnmJDn/+lnAzmNG7UgPK8b68T/PDhI1qxcrWorgKLHr4XNy5t/n6rKAsd9vxsm+OT0iUdXv/ly5e0bMUqUb5kiWKUP19etWkivHvPD9y+K7yrEIM6dmhnpJ88dZoOHjpi/L985YoI/8V2BiZMmmrEy0DDBnUpXVqL+LSM8+Q8dfpM+jvIAvbjx4+NqvbuO0AvXr4y/iOQMaM/1akVbDhm1eq1dI8nKe+88w7zvL1D69kQ65w5e56oKyBjBqpdq4YIe8p3UUnQz507d2nr9h2i71y9eo2SJElMuXLmpLJlPqGiRQqrWSM87M1njrFi2/addOans8K2yPPnLyhbtqz0fu5c1KhBfUqQwHr36jfW9YaoLShRooTUplUL8fxsmXLr9m0KXGcRYU+fLi01qF9XZPFm222vGV7//2CvFhu/22J6uRoNq1C8BPFM09TIiz/9Qvt3HqZLP18m6NLnZYkK2BzwZdq77SCpRhel/YOnT57T/MlLrZqeLXcWKlW+mFUc/pw4eNrUIGPm7AFUpFRBu/y2EScP/0g/n7og+lyT9vXE2LN51TY6ffQnevLwGSVJlpiy5c5MdZpVp7R+aWyL008nztHOjT/Qw3uPCO1G/06WMinlzJudin1amNAOW1o8fQXbzbDYsHj2OFiX++i+k/T6pbV9l/QZ0hIkZGwpO/Pj8sVrtG/HYWrV9T75ZUxnm8Xhf3gj+fHYWTrJvLt/5yE9Ydsc78Z6lwKyZqDM2TJSiXIfE65rSzA6umXtDhFdvEwR2rBii2hDzjzZqF7LmpSKpXeWzPhO8CRh4gRUsUZZKl/9U9tqxH+ME/u2H6KLZ3+ha7/coJcvXlOmbBkoW64sVL1BZaf6vGnFYRjpyTcdzYLV9aNHj9OBQ4fo9u279OjxI4r1bizKmjUL5ciejaBmkDFDBrs7gJHcVWsCRXy5sp/yt30lXbhwkfLmeZ9a83iZNk0amjZzFh0/flIYEK9VszrVrF7Nrh5EuDo+m1YSzpGS7/Ky0v7B48dP7OYk+M5UrGD/vrg7j5PXxJwI3xrMLTp2aEtv2HPcdzxHO8LP8+GjR5SM1ZRx7RbNmpC/v58sZpxfs92m5fzcfj53XgAp8DyXInly8vNLT6VKlaCSxYvZgSqezIXkhfO8n4vOX7hE23fspJvdurAKi33/knnNzjdv3qK9+/bT2Z/PifvEHMwvXTrxTUf/q1K5ot33Orr3V8lHT/uMp3PIHTt3izXDhYsXWYI7FRUqVJA+YzWmc+cv0IWLl4QHLYwfMWME+0aAauvlK1d57hyL2rdtLW/FOGNDesmy78T/YkWL0Ecf2dse8fRdg02JqdNnibHqww/y06eflBLv3spVa+j6jZv8jf6b/NKnpypVKlLVypWEZJTRQA54Msb9l8fo7/g6P539mS5fvkKZM2cSoGW9OrXUS1iF5boDeczefavMkeyPTwERN2/epBcvXggWwkAlBuPITgBVjhw9RqvXrKPdP+wVBtXwkbclAAAbN9svEqpXq+IQCEAd23jgx0DwHkuOoDP3/KKvYRQI6fg4bN6ylaZOGs+gQilEGXT33j2CXh/oxcsXtH37LnrFA4Ck8+cv0vLvVlGnz9tR966d7Z7HY9YnnDJthsgOIMQMiPh+63bCBx6P0haIkNeW18P5LfPLLL54saJeBSJmzJwjrqVeG+FjJ06KQ40vXKiAFRBxgz+aCxYtEVly5sxOlStWULMbYTwXeS8ALCR5yndZz7r1G2notyPpjz+sjWmdOHmaB/Hl1LplC/qiZzd6913feM0xwZL8kPeAs6vP/MmTJ9S3/0A6fOSYWg1dYSAGfQ0D9uSJ48SETWZImDAB3bl7l7ZwfwTF4A6Jj6NK+PD06NVXfDwRP3PaJCPZW203KoyAwMvnL2nuREu/tb18qQrFQ12Ufb9mB00eNlOojMnyv164ygvF76lGo6oyyufO+3kRfWBXMOgpG4jFOewfqFS2amlTIGLPlv20a/M+NasIl6tW2jkg4tAZw0ZD5drlaXCPkcLbhKzwzs17BG8NZ09eoLnrJstoAcoP6TmaDu4+asSpgSN7T9DCactpzzkLeKamLZ21WpRX4xAGqIFDpfyF8pgCEY0ZNBncY5QwSLlyfiD1HtpVLRZiuGml9qQCIDLzFQY2QEtnraI+w7tRae57Kt27fd94LurzuXn1Np09dZ5SpEoueCXLnDn+MyVMnJCKlrYGhJ4xYDOq/yQB9si8OKOevdsOEfrzNxO+ZAAoi5oc4WFPvulofLmKVQmLZ1vCogA0feZsGvntUKpUobxVFoCwcnyWZ2TAuIrxLxUvMuA1SdKx48cpSeJEdvMKd8ZnWWdEniXfbdsAXqr8QDoWWmZAhLvzOHnNQ4cPG/aqsODo0r2X8DYh02/wAgnPABtNm9Zbj13Hee7SqUsPwyCyLHP12nVGUk/S2nUbCBtgXTp1kEni7MlcSFbUoV1b6trjCzH3nDtvAX07bLBMCvW8msGvgd8MtcuHez142DJub9z8PY0bPUJsUMqM0b2/Sj540mc8mUNiIT9w0BDeXN0kmyLO23bsojVr11GGDP5ibYLIpo0bUlze6JSENYlct5gBEU+fPjPWFihjBkR4+q7B8PDM2XNFkxryhtMff/xBPXt/KZsozgBLfmCALB63vVzZMkaaJ2McDMJ27NxdgIWyQryjAGewcfvXf/+S0VZnzF/nzFtIs+fOo48ZnGlQr45oE0wYRHbyjRUKc/Gvv/5i/bJfBD/9/PwoWbLIrXuLj9fadetpTeB6snXHZ6ZrWKDAh1aTxs1btrnUt7AL0rtvf4oXLx6V+aS0MPB5iAfxa9dvEHamxoybKAANR+DOqtWWnZAP8uejIoULEnbtd/CLgecyY9ZcSpkyJTVhyQpvUd48eQgvvyToFwLxjxHjHapft46MNs5p06Yxwt4INGpY37Cy//TZMx4A9opq8+XNQ7lz5bS6BAAelerXrW0AEYH8cXcERGCQBwGEqVvbHOl0l+8LFy+lkaPHifrBMwyS2O3CAL595y4G9F7S/IWL2Tp1HAEiIeNbtvA/4OvB9D9Ryvkf7EjgQ+IpeeOZw3ZM7fqNCRbNQRl4VwgAG3aIfzxzlo4dP0G379yllq3b085tm/k9CDYqNnzIILHDd/PWbRo3cQoVZuQ+D9+bpHETJhkgRKsWTVmqJBgw9Ebb5XUi6hyfeYSFtqSrv1ynW9csnolknKPziUM/knRX+A73txJlilLGLP706/krdPLwGQpcaj0ZkfUAADjKi2VXqU33ZpQidXJXi5nmL1ziI1KNUEKyAGMipBBK8q68Srk/sH73ZVoe9jIhrb4jDsCEuzR5+CwBQsSOE4slAwIodfpU9Oj+Y7p8wbJAV+sFXyUIkYQNaZapWorSpEtNr1/9Rrev36XjbL8B92JG1RtWZq9LFokISIEc2mMB7nLmzSYkAtQy/pnsd1eRnuP9rFSw2Id06sgZglvWFp0bUcrUKdSiDsP/BEmcpU2fmnLly07p2CAo9O1vXrnF93SMIKEDkGXY1AEEyQczQl/7pGJx+vn0RQFqwM0sDkhSoP8BiGGhB3brut8KiEDdHev3oqdBkiDp/NOIdEj9XDjzCwG8gJRG7zYDacnW2Vb9w6wdERHn7jcdgCrIzy+92BzIyAuCmDHfpSs8qd61ew/b3/qDuvXoLYBWdYxT7xHflEoMsJ86/aMANe7cvcdA7j2WpPCnrFmyCMPS4DvcEKsbHO6Oz1iUYMLvKvXq3pVSp07lajHT/CVLFCfVCOWGjZuFdElynotCikQl7KCakafzOLXOwcO+FSAENnmyZ8vGu7PphCQmpFRsCd6suvXsbYAQxT4uIiQisQlxl58bniMWVf/737+2RcmTuZCsLE+e3FSi+Md06PBR2rBpM3Xt3JHSpEktk0M8Q+oDhLZCvD5zpgCC0fDnvDm2e/cPot9hfti8VTvaEGiRwBUFlJ/w7q/KpX0q6EqfcWcOqd7siFFjDRAiYYIEVLp0SV5/xBV9ANLdZhLeanlPw9581wAEbPreshGclvttDpZEh8QD7sEW1HV3jJP3C7AQEksgzF/LfPoJS6+/oV0MQhw/cUpmszvLdSPGXUhI4UiWLCnVqlGd10y1KVOmALsykSXCZ4CI8+fPi4UhBqPcuXNHFv5ZtRM7uwcOHGLph0Dat/+A1Y47XlDsQEA830yXqWH9erwwr2fU9/3WbWKCZUQ4EUjClpyXLpwnJCOQHROZxs1aEiQb8KKh85tJLciqgcAPH/qNIflQr+4patO+o5joYlHbsEE9K/EqWc6dM1Q5cEgCQgggAqjp0MFfy+gwOw8a2N+oG76wJRBRlUUAW7VsbqSZBQBMwMUndiYO84cXA1UqG6Oi9+7fp+MnT4riQC/T8yTCEbnKd6j4QJwShA/A3FnTrRBj7Hg0btaKbt2+Q/MWLBLSHJiUAsG2Ra8dtUmNh5tOCUSg7/6wc6tIjh07tpqNJTCa8aD4mYiDBIIteeOZY2dKghA1qlejYQwuQBpIEvrp6LEThGTPhMlTaNjgQTJJiKRCUqJ+o6aiT/dg6aGN61aL+P2szrRoyTKRF2BUny96GuUQ8Ebbp02eYFhhT5HSejG3b892+peN04LSsUpIWBAW4wPGfGFUvWTmSlo0bYXxP6TA8tmrjeR+3/awEoWH/YB5k5Ya6Wrg13NXaAcv/F2lui1qGEDEkMn9SbpKhDqCSit3zzckNFKnM1+QVKlbgXBIOn7wFD1+8JT8M6Wnnt90ktEhnj+rX4lwSMLCFxMCdwhqHu8z4DFwbG9S2wxQ6KCN5AakOSQN4t37DwrnlX/FGSoWu7/fZxUn/3QbELzzeeXSdQOI+LRySarXIljVTOZ3dIYqCYAIAAurF66nzv2CVewclUE8QB4ADIVLFjC+KTL/2ZPnqVfrAULSYvWi9Q6BiLYMSDVqW1cANY3KtxXFkyZPQgs3z+CFS0wa3mccgxAHrCQkkGn5nNUGCAG1jV6DOwv1RXn9VXwfs8ctpN9e/y7Uc5AuKV/BPLR8h2WnDKLDKoFvFapbFqUJEsZTk8Ik7M43vUL5slSOQdRSJUvY8R076c1btRWg2vyFS6zAVvUGevICv0O7NrzwvU+flqssklIkT0bbvt8gFoy9+vQTIMQp/gaq5O74fI7nf3CJ7Cq1at7UACI8HV8xmcchCaLf9x88FBN8Z+ck3pjHBV//MLvDzE/jx46i9KymIMmye7pb/hVnSHJi8wEECc5F8+eIsPpzjFVqsCliS57MhdS6Pm/fVixCofKK7/CA/n3VZIdhACxdO38uNqaw4aVSn149qEPHrkIyAvM0bDSYqZyGd3+VbfS0z8l6vHU+cNC5PuPuHFK2E+XXBFrcQWOzZ+mi+QyWZRXJUA9q1aaDUM2Q+cPi7M13DUAdxvpBA/pR0yaNjOZizgzVqDRpgjdC3R3jUOnRY8eF+hHCUGdatGAuJUqYEH8J70/TFq3FRpqIsPmBRDlAX2xwAjTB+w6VZLxrOAoV/Ijqs5QE1pmRzbZiDJt7jbC/0AkC4cHv37+fdu7caXXIdOTZvXu3SIN3DV8gfKyhovBp2UrUoVNXsVsAUAKDPj4Ko1gM8siBH2jUiGFiF9aRVIKn99KuTSsDhEBdWKA1axz8UgEZd0TI269vb6uJC3aMK1eqKIqgLMAVTRYOQCwKhOe8fqP9BAq7KXKhUq9O8OTGUjr41x2+YyCE/2rQ1wyo2Iqt4WPeskUzkY7d0vXcFlAM1tHLxRatITnhyqHqowEoBKiBwxZ8AWIr0xInTiyu6c0fSK4AxQdlYTDoWwbNVBAC8S15YirbhQEb44lKuP+v+lkmSJCcGDR4GEHM7suvvhbPCx+FyRPGhok6S3KeyEv+2LYb9k9kGp6TL9G1X28YC73cH+SwAiHQTiwUsettRinYVSTsF7h6vBf3PaM6SC6k9UstDuwOqgR7ATINu2KRgRIlSUij5wyxAiHQbuzwN/28gdUtPGW7CqC48d4zNZCJumo3tYB/VgW9+AdqGwBOQFBneMV2FpwhLO5hP8Pse4c6PyhkAVVgb0SVNlHrzsF2IUAAbBIkjC/CUKUACAHKkiNAnH979R9xxg+kP6Sr0gyZ/aj3kC5WIATy1G1enZKnSoYgbd+wh8cJi+QI/qNu2adkHsSD4GFFpkEdJKzJnW86wFfYlTLjO77phQsVEs0+G2SPy+weAMaCsACWE+XcbJsA4z8I3w/Qq1evxBk/nozP2AF35Zsk88blDR5JkXV8le23PcPe0/w5M61ACOTJmiUzq8u2t8qu7to6silWtEghlna1PHurwl76g74F4AQEWyMSGAmteiyuIEFhC0KgHPpbR1YNlvTjmZ9k0Ooc3v1VXtzX+pyzfcbdOaS879VrAw1JPMy5JAiBdIwXA4LmWDJ/ZDh37dTRCoRAm9H/mjVtbNjY82SMQ31Ll3+Hk6BePboZYysiIEEEO38hEeavAPgO799D06dMpLIsTQEpQ9DJUz9Sny8HUInS5Wj4iNFCAiqkunwpzfJV8aUWcVtgyCMkkul/B4l0hZQ3LNMg6t6e0drDR45YTaSwo1mbDTlBZEZdxIVlW1A3dkFsKSAgoxGlGmU0IoMCEKsy28WGhAAW1aBrLFWBjq+JqFKlCjTs21FCFBJSBtg9Uknu7iRmHVpbsU41nzt8//ncOaMKiI1ipyOYLNu0aRRx1YuXLolk6JJBAiCyElyDvXljEeOEsTWoYgRT8PY0JiWQcMHODPSbMXir1Igle6BPC3sSUIHCLguQZdCoEUNDlF5R64kuYagASCpTuZQMGmcseKAyoOrzy8RajasRDk3BHKjbvIbT3joAtDx++FRIhKxbuplqN/tMAIrBtYVPqEn7+vRVp6H037/eCDWc1t2aunTh31iVBPfx8tkrBvws76qcQEHS4k+2cxPfxFhq/CDwARcDCPCf335nNaxgSQS5EEV5gBkAo2CU8u83FgASKhwX2MCqJHlt/M/Fhj6hroLr37x6i+BFxdfIk2867gVAwQPe1X/2/LnBdwniYHyEmobZdx+SdpLix49H2OVMGLRzh3gpJgy9atjBAnjqyfiMXUh1J1JeOzqfW/FmguRzaHxIp6iuYu4B446qFEVo5b2Vjl1dzImh0gsJw57du7hUNTYOIPH44OFDUQcKP39h+TYj/NLGkDjiQOHdXy1X9b1fZ/uMu3NIecdQ85FUrYpFYkr+xxmbY1gHSc8zapovhtF/mjdrHGrTPBnjUPn16zfENSBFUuzjonbXq1SxPA0YNMRuA802IwASrCtwQDplE9tQCeSNNzwX2GnvfwAAABhFSURBVPlbsmyFOKBqD6kduTlnW4+v/PcZICIL6x1CT8YRXb9+3UjPnj27+PAlTWotpuuobFjFY9A8eOiwUT0W/UO/GShQZ7PdCCNjGAQgfWGmk5eYvY9I+uPPP2XQ7uzv52cXhwjs0krChEaThQPY0a7+WVVhzBNGlYDUf/ThByIRKhvYbQfV+KyaQ68aSHeH7zCWKQmqM6ER2hcVCJa1JUGf2BmdYty7LRCBOoYP+UbYi4D6yhO2qwGCJXLVIJGI1D9CLF6yAbvBZmTm6cEsn44jgvcHZ6k020c4f8YCJM4YM59WzFtL+dl1KGxZ5GW7FZAYCI9vDQxBZsmRSXgOgReLhq1rh2rcFOo0m9gzSOCSjYaahKP7lvYkbNNVCZg4bO8GFCeu5Yxw7CAJGWAb8LgEsOLOrXtIEgQPIThCozs37vkcEOHuNx3gACyyYyEo1dgc3b+txJjMF+e9YIkkeNMCxVXipOgv+A7vUFgwe3N8lu2IzmfYZnKWsOCAVAnUW6G6Ua5CVVZxzkUFC34kvJ/B2HdYSCnatg/SDfD0Bk9u8N4BiR7YbwqN4C0Du/TwnOFIOgp1/P2PZSPCtj7dXy0ccbbPeDqHfPDggbggPGE4UjvO4O8faYCIrFkzWxnTtO1f8r+nY5wEZiABayb5CtV0eLnBe+wsQSoH6uQ4zrP9mLHjJwkVEJSHV47nDEJrIMJJbmbMmDHEnPdZ/UECFdnYcI/ZQwyxgjBIxAQQOzBy4EQnHTz0W2EHAgtQbxlRcqbpcWLHMcQmHeUP2ogyTUZnNqMkiZMY0TBgqSmYA/VYnxReRUBAIyUQodphgP2HkMhVvsMNpdwVwEfAGXsCsHYeFUiCO7gXGOmJz4ZZQyN1IaPmxeQIwMNQlmoBYdJvK+6q5o/O4aePLUANeACDl2aUNLn3VXHMrhMV4tKwcUpnqVaTavQnG15cs3iDsGfw8vkrdp96RByoAyox8DxhazvC2fpdyde4XV0a1nuskErYuHKrUMlxVB4gRI8W/Ul6yEA+7MQnS5GUYrGRTtCLpy+FwUqEIV1oRlJqAmkx2AU0SI2LGaSigXgp7XD/djBgDgOfcRmcCI0koBFavvBMd+ebDhCiSfPWhtFdtBe7ZylTJDf0hmG1HZIQoH/eWiRHxB/l590gcV9ESbd7Kq/VdDn/8eb4rDQl2gbhOtBZgpHyWTOm0Kgx44WEH1RG4T4RBwjvTJ3aNWjgV/3s1BmdvYaz+SAVAftLkKJZ/t1KO2lR23qg797ny6+EaqRMwwYa1Awwx/6HxwapViyN78p88qz2x+jcX53pM96YQ8pNSQCQjtZijua28pn50jm9k++aJ2MczAvAbh9IleCx5QP45goQgfKoGx4KIQ0FUE+ld3id4OvkMxIRvs4os/bBWN8eNty3NnC9cI2E3YfrvAM7bsJk9js9hYp//DHB13Y5Fp+x1Qk3qy8i4/7k3SQzevN3sJSKFIM1y+coThrgc5QemePhXUP6z966bTt9/dWXYkW7bfsOcVuwJA3ruyGRq3yH0VNMKjBxh9HMLZssBoNCuoZMQ5kv2e3lvyEhUjKzcoaBUyzaI5pUEeLBgwbYuZ9zpX3QqZ3OLlwlgSXfDBlOUyaNk1H6HMQBeBqQBDFsM/rrT3N1OhhblF4fzMo5iuvQu6XT3hkc1eGr8So/Q2sjJnmwG1GL7UBsDdwpbHX8ePSssYB/cO8R9W3/DS3YOI38MqYLrTqP0iGdsWDqMrp36wHbYNjEaiLVHdYHV58ShMidPwd1+KIlwfOIKr0x9usptG3dbod1uJugGpHsPqijnXtQd+uNDOXmzl9ogBDYJe/bu6cwrKzy/auB34j5irfvx5PxGa4zd+123ahtXzYqbCYJ6u17i4j6HIG+jtqC+ciShXOFh4wtPB85ffqMkExAfnz74UIekkewVRaWVJHFywOmZKCbt27TYpbKadG8qcPLwQPBwEFDBQgBAKEXuxuHwVBVegNqGqXLVHRYh7sJnvRXd68Z1uWc6TOezCFl+6VE1L8mXlhkHrlxLP+7cgaQFp6UgAEVZ8iTPgOwUG5cv/3XHHhHGyBh5gyBR4dYIh+20Pbs3WeoLaMsgDxIbMN4pbTn40ydEZVHAxEech56eN27dqYubGxnP7sYgscMWOBHJ4EPZBxAvypXrkC1a9SwMyzo4eW9Vvwp75KY0bMgsXWkqXqI+K+i0I7sdTx+8gRZoyzhRT9/YbjYYdrOLsjwMZWGJFUL3I4Y4CrfAULA7gikb2A4xxWCGO6m77e6UkTkhb6nLwARmQICjLbDTam7hHezZ+++Qm8adQRktEyatrPb02VsTEjrKltzNjXbKZD0/Gmwvq6Mw9lR/OUL7IebvRq4So3a1omyQISrvEB+2E+AxwYc/2X/5wB34PXk7s37YnGxmVUgOva1tlPjznVCKgNQpFGbujRu0FRhEBLAiCPav9OispgwUXwaNXuwYWhSzf+A3WeGBamuSCF1EZ1o+45d4nYxEZ03Z4aVMTTJB/ijDwvyZHyGS0q4AnWV2rPof1QFIlzlhcxfsMBHhAMEG0mw+r+M1SRAMKw9oP+XpnZBRAYv/GAO1K5ta+Eq/Cnrr69d63izBJ5JML8AdWJDfVDlsKU7QWqutvGe/vekv3p67Ygs78kcUrYbkrgAmjDXhc0+CUzIdJwdzW2RhjaA/uY5KSTZVKAU8TAg7ovkSZ+BZFqKFCmElz28F44otLkt7EBA8gF2IaRasawrsnrO0ECEfIIenjH4lvm0tDggGRG4fgO7t1lP9+7dFwYNgUbjwKIHblggKeFLBLdeZnSS3dpISst6TSrBtZikJ0/sgQyg8DdvBev1y7xmZylCDz1fLBTBz/AieW1c7z+M0LtC1apUoZGjxwsUc926DSTFV99jfVqkhUbu8D0T2yIBEAGr1L9evuI04onBHzqEZr7EQ2onrhcWJPnu7DNXDa/C2KR0Kepq2yZPmS4sDKNcw/p1qXev7vRZzbpsIOsRjRwzjj5gH/F53s8dYrWutj3Eynw8EQYTJZ07fZHKVLE3WHn2lMUvtswnzyibnb0cuErwEqHJnAOwlVCu2ifCk0T3Zv1EJgASIVHsIHUI5PnjPxax/JDyO0qrwK4wF09fQU/Ymwdcef6PDUSakfT2kc4/rSkI8dvr/9Dli9fMinocp0qG/HTiHNVsXNXjOiNLBVKk1z+DnykIARFe6BGHBXkyPmNuAelCVykeG9LU5JgD2bJmIbjnhN0IGGWG5N+t27cdft/kdw01ujoXUltRs3o1mjptphAxn8euBaX6jpoHYVXdNy9LkJrRkaPHzKI9jvOkv3p88QiuwN05pGw2bBxIOvPTz+xStZD8K85QEfvl1ytWceqfpEFrB6wRMI+Fqq1K6K++SJ72GfAN0ri3GcQB2GLrKeZXtq0ClSYzOsSb2pC0P3/hklUyDF/CMQI8+WXKFGCVFln+RBogonTp0pGFp8I2BPTNoSt3+MgxgqubPT/sE5ZQgSLu2vODzwERePGxKIYLJkkYJAJ5cQ2CSFHxYh/LJHHGCxAr1rvCO8HhI0ftkE14JJDeCKwKmvyRIAdACFimfZ8NLYUXpVV8BF+weclDawNsDVRhDxqwEQFf3pJg/RZpoZE7fMdHfu8+yy7z+ImTafaMqXaIsrwu0FMMfmgLENnA1StkUoSfXX3muVj0NHv2rHT58lXauWu30IWD2ogZQRcPFoohrqrSARZlmz13nojCJO0rdoUEtakJ40ZTU9athiX5bj1708bA1SHuGrnadrUNkS2c58PchJ3t317/ztIN+6ltz+ZWHg4eP3hCxxwYBKzRqArh0OQeB+BpIlWaFKaF1XgVaDDLnCpNMJjkCQDwLo/39VvVoumj5rERU8e7VslSJhXqI5cvXWPQ4qmddMuyWasM9RKz9noSlzVXZsqULSPduHKLJUeOENyD5spnriIH98bwCpONy0QFwsT2999v0cWLl8Qiz1ZaYPqsOYZ9CG/fryfjc5NGDQiHJvc48PLlS4JRUUcqwKo0q9nutbyqJ3MhWQfO8NDVpnUL+nbkmBANFqoLMYiXw9ilSli0LV66XI3yWtiT/uq1RkRQRe7OIWVz4fFhbdDaYA2vb2yBCNj9CEnFQLWfd/DwYWHUXdaNNYCU4JFxvnL2tM98+kkpYUAS97iaJYVs3XUuY5sqjghAogQhYNPs46JFBPgAA+t43yIzhd+2c2TmkptthyhryRLFaOqk8XRg707q80UPypjB3642IGDQg1MPINcgGJVS4xF2ZOnaUsL93y7dexEWatDtgnGgrj2+MHzRVixfjiDNoRLEqaSBRgAsMNQJlA8fRUiDDBrsvC6i6ocYhougM3rx0i8CycdiHeJfYUXQ3ZKWf/fu3882PibxjvlpIdaIa4PnIRGMVtpS3do1baMc/neV75UrVaSiQf7A97E6EIyTwWsHBn6LFMptVsHYQo2btaJqNeowD8Nm59HhDTmZ4Oozh5TMoAH9Re14P5q1bEsLeLflHhuyhXgfdvvO/HRWSDWUZF/K49lWi0rYfZFGsbDzM3H8GGPiVuCjD6lzp89FdvT9fgO+VovahV1tu10F4RwB/mBRqx5wqSjpiU3aqxevZRJBOqFGI8uuMsCIPm2+Fou8f/55KxZ5vVoN4DHprZE/qgXgMlLlG8JyfP6DDUnapnmTF62rd6auTfrSjo0/0IO7j8TO4uuXv7GxysM0pOdog9WFShQwwmYBPENpJPPY/pM0d8Ji+vnUBXZbeZtuXbsj7sGsnFlctXoVKTEbgQyJsueySMFAYmLS0JkEyQTYF3l0/zFNHDKDjW9uDKm4R2n47nYb0EHUgefUq9VXtHrRenFtvAeQxrjILj1nsheS+p+0oHkTF3t0PV8qLAF87EDjewzJMUx6MUbie7xw0dIwa66n43OYNSycKo7IeRxEtUuUKitcisNSPkTm8b5dYEBq6vRZtGHTZsGFtGlSU9YsjkE3T+dCKquxQ4vNqpBI3SiAag6Mf8OYKtQ1oLZRp0HjMAPOonN/9XQOWZndw/oHedTDhuOUaTP4Of3OGzl/i7k7AKiQSK4bkAdeHiD1gmcOCd827T638sBjVk9EvWue9hmArbDRAZo6faYAXGA8FBu24OGq1YFmt2vEpUyRXBh/3b19Cy2aP4fwHCM7CIGbizQSEcaTiKQBuGSB/lvb1i0N3XR5K8NHjKYNGy0fChknz0CJcai0YO5MKlG8mBrlcRiSDfDG0LZ9J7u6UrAVV9jBMKNWLZrzZMei1gGXYTgk4SOUOVOAABRknKMzDKvMnjtfGPvE4r97zz5WWZcumifcolpFevFPj26deZE6QCww5sxbSDgkFS5UgJYtXiD/2p0xqOLjjnaD4PK0UMGQFwayEnf5PnTIIOrUpbu45ilWn2nYpAVLRcByvKzZ98/uPHNI7HTr0ommz5glPlyjxk4gHKERABpY8oYYIKj/l31IBRMQ1+nzdiy+epwlg04Lw2nYiXFkG8OdtuMaEUUP7z2mJhXbObw8wASVcn+Qg6YtH2tE1W1egw7tOSYWrr+c58lCza5GGgJx3ovNtgveWMVFlT/TRsyhnZv2mt7Okb0nCIdKY+YMoYLFP1SjPApf4EUzDhAkEt4KvdrgKnPmzUZlq5UOjnAQatW1KY3sN0GMEd+xMUkckvIXykMTF42Qf0M8QzWkDhuqXDBlmcN8Lbs2ocN7j4s+IV1oxmSvF2/f/ivKQMImU/YAAYY4rMSDBNxPyy6NacmMlaINs8YuJBxRnfCdhvQlJvXSxTFU8jD+gWA7AlJlJ08Fq1x6kyfujs/ebENE1RXR8zgszpayjSMcoNixY1kZsMP8oH+/Pg6lJyXfPJkLyTpwfo/VU1uyocqJk6ep0VZhGNyuX6+2UFvGptuQYSNo6PARoo1SnaN8uTJuGTK1upCDP9G5v3oyh8SCvF/f3tS9Vx+xMTptxmyawdJWGGsgVQqS0tJmrAffAZoCKIPUS8s2FuBY5oW7WUiTO6KIfNc86TOJePztwwZ20cfRv4cOHykOeZ/gGQz8Azy2pTatWlLP7l0N+xq26ZH5v5aICOenBykCgBIq4aV2hfCyS5JlpWszGS/PMdS8Qe7PZJp6xsKsTq0adp0cnh/Wsjg/PhhmVIbtYgwa0M/OdWimTAE0b9Z0yhJULkaM4Dab1YN7gtoAPE9ggYiPmErqPavx3grX+KwarV21nD6rWlm4jZJ8Rf2htR15KlYoh5Og2jVrhPqxl3nd5TukUzYErqL2bVsZCKstCAE+dunUQYBB8nq+dHb3meOeVn23VKhdYHJlS0CcK7NqTIsWwda6YU0eUiMgTGwaN6xvW0y4oRo/ZpR4/kgczQDHjRs37fIhwt22m1YWDpFYBLpCMW3e10RJEtLU5WOoaKmCAvCSdb3DKltFShWgIZMskiqIx460L5O8N/UdD6m9jsZWR2XM8qtxrvCnYs2ylNYvtXEpWL2X7/l7ceMINYnRDHyout1GZptA+c8+oRkrx1HZqqUJz1Nth1VY6Stqu9XqYHchnuIWE++hanAMdhrGzB1KAVkzGMUAQiBfhsx+NG7+cMqZN1hdQr2+Otar15d5rOKCBgDb6+OizTs2pGkrxgi1i6BsRlsQgJQIPIHUYZDNl0j2S/U+1faF9E3Hd2HhvFkEtTNJACFw//gWL1owh/LlDVZnk+8C8qrfOfXaMqzmlS7hUC/UNlVyZ3xWy/tKWPLZ2bFTPjdn26/2c1lGfQYqv2W6o3PevHmo2MdFrMaBN2/+NrLDNtS82TOd8jTl7FxI8gcXcdTWJo0bWqmomr2nA9l4ZuuWzY25J8Y3LNKgTgo7UKNHDDe+OSrPVF7JPoq2yLDapqjcX1U+qPcMXoREns4hMY9aMHeWMV/CMwMIARXgnt27UE22WxASzZg2SdgsU/PEZfWiRg3qGZKvSDN7/7zzrr1j2q/U9jgKezLGQSpiysTxAhRW60+cOBFNnjCWCha0GJpV3y/kw8au2v/VspE9/A6LKvJrH/3oxQuL9fekSa2NpEQnTmAnHeL7ILhDxOIM4v0Qb4fubN6879uBJo74AzQeth2w4/whG/tLlSpYJ9lRmagU36R5K7HLhEnZ3t3bSdW1tL1Pb/IddeMVvv/gAV29eo1gJCh16tRCbE7Vv7RtQ1T5j/6K+4Z/54SJEgq+Q/0JrnU1Ed393y2vs+F3Nnb4C+vdv2ExzDwf5mK+J/D6NXSF1hyA+scjdtX57MkLIRUBNYv0GdKJxbR1Tt/6B/HwOzfu8XGX4jBwAvAhIvoLDOLeZBWU+7cfUALur7CvkT5DWorFu8beJL93MnqzOrfrwo4aQFQcAPXz58tD2I0Lb9Ljc/hyHCqs1/mZP378mFUVfxPzML/06Q3V0/BtjWtXg0ovvHzA8Hk23kQBcCbBR9dqcj93dO2vnswhMdZcZVtkkG6ATRpICGPMGTBoCK0J8phy9vQxAshgS/g+3GK17l+vXKFUbN8mHwNqADIiE7nbZ8Dz6zdusM2zK7xZmIkl1bIxMGIN6kYmPnjSVg1EaCBC9B8JRHjSmaJrWdiyqFnHYmirZIniNJ/dpoVEZkBESPl1muaAuxwICyDC3bbocpoDUZ0DvgJERHU+6/vTHNAc8G0OOANE+PYd6NaFFwciF/TkRa5EZ0kIL7Ix2lcFEGLgoMEGH5o1aWiEdUBzQHNAc0BzQHNAc0BzQHNAc0BzQHNAc8CeA9EWiLBnhY7RHHCeA5279aTz5y+wR41HRqEihQtS6VIljf86oDmgOaA5oDmgOaA5oDmgOaA5oDmgOaA5YM8B37YqZt9eHaM54BMcuMM2CVQQohAbmJk9Y2q01fHyiYeiG6E5oDmgOaA5oDmgOaA5oDmgOaA5ECk4oCUiIsVjCptGZgoIoCHfDBSVF2F3Opqc50CXTp8LN6zx48ejD/PnJ39/P6cLa747zSqdUXNAc0BzQHNAc0BzQHNAcyAScaBq5YqUKSAjxWADjLHjxIlELddNDW8ORFtjleHNaH09zQHNAc0BzQHNAc0BzQHNAc0BzQHNAc0BzQHNAXa5q5mgOaA5oDmgOaA5oDmgOaA5oDmgOaA5oDmgOaA5oDkQXhx49/Xr1+F1LZ+6DnwWg5IkSeJT7dKN0RzQHNAc0BzQHNAc0BzQHNAc0BzQHNAc0ByIyhzQEhFR+enqe9Mc0BzQHNAc0BzQHNAc0BzQHNAc0BzQHNAc8DEOaCDCxx6Ibo7mgOaA5oDmgOaA5oDmgOaA5oDmgOaA5oDmQFTmwP8B9W8PW4Ob3WYAAAAASUVORK5CYII=;imageBorder=#808080;" vertex="1" parent="1">
          <mxGeometry x="-814" y="9" width="782.92" height="111" as="geometry" />
        </mxCell>
        <mxCell id="BnfIDBQJlwFSEMfQzMYi-6" value="" style="shape=image;verticalLabelPosition=bottom;labelBackgroundColor=default;verticalAlign=top;aspect=fixed;imageAspect=0;image=data:image/png,iVBORw0KGgoAAAANSUhEUgAAAxIAAAFoCAYAAADD4s1FAAAMS2lDQ1BJQ0MgUHJvZmlsZQAASImVVwdck0cbv3dkQggQiICMsJcgIiOAjBBW2BtBVEISIIwYE4KKGylWsG4RwVHRKkNxVUCKC7VqpSjuXRyoKLVYi1v5LgTQ0m/8vsvv7v7533P/e57nvXccAPQuvlSai2oCkCfJl8UG+7MmJ6ewSD2AAHThjwpYfIFcyomODgewDPd/L6+vAUTZX3ZQav1z/L8WLaFILgAAiYY4XSgX5EH8IwB4q0AqyweAKIW8+ax8qRKvg1hHBh2EuEaJM1W4VYnTVfjioE18LBfiRwCQ1fl8WSYAGn2QZxUIMqEOHUYLnCRCsQRiP4h98vJmCCFeBLENtIFr0pX67PSvdDL/ppk+osnnZ45gVSyDhRwglktz+XP+z3T875KXqxhewxpW9SxZSKwyZpi3RzkzwpRYHeK3kvTIKIi1AUBxsXDQXomZWYqQBJU9aiOQc2HOABPiSfLcON4QHyvkB4RBbAhxhiQ3MnzIpihDHKS0gflDK8T5vHiI9SCuEckD44ZsjstmxA6vey1DxuUM8U/5skEflPqfFTkJHJU+pp0l4g3pY46FWfFJEFMhDigQJ0ZCrAFxpDwnLmzIJrUwixs5bCNTxCpjsYBYJpIE+6v0sfIMWVDskH1dnnw4dux4lpgXOYQv5WfFh6hyhT0S8Af9h7FgfSIJJ2FYRySfHD4ci1AUEKiKHSeLJAlxKh7Xk+b7x6rm4nbS3Oghe9xflBus5M0gjpcXxA3PLciHm1Olj5dI86PjVX7ildn80GiVP/g+EA64IACwgALWdDADZANxR29TL/ynGgkCfCADmUAEHIaY4RlJgyMS2MaBQvA7RCIgH5nnPzgqAgWQ/zSKVXLiEU7VOoCMoTGlSg54DHEeCAO58L9iUEky4kEieAQZ8T884sMqgDHkwqoc//f8MPuF4UAmfIhRDK/Iog9bEgOJAcQQYhDRFjfAfXAvPBy2frA642zcYziOL/aEx4ROwgPCVUIX4eZ0cZFslJcRoAvqBw3lJ/3r/OBWUNMV98e9oTpUxpm4AXDAXeA6HNwXruwKWe6Q38qssEZp/y2Cr67QkB3FiYJSxlD8KDajZ2rYabiOqChz/XV+VL6mj+SbOzIyen3uV9kXwj5stCX2LXYQO4OdwM5hrVgTYGHHsGasHTuixCM77tHgjhteLXbQnxyoM3rPfLmyykzKneqdepw+qsbyRbPzlTcjd4Z0jkycmZXP4sA3hojFkwgcx7GcnZxdAVC+f1SPt1cxg+8VhNn+hVvyGwDexwYGBn76woUeA2C/O3wkHP7C2bDhq0UNgLOHBQpZgYrDlQ0BPjno8O7TB8bAHNjAeJyBG/ACfiAQhIIoEA+SwTTofRbc5zIwC8wDi0EJKAOrwHpQCbaC7aAG7AEHQBNoBSfAz+A8uAiugttw93SD56APvAYfEAQhITSEgegjJoglYo84I2zEBwlEwpFYJBlJQzIRCaJA5iFLkDJkDVKJbENqkf3IYeQEcg7pRG4i95Ee5E/kPYqh6qgOaoRaoeNRNspBw9B4dCqaic5EC9FidAVagVaju9FG9AR6Hr2KdqHP0X4MYGoYEzPFHDA2xsWisBQsA5NhC7BSrByrxhqwFnidL2NdWC/2DifiDJyFO8AdHIIn4AJ8Jr4AX45X4jV4I34Kv4zfx/vwzwQawZBgT/Ak8AiTCZmEWYQSQjlhJ+EQ4TS8l7oJr4lEIpNoTXSH92IyMZs4l7icuJm4l3ic2El8SOwnkUj6JHuSNymKxCflk0pIG0m7ScdIl0jdpLdkNbIJ2ZkcRE4hS8hF5HJyHfko+RL5CfkDRZNiSfGkRFGElDmUlZQdlBbKBUo35QNVi2pN9abGU7Opi6kV1Abqaeod6is1NTUzNQ+1GDWx2iK1CrV9amfV7qu9U9dWt1PnqqeqK9RXqO9SP65+U/0VjUazovnRUmj5tBW0WtpJ2j3aWw2GhqMGT0OosVCjSqNR45LGCzqFbknn0KfRC+nl9IP0C/ReTYqmlSZXk6+5QLNK87Dmdc1+LYbWBK0orTyt5Vp1Wue0nmqTtK20A7WF2sXa27VPaj9kYAxzBpchYCxh7GCcZnTrEHWsdXg62TplOnt0OnT6dLV1XXQTdWfrVuke0e1iYkwrJo+Zy1zJPMC8xnw/xmgMZ4xozLIxDWMujXmjN1bPT0+kV6q3V++q3nt9ln6gfo7+av0m/bsGuIGdQYzBLIMtBqcNesfqjPUaKxhbOvbA2FuGqKGdYazhXMPthu2G/UbGRsFGUqONRieNeo2Zxn7G2cbrjI8a95gwTHxMxCbrTI6ZPGPpsjisXFYF6xSrz9TQNMRUYbrNtMP0g5m1WYJZkdles7vmVHO2eYb5OvM28z4LE4sIi3kW9Ra3LCmWbMssyw2WZyzfWFlbJVkttWqyemqtZ82zLrSut75jQ7PxtZlpU21zxZZoy7bNsd1se9EOtXO1y7Krsrtgj9q72YvtN9t3jiOM8xgnGVc97rqDugPHocCh3uG+I9Mx3LHIscnxxXiL8SnjV48/M/6zk6tTrtMOp9sTtCeETiia0DLhT2c7Z4FzlfOVibSJQRMXTmye+NLF3kXkssXlhivDNcJ1qWub6yc3dzeZW4Nbj7uFe5r7JvfrbB12NHs5+6wHwcPfY6FHq8c7TzfPfM8Dnn94OXjleNV5PZ1kPUk0acekh95m3nzvbd5dPiyfNJ/vfbp8TX35vtW+D/zM/YR+O/2ecGw52ZzdnBf+Tv4y/0P+b7ie3Pnc4wFYQHBAaUBHoHZgQmBl4L0gs6DMoPqgvmDX4LnBx0MIIWEhq0Ou84x4Al4try/UPXR+6Kkw9bC4sMqwB+F24bLwlgg0IjRibcSdSMtISWRTFIjiRa2NuhttHT0z+qcYYkx0TFXM49gJsfNiz8Qx4qbH1cW9jvePXxl/O8EmQZHQlkhPTE2sTXyTFJC0Jqlr8vjJ8yefTzZIFic3p5BSElN2pvRPCZyyfkp3qmtqSeq1qdZTZ089N81gWu60I9Pp0/nTD6YR0pLS6tI+8qP41fz+dF76pvQ+AVewQfBc6CdcJ+wReYvWiJ5keGesyXia6Z25NrMnyzerPKtXzBVXil9mh2RvzX6TE5WzK2cgNyl3bx45Ly3vsERbkiM5NcN4xuwZnVJ7aYm0a6bnzPUz+2Rhsp1yRD5V3pyvAz/02xU2im8U9wt8CqoK3s5KnHVwttZsyez2OXZzls15UhhU+MNcfK5gbts803mL592fz5m/bQGyIH1B20LzhcULuxcFL6pZTF2cs/jXIqeiNUV/LUla0lJsVLyo+OE3wd/Ul2iUyEquL/VauvVb/Fvxtx3LJi7buOxzqbD0lzKnsvKyj8sFy3/5bsJ3Fd8NrMhY0bHSbeWWVcRVklXXVvuurlmjtaZwzcO1EWsb17HWla77a/309efKXcq3bqBuUGzoqgivaN5osXHVxo+VWZVXq/yr9m4y3LRs05vNws2XtvhtadhqtLVs6/vvxd/f2Ba8rbHaqrp8O3F7wfbHOxJ3nPmB/UPtToOdZTs/7ZLs6qqJrTlV615bW2dYt7IerVfU9+xO3X1xT8Ce5gaHhm17mXvL9oF9in3P9qftv3Yg7EDbQfbBhh8tf9x0iHGotBFpnNPY15TV1NWc3Nx5OPRwW4tXy6GfHH/a1WraWnVE98jKo9SjxUcHjhUe6z8uPd57IvPEw7bpbbdPTj555VTMqY7TYafP/hz088kznDPHznqfbT3nee7wL+xfms67nW9sd20/9Kvrr4c63DoaL7hfaL7ocbGlc1Ln0Uu+l05cDrj88xXelfNXI692Xku4duN66vWuG8IbT2/m3nx5q+DWh9uL7hDulN7VvFt+z/Be9W+2v+3tcus6cj/gfvuDuAe3HwoePn8kf/Sxu/gx7XH5E5MntU+dn7b2BPVcfDblWfdz6fMPvSW/a/2+6YXNix//8PujvW9yX/dL2cuBP5e/0n+16y+Xv9r6o/vvvc57/eFN6Vv9tzXv2O/OvE96/+TDrI+kjxWfbD+1fA77fGcgb2BAypfxBz8FMKA82mQA8OcuAGjJADDguZE6RXU+HCyI6kw7iMB/wqoz5GBxA6ABftPH9MKvm+sA7NsBgBXUp6cCEE0DIN4DoBMnjtThs9zguVNZiPBs8H3Mp/S8dPBviupM+pXfo3ugVHUBo/t/ASVngw4IJLDzAAAAlmVYSWZNTQAqAAAACAAFARIAAwAAAAEAAQAAARoABQAAAAEAAABKARsABQAAAAEAAABSASgAAwAAAAEAAgAAh2kABAAAAAEAAABaAAAAAAAAAJAAAAABAAAAkAAAAAEAA5KGAAcAAAASAAAAhKACAAQAAAABAAADEqADAAQAAAABAAABaAAAAABBU0NJSQAAAFNjcmVlbnNob3SCvSU/AAAACXBIWXMAABYlAAAWJQFJUiTwAAAC22lUWHRYTUw6Y29tLmFkb2JlLnhtcAAAAAAAPHg6eG1wbWV0YSB4bWxuczp4PSJhZG9iZTpuczptZXRhLyIgeDp4bXB0az0iWE1QIENvcmUgNi4wLjAiPgogICA8cmRmOlJERiB4bWxuczpyZGY9Imh0dHA6Ly93d3cudzMub3JnLzE5OTkvMDIvMjItcmRmLXN5bnRheC1ucyMiPgogICAgICA8cmRmOkRlc2NyaXB0aW9uIHJkZjphYm91dD0iIgogICAgICAgICAgICB4bWxuczpleGlmPSJodHRwOi8vbnMuYWRvYmUuY29tL2V4aWYvMS4wLyIKICAgICAgICAgICAgeG1sbnM6dGlmZj0iaHR0cDovL25zLmFkb2JlLmNvbS90aWZmLzEuMC8iPgogICAgICAgICA8ZXhpZjpVc2VyQ29tbWVudD5TY3JlZW5zaG90PC9leGlmOlVzZXJDb21tZW50PgogICAgICAgICA8ZXhpZjpQaXhlbFhEaW1lbnNpb24+Nzg2PC9leGlmOlBpeGVsWERpbWVuc2lvbj4KICAgICAgICAgPGV4aWY6UGl4ZWxZRGltZW5zaW9uPjM2MDwvZXhpZjpQaXhlbFlEaW1lbnNpb24+CiAgICAgICAgIDx0aWZmOlJlc29sdXRpb25Vbml0PjI8L3RpZmY6UmVzb2x1dGlvblVuaXQ+CiAgICAgICAgIDx0aWZmOlhSZXNvbHV0aW9uPjE0NC8xPC90aWZmOlhSZXNvbHV0aW9uPgogICAgICAgICA8dGlmZjpZUmVzb2x1dGlvbj4xNDQvMTwvdGlmZjpZUmVzb2x1dGlvbj4KICAgICAgICAgPHRpZmY6T3JpZW50YXRpb24+MTwvdGlmZjpPcmllbnRhdGlvbj4KICAgICAgPC9yZGY6RGVzY3JpcHRpb24+CiAgIDwvcmRmOlJERj4KPC94OnhtcG1ldGE+CuSktW0AAEAASURBVHgB7J0HnBPFF8cfR++99w4KiDRp0kGqIE06AlJE+FMExIYFKYo0wUKVjoA0EZSOIF2lI733LnC0A/y/3xyzt9lLcsldLpfk3uNz7GZ3dnb2u5vsvHll4vzHQgEoN2/eVFeVOnXqALw6uSQhIASEgBAQAkJACAgBIRCzBIJi9vRydiEgBISAEBACQkAICAEhIAT8kYAoEv5416TNQkAICAEhIASEgBAQAkIghgmIIhHDN0BOLwSEgBAQAkJACAgBISAE/JFAvJhu9O3btwlhGnHixKHkyZOrZUy3Sc4vBISAEBACQkAICAEhIASEgHMCMaJIQHE4f/48HTt2jO7cuWO0sGbNmpQoUSLjs6wIASEgBISAEBACQkAICAEh4JsEvKpIPH36lM6cOUPHjx+ne/fu+SYRaZUQEAJCQAgIASEgBISAEBACERLwqiJx9OhROnLkiNGouHHjKrcmKBiBKrC+BAeHKk2JEyciXLMvyYOHD+lxyGOKFy+uWIN86cZIW4SAEBACQkAICAEh4OMEYiTYOl68eJQvXz6qUaMGpUmTxscRRa15B/85RCXKlFd/s+fOi1pl0XB0p87dVNtq128UDbVLlUJACAgBISAEhIAQEAKBSsCrFonEiRNTwYIFKXfu3BQ/fvxAZWpzXeb5/szrNoVi8IMxHaGxEoONkVMLASEgBISAEBACQkAI+A0BryoSOXLk8Bsw0lAhIASEgBAQAkJACAgBISAEHBOIEdcmx82RPUJACAgBISAEhIAQEAJCQAj4AwFRJPzhLkkbhYAQEAJCQAgIASEgBISAjxHwqmuTj127x5tz/foNWrRkKd2/f5/+16O73fpPnjxFy5avoB07/1TZnIoWeZ5erliBataoZre83njr1i1asHAxHTp0mI4dP0GINylcqCCVLPEi1a9XRxezu3zImZnmzltAu/fs5axZRylPntxUulRJatbkNbvlsfHM2bP008Ilan+pUiWoErfRkaxdv4H27Nmndrd4vSllSJ+eevZ+hxq92oCqV6vCGaHkMXPETrYLASEgBISAEBACQsBfCcThAOD/YrLxW7dupWvXrqkmeHJCups3b6o6U6dOHa2Xh9S1W7Zuo/kLFtGadevp8ePHVKN6Vfp23Bh13v0HDlLjZi3VOjruq9euo1u3/g3XpvZtW9PAd/tR3KDwRqK/d+2mPu8MoIuXLoc7DhuqV61CXwwbTClSpAi3/yqzfevtXrR33/5w+14qU4qCeT6P/fsPUpbMmWjD2pVGGSguFavUoEePQihf3jy0YtliY595BY9PjVfq0dlz55Vys2XjWqU4FH2xjCqWLm0aavxaQ2rWtDHllBgZMzpZFwJCQAgIASEgBISAXxOQoeJI3r4rV67ST4sWKyvB+fMXbGpJmjSpzWf9ARYFSLGiRahc2TJ0metYuWqNsmBMnzmb0qVNS127dNLF1RLnad+xMz18+Eh9LlLkOSpTqhTdDb5L69ZtoGtsBYFFoM8779KUSd/ZHIsP3Xv0NpSIHNmzUTVWOh49eqQUmu07/gxXXm9IlSoVW0mq0/IVvykLCBQRtNsqf/71t1IisL1u7VqEa0f9SZIk5kkH76v2TZz8A02a8gO9VLo0NW/WhGrVrE4JEiSwViWfhYAQEAJCQAgIASEgBPyIgCgSbtysJ2x92LjxD7Y+LKQNv28kfNaCjnPtWjXV6DvchhxJw1fr0xdDB1PQM8tDi+ZNqcOb3ZQyMW3GLGrfvg0lSpjQOHzCpCmGEgGLxuBPBxnHXnyrK7Xv0JlOnT5DmzZvoV2799CLxV8wjt26bTvt2RvqclTk+cI0beokSpE8udrfrcub1KZ9R3ZhOmeUt640ZysCFAnIwkVL7CoSi5f8bBzWrEljtQ4lYcvGdfTbytW0cPESgrIBu9e2HTvVX6pUKem1hg2UUpE3Tx7jeFkRAkJACAgBISAEhIAQ8B8C4f1o/KftXmvp+QsX6Ovx31LV6rWpa/eeygIAJSJOHKIypUvS8CGfqY7zcFYQypQuxdt5hx2JHz8efTCwv6EIoEiJF4tTwwb1VOnrN27Qb7+tMo7ErNPzf1qoPkNR+eC9ATbHZs6UySYWY8asOcaxWJk5e67xuW/v/xlKBDZmypSR3mZFxJmUfakMZc+WVRWBQoFYC7M8ePCAfl0Z2t48uXNRiRLFjd1JkiRRStXsGT/Qmt+WU4/uXSlLlsxqP1y7fpg+i+rUf41atG5PS5YuI1yriBAQAkJACAgBISAEhID/EBBFwsm9evLkCXXq0p2q16pL47+dQJcuh8YooEOMjjE6yLOmT1UdZnScI5KXK1QguAxZpV7d2sam4ydOGusXL1w0rBE1q1djd6Hw54CbEAKvIQjkNsuJZ3WlTp2Kypcra96l1mu/UtNpIDQUIsQ2QG7fuUOr16xT6/q/lavXqIBxfNbl9D7zMju7VCH4fP3qX2nGD5MIVplEiRKpIoj/GPDeh1SxUnWCRUZECAgBISAEhIAQEAJCwD8IiCLh5D4hcHrTH5vp6dPQePRcuXKqjjA6xOgYo4Psjjgqn+3ZqD/qunjxolHlOVPsRY4c2Y3t5hW4EcG6ALHGalxgRQSSJXNmG0uG2sj/QQFBXIYzacKB0nHjxlVF4KZklkWLQ92akJUJGZoiEigmsHKMGD6Etm5aR4M+GGgcAkUFmaxEhIAQEAJCQAgIASEgBPyDgCgSTu4TOr5BQWFuSqdOnaZPPhuiAocvX77i5Ej7u9KksZ9BKm2aNMYBl6+E1astINiZ1kmHXx//7+3bBHcjyG2sP3MXSp4smdpm77+0nFXJmaTnVK5VKr+siiDm4uKlS2r9Ais823fsUOtVq1Ti9jmvx3wOxHIMHzGSRo8db95sKCw2G+WDEBACQkAICAEhIASEgE8S8Hqw9SXuiN7jlKNazOunTp2yyeaTO3duh/EG+vjoXGK0f+2qFTyfwmLO0LSEoDycYPehr0aNpVFjvqYK5crRa41epRo8B4Q5QNpRm+7fD+3kW/frzj+2JzN1+pMlDXNlesBzUziSBw9C98FygDZD4AYFJQjWlCdPnzg6VAV5O9z5bEfzpk1o7boNqi4EV3fv1oWW/vyLYalxNh+FrhsKCI5ZxMdDITML4kRe52xOdTjrk4gQEAJCQAgIASEgBISAfxDwuiIBZeHq1at26Rw9etRme86cOWN8lDprlizUq+fb1OPtt+j33zepjE2/b9ykMjYhUxL+MOJfp04tatywoU3Asc3F8Ifr169bN6nPV6+FbYcbkpYsfG4tV65e06vhlnpfZp4LQmeDgrtRunTpCOljkSLWkVwzndtRmUqVKlLGjBmUIrVo8VJ6q2tn0tmasP3llyvaPRQKEuIoUHbb9h2G4oHCyNwEdyikg8U8FSJCQAgIASEgBISAEBAC/kXA64qEo4xG9rC5U9be8Z7choniqlWtrP5gmUC8AOaFQFzCnbt31YR0mJQuV84cqqMNS4VVdv75l3WT+oz0qFp0ZiN8Nq9v59Sp9gQB1lAWIFmfZUXS5aCUYN8ZTg8L5Q1uSmY5fPiICqI2b7O3jmtHrMS3309S6WInTp6qUs6ibONGHEPxLJWtPhYZrT4a9KnK6BQcHGZ9wv6yZWQuCc1JlkJACAgBISAEhIAQ8GcCXlckXnrpJX/mpdqOUXi492Auhs1beFZrTtEK1x8EZ2NOB8xebU+RwL7NW7ZShfLlDAbodC94luIVWWMrVwqNR0ABBEIXKJCPjhw5RgcO/kN//707nMVjxuywlK/menE8Yhd279mrrCfzf1oULt3rrLk/ophLgjkivpswSc0HMXL01+oYtLdp40bhjn8cEqJcwfQOxHA0fu1VzuzURClaersshYAQEAJCQAgIASEgBPyXgARbR+HewY3o5YrladyYkbRx/Srq/05vyukgu5I+Ta8+/dVkdpiTAdaMvu8MoP0H/lG7q1WpYuPmA4tMj+7d9KFqDov1GzaqIGpYGEaNGUez58xT+1OmTEFtW7c0ymKldcvX1QzTWB/3zXc0a86PdOfOXbpx46aaF2Pe/IXY5ZJkzZolXApZzJnhKBMV4jMqViin2GzasJrZ9BElwiXSUkgICAEhIASEgBAQAv5BIM5/LP7RVPdaefPmTXVA6tT2MyW5V5vrpYETE8vptKr7Dxykxs1CO/iYO8EcWG2uFaP203mOhQL585k3swXgP+r29v8ICoQjQZD1kM8+VvNZWMvMnjuPPvt8qLIkWPdhgrynT54qi0UWjq/YsHaltYjNZ0w+B0VIC2botmd5wf6r165Reo7REBECQkAICAEhIASEgBAITAJikfDwfYUVQSsRqFrPwYD1fn17UetWrxM68GZ5rnAhWvDjrHBKBMqgvu+/+Zre6fM/YxI387GwgMyeETopnnm7XodV4uvRIyllihR6k1rCgjF21AgqVaqE+hz0bK4Im0KWD9WrVjGuBzNtY0I7RyJKhCMysl0ICAEhIASEgBAQAoFBQCwSMXAfYZVA7MK9e/epWLEiNoqHs+Y85XiK0xxnceToMU4Tm5QKFSzo8vwNsGycOHmS4y2OUh5Oq1ugQH63U+tu276T2nV4UzURM1nDCiIiBISAEBACQkAICAEhEDsJiCIRO+97pK76rR69VFA5DoYF5YViRSNVjxwkBISAEBACQkAICAEh4P8EbH1s/P96jCvwdmyEceIAXMGkgfMWhGamwuUVKfKcKBEBeJ/lkoSAEBACQkAICAEh4A6BgFUk3IEgZe0TgCvToE8H06VLl40gccR8vNP7f/YPkK1CQAgIASEgBISAEBACsYaAKBKx5la7f6F3796hU6dOGwcmSBCfvvpymM08GMZOWRECQkAICAEhIASEgBCIVQQCNkYiVt3FaLrYCxcv0u8b/+CgbOI5IHJR8eLFKFHChNF0NqlWCAgBISAEhIAQEAJCwJ8IiCLhT3dL2ioEhIAQEAJCQAgIASEgBHyEgMwj4SM3QpohBISAEBACQkAICAEhIAT8iUDAKhKY2VrPbu1PN0TaKgSEgBAQAkJACAgBISAE/IFAwCoS/gBf2igEhIAQEAJCQAgIASEgBPyVgCgS/nrnpN1CQAgIASEgBISAEBACQiAGCYgiEYPw5dRCQAgIASEgBISAEBACQsBfCXh9Hon//vuPbty4QXfv3iXMmPz06VNKmjSp+kuXLh2nGuVcoyIUcuWKUBACQkAICAEhIAR8hED8DBl8pCXSDCHgOwS8pkhAYTh06BCdP3/emCXZiiF58uT0/PPPU/r06a275LMQEAJCQAgIASEgBISAEBACPkTAa65NT548oePHj9soEbA+xIsXpsvcuXOHtm/fTtevX/chRNIUISAEhIAQEAJCQAgIASEgBKwEwnrx1j3R9DlBggSUJ08eypgxIyVLloyCgoIoODiY9u3bR1evXiW4Pv39999UrVo1ihs3bjS1QqrVBB4+fEghrOTFC4pLiRLJrNWaC5bnL14yfzTWM7ALXvz4Xv/qGOcP5JVHISGEv7j8u5A4UaKAulT8tgXfv6+uKQlfG377RIRAoBKQd0ug3lm5LiFgS8BrvSEoBcWKFaNs2bKFUxAQI1G6dGlav3493ecX7YMHD+j27duUOnVq29bKJ48T6DLgPfpzzz7KkjEDrZ4326X6i9eoQ7AwNahVg4a+N8ClY/yt0JVr16lWy7Z2mz1xxDCqULqU3X2xfePf+/bTWwM/UBiy8GDB4qkTDSRTf5xPE2aGPmN1qlWhT97pY+zTK+9+PoxW/b6JEiVMSH+t/EVvDojlzt17qEOf/upahgzsR41qv+Iz14V7hnsH+bhvL6pbvZrRtvINGtOTp0/U50VTJlDWTJmMfbIS2ATwTDx+/JiS86Bf4fz53LpYebe4hUsKCwG/JeA1RQKjbzlz5nQICooGrBSnTp1SZf79919RJBzS8twOjJJCni1cqvjxk8eqPJSJQJWgIAn6j8y9hTXhbvA9deidu8E2VTx48NDYd+/+A5t9+oN+Dv+j0OdSbw+Epf6u4Vr0dfrKdeGe6fv28FGITbP+ZZdTLY8fB+53Xl+jLEMJ7Dn4D7XtGarsv8qDRsPef9ctNPp5d+dZjw3vFrcgSmEh4AcEvKZIuMJC//CgrDl2wpVjpYwQ8CSBdGnS0IENq40qf1m9lt4dMtz4LCtCQAgIgUAmMGXOj+rykEixY8vXA/lS5dqEgBCIAgGfUiRu3rxpXEoa7siJ+CaBaWNGqrS9GdKl9c0GSquEgBAQAkIg0gROnD5D6zZvUcdXKvsS5c+dK9J1uXOgvFvcoSVlhYBvEPAZReLatWsqLgJYEISdJEkS3yAkrQhHoNQLxcJtkw1CQAgIASEQGASmzJ1nuN91bt3Saxcl7xavoZYTCQGPEfAJRQLBXHv37lUXhZSwL7zwgscuMLZUdOPmLVr820q6z4HqPTq0t7nsh48e0byff6G9B/6hIydOUJ6cOahksaLUpF4dm3KOPmzavoMOHz8RbncBzr5VqWyZcNuxYfaiJXSNJx5MyEGz3dq2tlsGG0+fO09LuN2Q8hzAXDqalJSzFy7Qqg0b6dip0/x3ioPFn1L2LJmpRNEi9Fqd2pQieTLVBk/9h4wl2/7eRZu27yScG8Hb8eLFpXy5clH+PLmpxssVKUfWLBGebseu3bR05Wo6f+kyXWVlO1mypJQ+bVoqWqgQVa1QjgpwXY7kDk/6OGfxz7T/0GG6cPkyhXD8Qto0qSlb5sz08kulVcB4Uh9X2HftP0Abt22nnbv30iN+jgvmy0stGjag5wsWcHTZavu5Cxfptw2/06Gjx9X9TpUiBRXKn5eqli9HL5V40eGxp86eo9+3bqO9/xyiS5xF7t9/b1MWDi7OnyeXOmedqlUinDRz94GDHDC+kfYePKQyUOG7VrNSRYfntO6IbNtRz+adf3LyhL0Uh/91adOKQh6HqO/+1j//pst8PalTpaLnCuSjtk0aUzZ+/qMqC5YtV89Wk7p1PFJfVNsjx4cnAJfh7fw7svCXFdS7cyfKmtl5sDyek1/WrFUV4ffxxSLPh6/02RZ/e7fI8+rwVsoOIRBpAjGuSOBHbteuXSoFLK4ib968JG5Nrt1PTPK39a9d9NMvy5UZGoGQ1SuWtzkYnfkeHwyiff8cNrYfZ7P16o1/0No/ttCDh4+M7Y5Wlq9ZR8s4RsAq9WtUc6hIHDh8RHWAcUyll8pw5yW/9XD1GT/sP8xboNajYzQKz9ecxUtp1ITJfK0PbdoA5WjNps00dsoPtGruTEJchKekdqv2dMXOfCgHjxxTp/h+xiz6/N1+VKtyJbunxL3t+8lgdZ/sFVi/eSuNnzqN9q1fZW83d7z3qPuuA2h1Idz7Hbv20KIVv7HC2Y7eat9W7/K55UpW/Pp9+jk95Xuo5cCRo7ScOzmjP/2YKpd7SW+2WUIxHTJ2PFkDundyB3vWwsX0RvNm3KHqGC4O6yfuaH381WibuvDhJCsX6KBDflm1loZ/MNCh4onnefCYr5Wiqg7g//BdmLN4CbVq1FBvcriMbNt1hX/s+JNmLFioPmKgoNegT+mfo6HPHDbiWpCJB4oZMjBFVc6ywobR60mz51LZEiWoaf26/BtUQdIjRxWsB47Hb//iX1fy+2EFnXuWyvrNVi0irHna/IWcqSk0qP7NVo5jI/zx3SLPa4S3XwoIAbcJxLgisX//frp0KTRff1oeaS1YsKDbFxHbDsDo9qJff6NFy39VI9Xm67eOMPf84GNDicAIPEZkkVln7R+bVWfTfKyjdYxKmTtzUCwikvo1qxuKxIq16+0qEujkr1i3XlWVNnUqKleyRETVur1/9MTJ3NGZbxyHcyCNIQIIj548RRipfcjKVEjIY6OMJ1YwEgzJxqN/xQoXYutDVpX2+OjJk0p5Cb53n/p8PJjGff4pVbMofzhu5k+LDCUiTaqUnI6zqkq7eYtHyE+cOUsbeeJGtNue4P72+fgzIwsPrrnMiy+ojjPmxvhr7z517U+fhnXQUc9qTru6fstWe1U63daLO+UZeW4NTwquDalgkyROTFXKl+WR9JTcmf+L4LuNrEIjv5+olFhYMM2CTvQX33yvNgXxvuovV2D/7tx0neOvYCW4yfyguCZMmIB6dnzDfKj6XmADLEelOFV17hzZKGP69HzMv7SWFU50xn5n60jHvv3pp0nf2RyLD3/s2EmfjByjtutz58mRg/azIgFFZAbfU2cSlbbbqxcKDZSIhAniKysY0rbCMnXg8FF7xSO1Tf/eQNfb+tff6g/Pa8NXarFSUYdyZc8eqXrloMgRwAAEnjUoD/guw/KqBc815nFyJsjQhYEpSP7cufg7Zl9Zx35/fLfI84o7JyIEPEsgRhWJI0eOGOlekydPruaSkEma7N9gvCDgYrSAXxC/b92ugp11ySSJE6mR7UZ1XuEOUFG9WbnWwEUD8jxbBKaM+lLlA8fnLm1aUvte77DbzUV8dCrNX61P+NOyYu06w39Wb7Muy7L7SDp2o7l24yb9un4DvdOtcziXEIyMXr56TR2KeQU8fe9PnT1L05+NziZLmoS+4JHkKqxImQUd009HjQk3t4m5TGTWa7ArS7UKFZQLkbWzi5Hxjr37KeVs2vwFdhUJjMZrGfXJR1S6uK273y2eZwWZpOwJ3KHQYYbAVWzyyC/CFUMZa7v2sQsU3KjclfbNmhiKBJ4/WHcg8ePHt6mqffMm3MGsqbbBRSsiSZUyBf0w+ivu0Id2RuEu1vZ/fdUIPywr+/jZLvZcYaMauPd988OM0Pr5fn//xVAbtwxYX9r9rw+dOX+BfuA5LRqzS5vZzQMd7e5cBs96+rS21qm+Xd6k7u99pDpp6JxvZ7c1q4vUhJlzjLYM4flVkDJTC0bsx0yaqj+GW0a17eEq5A1wqyte5Dka8dH7PE9MRqPIcXbvW73pD+MzVsZ+9rFyi8Q6vrdmWcPzy+D3B5KZ55sxS9e2rZRlCJYUPI947m7c+lcpa1DYSr1QVFkpYHlLGEEn1lyvrLtHAO5IC5fz4BJbGi9euWJzcCF2B2xUuxZhcCd1ypQ2+6wf5rL1VlvykKnJ+huhy8Nt0x/fLfK86jsoSyHgOQIxpkic5JHZw4cPqytBYHXZsmXDdTw8d5n+WxNGEPFywJ/udONqMBCLUdNGdWopJQIjt1aZw3EKWnqxbywmFdKCkda32rWh94eP0Js8uoRSULdaVTUKe+nKVYKvOywbZoGlQkv9GtX1qseW46ZON0z0GH22KhE4EeJFpo8d5bFz6orsTbam96FzX5otBNv/3q386NFJsypRlzkeAgIlET72VoHPf5smr1k3q8+wWGl52UEMS5kXi+sixjJThvROYy6MgpaVxKZnD2mbzZ1zc1GMBuoRQfN2R+voyGglAmUQb9P6tYbGM3uOLZlmRWLi7Dl0917oHBYf9Oppo0TgeCgH7Vjp+XzMOGXVgNLU/Y222KUErlKO3KVwXeiEaBenXRwHYVYkDh87bkzoVvz5wjZKBCqHS4nZxST0jGH/R7XtYTWFreEZmfjlsHDM8+bKSfgzSxq2CDoSq/JgLYeO6sAe3alfty60geNLlvy2SsW1YDQck13ib+jX3ygmTevX81oGIGs7A+0z5vHBoBKeq007dhrKHq4zNSvhUBww6SHujyuCeV7g+gfJnCED1WMrqCPx53eLPK+O7qpsFwKRIxAjisS5c+cILk0QdA6gRCRKlChyVxCgR+El0f29D2kLu3OY3YowA3VDHl1qxK4DEQVLwgUGgpdKuZLhA0xrValEg74aZXS2PY0SLzLtzgGlwaxI4PrgagLJmS0rFWX3H08LfNMh6FCZLSqePk9E9cFd4NLlK3T91i3DkoMJGCEhnGjgHs/mnoxndzcLXuRQwDA6iJc7lAarsmEub143d/yWcqcO1h7ziLS5rHm9FXfS8ecrUr1C+XBNyZk9m7HtqklhwkZYKLTAVQ5WFy1wo4OYXbDMsQO6nF4iAQSUOdwDHUd0k++fFgRhm0V/17CtDivQVsHILtzTJs6aa92lPnuy7foEUJrcUdz0cZFdQtlCEgH8wcKybPUa5aMPF8Lbd+7yc7xE/b3AVqQxbAGR9NGRJR3qhjjk6/F09foNo5K4cYOUKxKsD1XKlQ0XA2QUdLCycMWvhiXzjdebOrXS6ufdn98t8rw6eBBksxBwk4DXFQnEQ+zeHfqCh+sDlIiklk6Um9cQkMUfc0cbgZNacnFne1DfXuzrXtyhuVmX1UtYMyDoWNrrhCZm5S1t6tQ2lg59rCeWyKyDdp/izExw1Xn/f28b7YBpHC4QkHrVq3nidDZ1IOYBmY4gGNVOYHGzsSkcDR+gHCBT1kx2rbps6fBaTwdlwiqvsJIHKw4EPv+TZv+o3ESKP/+cUsiKFCro8DlARy1j+nTqvsIF6JWW7VSmHlg2kO2pfOmSlJJdCX1ZYHHDNVjF3G5kKDPLqbPnjY9d+r9nrDtaOcmub1bZy7P5gvUG9i83K/DWctZ7pr9rKIe4GHuCbFmOxBNtt9aNZySmBBaO9s2bqj8o9Eh2gO88BDMmQykTRSLydwduiGYlolu71myta0TOLEvOzoaBnWnsigbBwEvTenWdFVexNigQKO8WeV6d3m7ZKQScEvCqInGV/Tj/+usvHpX9T42WQIlIwT9aIuEJYAQTAZu6M4PO+GB2yXgNvq7se20eWQ1/NKkRQB2Max3tNpfHyK3ZZcq8zxPrsEqMZ7/1G9xxQEeifKmSqlpzwDbKeFrQsXPk1+3pc1nrgxLRvldf0hmasB+BjsgKpf3EkfEEAdcQvMSt0rpxIwrmeqbP/0ndS/Bb9fsm9Yey6Kwi65M1dgL74Ob2zdDBNOK7Ccp9Chz2Hzqi/rAfI5dIeft+z+7KIohtviYICsWIoTPRVgaUuRscTIgbgUBphuUuIrF2ZOHjP3DocMNqhOORFhgdK3wfcZ909hvrPbvyzBUNxzj6vuG7Zk880XZ79WbNFBYXYW9/dG+DFQLJFGAV0/70+pxx+B6JRJ4AvsNmQczPGX5HwFqN31h7A0fm8tZ13KcLbDWF4LcnUaKE1iLGZ9zXQHy3yPNq3GJZEQJuEXD+pnarKueF77Hv8s6dYX6cyNB0ndNj4s+epOSgsHTpwo9I2isbiNswgr7yx5kcQPcrLUZ8BI9qn2RXpVETp6igzXL8smhUu6ZKtQj3MKvAt14rIrpDbS2Dz/fZLzY6pR7HPkCRgMC9CS855B5HFhxIkUIFlGuT+uDB/5KbrFzBwaF+8x6s3mlVSIeplQhYBxBoDrcuc+DiR1+OVHEvjipCRwDzb7ThlzqeAQSmb+NUvzoGAB3azv0G0tJpk+3yQ2aqqaNGqAxNv67boI7Xc4HAdx1+1XDfGTKwv9EEWI3WWIJwjZ1OVvrx9SHmJiYF1jV0rnBtedgCBS7uSDD/PiH1KzygwB7pYZHK1GwBgZtT9eat7FabLEmYa5qj75uj71pU2263QbwRCQa8Lbh2WFIRfI0UxcggpgVKWYOaNRRXZ/Of6PKydEwAcwXBuriAMyz9wUH1yGS2gr/n+MvA79YGtULjIxADFpFAIZ8yZ54qhmexVWPn7o2B9G6R5zWip0P2C4GICXhNkUDGFfMo3mUeMcafI8mZM2esViTABX7tCBJ++412KngRGZs2btuhRtoR9Ik/dBZqV62isnKYJw7CaC5GwDGXwXXOnORIMDIenYJJ15D+FCOS6KR+3Le3yj6lO8TREWSN64GpOnmypHTnbjCPIl/06CViYjdnAssBBB2nCV8OtQly18e5ki0LZTG6rV1EEAwJht9Nn6ncxeBeM+/nZTSgezddbbgl3Jl0sDYm4pu39Bc1rwYKLl25it5jq4QeQYcLijkAPlxlDja8yUHRMa1IIOYkO7sOwXKHVK/uCjIc6XlGkISgE1+TVc46eY7McSnXHJzf0Xctqm23tjMmPiMOApYHxEUgU5tZvJW5CWl6zZZOtKEIu1cWL/K8uTkO1xG4jMkjtUDxx+SHOp5Jb7e3jOq57dXpbBvahLTR+IOCi2QciHHAOn7zkfIafxioQcA14nPMSrG5bkz4iPsHQcpeWOCcSSC8W3zheXXGWPYJAX8i4DVFwjwa6wogd8u7Uqe/lsEIKTIO4Q8BoJhkSM8hgQnHMLqMPwQtd23TSpm3ca3o3OClcprTXcKf1prS8ghPyIaOdnQLXJegSOBcSGGrO6u4LgQCR5eAB1x6Tpw5Q8iqg1mRIyuYEVgL/JPtZYDS+5GKEZI9Sxa7SgRM6Ac59bG7AncDsMzCLitte/ZRh2MmZlcFs2p/0KsHHT99Wrk8YfQdM4vrWaLxvCBNsLuSJElidw+JlvIIxIYigRSkR06cdCsDlb5naJjmYW3kNp5zxJGYFYm/9+5TGcusZTHjtCOJStsd1emN7ZjbY+ykKYSJAs2CIFy42TRjq4635pLAjODDxn1rbobK0uWqIjF3yVKVMtdcAa4hGWcbi0iieu6I6ne2H9nWkH0McRKwBmEeCGTPgnVOuzR+Mf47qlqhHH3Upxdhng+zTH5mjYD7ZftmTc27HK7767vFl55Xh3BlhxDwMwJeUyRScUesQYMGfobH95qL2Ai4vHRp3VJN/rRgGSYe2qIyL6FTiInm8PKDVObMHQhshPl24fIV/KJpY3NBc/jF6Q2pwxaT4fwiQzug8GzjmcwhZTmTlCdnk7ZeC9wo8CJFh/mrCZPou2Gf2/W7381BzYXy5XPqF4zJ/LQ46xCiTHq2BAXfO0//cOcKHVTraP33M2cZ8RG6TusSI4voINgT83Ydc2Euh1iBxOzuZs/lDeWQEUoLJmbT0rLRq4Q/f5VXa9VU6TDR/jHsAvjNsME27mTm68KIJDpDupNoVrLxfbKmgUVK3ZkLF5mrsFmHNRAWKCiJy9euZ9eoToalBwUvXr6iOnc2B5k+RKXtpmq8vor5NLQSwQP4Mru11+9A2AkxMFOJ0z3jDwNHcC/D7y3cIGG9hKUU7w6zIoGEDnCbhNTlpBdmhTis5vBr/vpukec1/L2ULUIgqgRsI7aiWpsc7zUCeGlUKF2K0ygOonUL5lLfrm/y7MlZbM6PTiH8WSGYqGsOTzaEwE5kSxr/w3SCEhKR3Ll7V5nL0bHVf+iYQxAMrLfpJfzurQI3o/KlSqjNmBlYB+pFl1uTPj+uP3/uXOoj0uhiFB8vTrgIwdXuIHf0P+WZiNv07M2j2KEZpPSx1iWCm7VfN/Lit+nRWwWS6tl80YHU8tyzUX0Eyn82+ms1gziUKASA43zT5y/URR0uX32jE7Xu0Uu5i2A2ahwPBQEpczFrtZaKZUrrVWMJF5PKTV5XufuhSMKNDMfjer+dNpN+Xhk66RwUkrzsQhgoUrtqZTWDN64HzxkC3qEkIrsT3CqhaCOgGpPSNerQmTAxm5bC+cMsMbCYzV3yM7vo3FDPCqxoLbq97VT5Q4B7y4ahShiehU7vDFDuIvg+IBNUhz79nKZZjkrb9TXE1BIT2HVu3YJ+mz1DTX6Ia4kf32tjVDF12T59XijGnXmw6bc5pnvC7q5WwUSJECiBnVo2t+52+Nmf3y3yvDq8rbJDCESKQPhflkhVIwfFJAGkcIVPd8cWzVV2JN0WjJD27dqZhowdp7I/DRk7ntfH690Un18sT7iDiU6mIxnKrgK642ktg2BK/Jll4ojhrOCEZmYyb4dLjjmdLUbCa7xcwVzE4+vwI0Ywca+PPlWzvcK9CgpAZASKW//uXan7wA/V6B4UEp2eFfV9y9YOPYrdo+MbtI65wOd+w5Zt6k8HAqMs7guUEigkzmT3/oPcET6oiuBePX7y2CajUNHCBal+jWp2q4Ab2WyekBB/EATvmwNf0XF49+1uDkfs7VbqBxsxEWDPDwax+9YZDjTfz8pYb9VJ0sqvo0tAimAEV2MEF9m0MGkdvjdx+J/OnIbndc2zJAH26mnXvImyCB5jBQWWMCgrZknEViIdh2Hertcj23Z9fEwsO7RoRr3e7OBSHEFMtC+2nxMuwuVKllB/GIjQFjhwgVUO8REQWBjg+uiq+Ou7RZ5XV++wlBMCrhMQi4TrrHy+JF4aUCrMgpGj0Z8MUp1X83YE3o385EMjENeaTlCXjcsdaHfEUT3VK1YgdKS0VOV4D29MlgV/96XTJlGzBnXZ1SfMjUe3AxyggJnN/XqfdYmMU7O/GUsVy5RilyxbzubrRmzGpK+G84s5bLQf/srovCOLypSRX6qMK7r+oKC4etVYIkDSPB8BXBN0ZxiZVTq83oxnLR5u130J8weg85AwQXyjPrMSgQDMCTzjca3KlYz9vrKiOTp67qDQabHHDex/mvy9Uqy1NU5z08fBSvVW+zaUO3t2vUkt3+PZmUMn4go9B46DEoHOFybqG/LeAHUPUVi301wBglTxfFQu+5JRDvuRPQ3uJrAeajFfh94WlbbrOszc7PHR5Ty1TM3Z9VwJRvbU+ZzVY49pUBB/6VwU6/H4vrp6tPVYnNKdc7vYxCgVw/NpTqk8lbPL6e8GZl53V/zx3eJLz6u7vKW8EPBVAnE49dszRxVfbWLk2nXzWeaU1JaOdeRq8/5RIVdCc3p76sy4zUgfiyBUpMfMzyPisS2gHZYX+AvDpeXJ0ycqy09u7thH12R1OB+YY+IzdP6RrhEjee4IXMbO8ySO8HmGu0jWTJmUCxtcaSISpNnF+eHfDxc1zJuAQG3UERsEz/xF/h4dO3lazR6eKX06ysqZnczxEPY4YOT2GI/Wgnn+PLn4+5LD7bz8cCGEBQwZvl4sUsTt+x7Zttu7HtkmBKwE4GZZu1U7FZCN1NQzx422FnH5c2x6t8Q3xZe5DEgKCoEAJyCKhI/eYE8rEj56mdIsISAEhIAQ8DKBYeO+oVkLQ90ev+WkBHBtEomYgCgSETOSErGPQMDGSPirJSL2PYJyxUJACAgBIeBNAqWKFaPcbGlDytdK7IonIgSEgBCILIGAtUhEFoivHCcWCV+5E9IOISAEhIAQEAJEYpGQp0AIhCcQFrkYfp9sEQJCQAgIASEgBISAEBACQkAI2CUgioRdLLJRCAgBISAEhIAQEAJCQAgIAWcExLXJGR3ZJwSEgBAQAkJACAgBISAEhIBdAmKRsItFNgoBISAEhIAQEAJCQAgIASHgjEDAKhKYR0LPJeEMgOwTAkJACAgBISAEhIAQEAJCwH0CAatIuI9CjhACQkAICAEhIASEgBAQAkLAVQKiSLhKSsoJASEgBISAEBACQkAICAEhYBAI2AnpjCv00xWZR8JPb5w0WwgIASEgBAKSgMwjEZC3VS4qigS8rkg8fPhQxS4EBwcT1p8+fUpJkyZVf+nTp6c4ceJE8ZLkcCEgBISAEBACQkAICAEhIASim4BXFYmtW7fStWvXHF4TFIrChQtT5syZHZaRHUJACAgBISAEhIAQEAJCQAjEPAGvKhIPHjywueJ48eIpiwSsEhBYKf78808qU6YMZcyY0aasfIgeArAKhTx5QvGC4lKiRAmj5yR+Wuv5i5fstjxDunQUP75Xvzp22yEbfYvAw0ePKOTxY4obFESJEyXyrcZJa4SAlwnIu8XLwOV0QiCGCHi1N5Q8eXLKkCGDUhJSpUpFUCSecCcWVopz587RhQsXFIZdu3ZRrVq1KIhfyCLRS6DLgPfozz37KEvGDLR63myXTla8Rh113xrUqkFD3xvg0jH+VujKtetUq2Vbu82eOGIYVShdyu6+2L7x73376a2BHygMWXgwYPHUiQaSqT/OpwkzQ5+xOtWq0Cfv9DH2BcJK308G04Yt2yhF8mS0ddliv7ok3DPcO8jHfXtR3erVjPaXb9CYnjx9oj4vmjKBsmbKZOyTlcAmgGfiMSvHyZMlo8L587l1sfJucQuXFBYCfkvAq4pEqVLhO19x48ZVigUsEPfv31fxEyEhIXT79m2CsiESvQT+++8/dYJnC5dO9vjJY0J5KIGBKkFBEqsTmXv7iL+7d4PvqUPv3A22qeLBg4fGvnv3ba2TNgX99EPYdyn0O+VPl4F7pu/bw0chNk3/984d4/Pjx4H7nTcuUlYUgT0H/6G2PUOV/Vd50GjY+++6RSbs++D6YbHh3eI6DSkpBPyDgFcViYiQpGOXET2J3B1+eYkiEREx2R9dBNKlSUMHNqw2qv9l9Vp6d8hw47OsCAEhIAQCmcCUOT+qy0P+k44tXw/kS5VrEwJCIAoEfEqRgEVCS4IECfSqLH2MwLQxI1VsS4Z0aX2sZdIcISAEhIAQiCqBE6fP0LrNW1Q1lcq+RPlz54pqlS4dL+8WlzBJISHgUwR8QpGACfTSpUt0/vx5BQexE6lTp/YpUNKYMAKlXigW9kHWhIAQEAJCIKAITJk7T7mv4qI6t27ptWuTd4vXUMuJhIDHCMSIIoHgrZMnT/IP1X8qFgLB1oiLgGAeiaJFi5JYJNy7xzdu3qLFv62k+5wZq0eH9jYHI5vMvJ9/ob0H/qEjJ05Qnpw5qGSxotSkXh2bco4+bNq+gw4fPxFud4E8eahS2TLhtmPD7EVL6NqNG5QwYULq1ra13TLYePrceVrC7YaU5wDm0tGkpJzlQP5VGzbSsVOn+e8Ux3c8pexZMlOJokXotTq1VYCsaoSH/kPGkm1/76JN23cSzo3g7Xjx4lK+XLkof57cVOPlipQja5YIz7Zj125aunI1nb90ma7y9yRZsqSUPm1aKlqoEFWtUI4KcF2O5M7duzRn8c+0/9BhunD5svqOpU2TmrJxeuWXXyqtAsaTJkni6PAY2f7rug3qGU3IFslu7drQrv0HaOO27bRz9156xM9xwXx5qUXDBvR8wQJ22xdZ7p5+XvHb9jPft+18/w4cPqIClIs9V4i/c3X5/qXxaNvNlW3e+ScnT9hLcfhflzatOItUiPrub/3zb7p89Sql5riz5wrko7ZNGlM2fv6jKguWLVfPVpO6dTxSX1TbI8eHJ4BnEc/hwl9WUO/OnShrZufB8nhOflmzVlWE38cXizwfvtJnW/zt3SLPq8NbKTuEQKQJxIgigQ7BoUOHwjU6ceLEhIBsiY0Ih8buBqTN3frXLvrpl+XKDI1AyOoVy9uURWe+xweDaN8/h43tx9lsvXrjH7T2jy304OEjY7ujleVr1tEyjhGwSv0a1RwqEug8oQMMqfRSGe685Lcerj7jh/2HeQvUenSMRuElOmfxUho1YTJf60ObNkA5WrNpM42d8gOtmjuTEBfhKandqj1duX49XHUHjxxT276fMYs+f7cf1apcKVwZbMC9RRYg3Cd7sn7zVho/dRrtW7/K3m7ueO9R910H0OpCuPc7du2hRSt+Y4WzHb3Vvq3e5RPLlazsrd64iRXQBJQ7Rw7q9+nn9JTvoZYDR47Scu7kjP70Y6pc7iW92VhGlrsnn1c8c5+NGkvz+dnWAgX2d1aIsO27YZ8rhUjv08vItl0fj+UfO/6kGQsWqk0YKOg16FP652joM4eNJ8+eU9mZoJghA1NU5eyFi4TR60mz51LZEiWoaf26/BtUQdIjRxWsB47Hb//iX1fy+2EFnXuWyvrNVi0irHna/IWcqSk0qP7NVo5jI/zx3SLPa4S3XwoIAbcJxIgiAauDtjjAEoEXLwQxEvv27aPSpUvznAaSh93R3cTo9qJff6NFy39VI9XmctYR5p4ffGwoERiBr1q+HCGzzto/NqvOpvlYR+sYlTJ35qBYRCT1a1Y3FIkVa9fbVSRw31esW6+qSps6FZUrWSKiat3eP3riZO7ozDeOwzmQxhABhEdPniKM1D5kZSok5LFRxhMrGAmGZOPRv2KFC7H1ISshQ9lRtsRBeQm+d5/6fDyYxn3+KVWzKH84buZPiwwlIk2qlJyOs6oa1b717206ceYsbdy+XbUbZa2C+9vn48+MLDy45jIvvqDSLWNujL/27lPX/vRpWAcddaz+fROt37LVWl2En3t17kgZOVGCJwX35N3Ph1ESHlyoUr4sj6SnpM07/yL4biOr0MjvJyolFr8lZoksd08+r1DeoDAkTZJYWZ6goG7762+CEnT56jXq0Kc/rZk/W12bJ9pursO8PnjM10qJSJggvrKCIW0rLFMHDh81F4vSuv69wU/4Vr5G/OF5bfhKLVYq6lCu7NmjVL8c7B4BDEDAKgXlAd9lWF61wCKq37t6m3WJDF0YmILkz52Lv2PhlXW1k//zx3eLPK/67slSCHiOQIwoErA8vPLKK+oq8MOHDE1HjhxRcRK3bt2iP/74g6pWrao6Xp67VP+uCZzgYrSAXxC/b92uRqz1FSVJnEiNbDeq8wqVYpclLXCt2ftPqOXnebYITBn1pcoHjv1d2rSk9r3eYbebi7q4w2XzV+sT/rSsWLvO8J/V26zLsiVe5BH+1OzedJN+Xb+B3unWWbmtmcshRzk6VhDMK+DpeUNOnT1L05+NziZLmoS++GAgd0rLqfPp/9Ax/XTUGI8/azUqVaRqFSooFyJrZ3cnu5507N1PKWfT5i+wq0hgZF7LqE8+otLFX9Af1fIWp0dGJil7Aneom6xwQOAqNnnkF+GKoYy1XfvYBUpbkcId4GRD+2ZNDEUCzx+sO5D48ePbHNW+eRPuYNZU2+CiFZGkSpmCfhj9FVsmQjujcFtq+7++ylUIlpV9/GwXe66wTTWR5e7p5xXP29RRIwwXLKRK7j94KOG+orMGS1z75k090nabSkwf4FZXvMhzNOKj93memIzGnuNsHVm9ydbSNfazj5VbJArhe2uWNTy/DH5/IJl5vhmzdG3bSlmG4J6I5xHP3Y1b/yorIyyNpV4oqqwUsLzBXU0kegjAHWnhch5cYkvjxStXbE5SiN0BG9WuRVCWU6dMabPP+mEuW291amZkarL+Rujy/vpukedV30FZCgHPEYgRRcLcfHQeU/KPG6wQmNX64sWLyjKBGIp8+fKZi8bKdYwg4uWAP93pBggMxJYqVowa1amllAiM3FplDscpaOnFvrGYVEhLxvTp6S32QX9/+Ai9yaNL3Ne61arSDB5Zv3TlqvJ1h2XDLLBUaKlfo7pe9dhy3NTphom+Z8c3wikROBHiRaaPHeWxc+qKnE22hs59abYQbP97N+09eEh10qxK1GWOh4BASUQ8i1VSpUhBbZq8Zt2sPsNipeVlBzEsZV4srosYy0wZ0juNuTAKWlYwMKAFiRIc+WBjNFCPCOryzpboyGglAuUQb9P6tYbGM3uOEzRYFYnIcvf08woXH3McB6xR7/Z4S1l9YN2Du51VkYhs2x0xxDMy8cth4ZjnzZWT8GeWNGwRdCRW5cFaDh3VgT26U79uXWjD1m0c87RKxbVgNByTXeJv6NffEOYiaFq/ntcyAFnbGWifoZxiUAnWh007dhrKHq4zNSvhUBwa1X6FcH9cEczzMmth6ESKmXni2HpsBXUk/vxukefV0V2V7UIgcgRiXJEwN7tAgQJKkcC26+xfHpsVCbwkur/3IW1hdw6zWxFmoG7Io0uN2HUgomBJuMBA8FIpV/JFtW7+r1aVSjToq1FGZ9u8zxPreJFBkYBAaTArEri+Vb+HjrrnzJaVirL7j6cFfu8QdKjMFhVPnyei+jACfenyFbrO1ja4gEDQsYSEcOKBe+zSlyyp7Qg9XuRQwDA6iJc7lAarsqEqsPOfueO3lDt1sPaYR6TtHKI2teJOOv58RapXsI33QbtyZs9mNO+qSWEyNppW3OXuyee1nmlmaN0kuH9BKYRF6jwrQXBBS2Cx2uiy7rZdH2detmNLkTuKm/nYyKxDiUQSAfwh+cOy1WuUjz5cCG/fucvP8RL19wJbkcawBSRDOkkfHRnOOAZuiEO+Hk9Xr98wqogbN0i5IsH6UKVcWeXKaOx0YWXhil8NS+Ybrzc1fqPsHRoI7xZ5Xu3dWdkmBNwn4FOKhHlk0zynhPuX5f9HPOaONgInteTizvagvr3Y1724Q3OzLquXsGZA0LG01wlNzHEoaTnNrtnSoY/1xBIjsmj3Kc7MBJeO9//3ttEOmMbhAgGx1+mK6vkR84BMRxCMajvqsEX1PI6Oh3KATFkz2bXqcgQdXigTVnmFlTxkLIJ88c33HMz6o3ITKf78c0ohK1KooMPnAB21jOnTqfsKF6BXWrZTmXrQiUW2p/KlS1LK5Mmtp/Spz7C44RqsYm43MpRZJSrcPfm8Ih7JnsBaA0UCCiUURXPmrqi03d658IzElMDCAYsL/qDQI9kBvvMQzJh8k5VqUSQif3fghmhWIrq1a83WukbkzLLk7GwY2JnGrmgQDLw05exiziTQ3i3yvDq727JPCDgn4FOKBGIltOgRW/05ti3hmxrEf9oagc744DHj6DX4urKLQETBrRgBRMAqxDrabWaJIOfoUiRwHozyjv9hBisNt1RHonypkur05oBtlPG04EXnyK/b0+ey1ocOYftefUlnaMJ+BDoi6Fb7iSPjCQKuIXiJW6V140YUzPVMn/+TGs0Fv1U8Cok/CIK4kfXJGjuBfXBz+2boYBrx3QTlPgUO+w8dUX/Yj5FLpLx9v2d35S6Ebb4mCArFiKEz0UkadBlPcPfE84p7bXYj1O3DMnmyMMsT3Ne0IuGJtpvPg/WsmcLiIqz7vPEZv0FIpgCrmI7V0ueNw66PIpEngO+wWX74cT6d4XcErNX4jbU3cGQub13HfbrAVlMIfnsSJUpoLWJ8DtR3izyvxi2WFSHgFgHnb2q3qnJeODg4WHWYUvBohz1Bp+DgwYPGrnTpwo9GGjtjwQpG0Ff+OJMD6H6lxYiP4FHtk+yqNGriFBozaSqV45dFo9o1VapF+I5bBb71WhHRHWprGXy+z36x0Sn1OPYBigQE7k14ySH3+NpNm9W2IoUKEFybPC3JTa5CwZxFx5uCdJhaiYB1AIHmcOsyBy5+9OVIFffiqF3oCGD+jTb8UsczgMD0bZzq9+690GtBOsfO/QbS0mmT7fJDZioE+yJDE+ZmwPF6LhD4rsOvGvO5DBnY32gCrEZrLEG4xk4nK/34+hBzE9PiCe6eeF6ROhMWsfjxw/+8mrPomJ9RT7Tdyh8B394W/NbAkorga6QohvuWlhTJk1GDmoiTqBupWBxdjyxJzRUE6+ICzrD0BwfVI5PZCv6e4y8DzzPToFZofARiwCISvHunzJmnisFK3aqxc/fGQHq3yPMa0dMh+4VAxATCv+kiPiZSJa5evapSu2KOiKycCjNZsmSUhIMvMRp7mzPQHD9+XGVvQuXoRKFMbBf4tSNI+O032qngRWRs2rhthxppR4o//KGzULtqFZWVwzxxEEZzMQKOuQyuc+YkR4KR8egUjLgi/SlGJNFJ/bhvb5V9SneIoyPIGtcDUzVGf+/cDeYc6hFnpnKHgZ480dEx2mqAjtOEL4faHZ12JVsW6oc1SbuIIBgSDL+bPlO5i8Elat7Py2hA926OmqJ88nWwNibim7f0FxXoiwOWrlxF77FVQlus4IJiDoB3WKllx5scFO0LioQnuHvqeb1x66ZdJubvmzmWxRNtt9wWr35EHAQsD4iLQKY2s3grc9PNf//lOUZsU1MXYffK4kWeNzfH4ToClzF5pBYo/pj80BXreFTPrc/p6hJtQtpo/MFFDsk4EOOAdfzmI+U1/jBQg4BrpI82uwWaz4MJH3H/IEjZC9cmZxII7xZfeF6dMZZ9QsCfCHhNkdBQkN4Vf84EM1s7slw4Oy5Q90GxQtpS/MEdApMM6TkkkLMeo8v4w8h+1zatlHkbLNBRwUvl9PkLyp/WOqPuEZ6QDR3t6Ba4i0CRwLmQwlZ3VnFdCASOLgEPuPScOHOGDh87bncSMFfPjRmBtcA/2ZpGVu/DEqkYIdmzZLGrRMCEfpDTHbsrcDcAyyzsstK2Zx91+Kmz51xRiz7cAABAAElEQVSuBrNqf9CrBx0/fVq5PMFPHzOL6+xCeF6QJthdScLzJfiCeIq7J55XTPiGesyC0c89B0Ktrhj5NXfsPNV28/m8sY65PcZOmqLmyDCfDwke4GbTjK0P3ppL4hynsh427ltzMwgB564qEnOXLFUz0ZsrwDUk4wGviCSq546ofmf7kW2t+xtteSb41soahHkgkD0L1i/t0vjF+O+oaoVy9FGfXmqeD3N9k59ZI+CS176ZbUpicznzur++W3zpeTXzlHUh4M8EvKZIpOag3izcsbrGHWHMbG1P0rN7ROHChVU6WHv7ZRsHoLLLF1xeurRuqSZ/WrAMEw9tUZmX0CnERHN4+UEqc+YOBDaiA7Nw+Qp+0bSxQTiHX5zekDpsMRnOLzK0AwrPtl2hQZdlOZOUJ2eTtl4L3CjwIkWH+asJk9SMwvb87ndzUHOhfPmc+gWbg2f/5GBZZ5KeLUHB987TP0cwAdnVcCPT38+cZcRHOKoHI4voINgT83Ydc2EuhzkmErO7mz2XN5RDRigtmEFaS8tGrxL+/FU8wR3X7onnFYH2GAWGsqwFE4TpwHtk1TGLp9purtMb69s5gBoT7UF4AF9mt/YGdAfnwLNWidM94w+B2HAvw+8t3CBhvYTVC+8OTBioBQkd4PYIqcuZxsxWMl3G3tJf3y3yvNq7m7JNCESNgNcUCcwVUbJkaKAt4iUwuRT+IHBxSsouHPY6eVG7vMA9Gi+NCqVLqb/rN2+q3O14aZgFncLJc+aqFKLfcJxCCs7Ug1zuj9h/e87iJTwplm1587F6/c7du+E6veiYQxAMjA6vWTCZlfU+ws2ofKkSarTsdzaja4kutyZdP64fTGDGRhpdjOIPeLsbFWalAZ0eZDTCxGDwM17942zKnCisg63r0EsENxfIk5uOnDip8uK36dFb+RLrCZ6e59TFcGWCPMej+giOR6D8Z6O/pjeaN1UuRpdYqZg0a66a9VjX62j56hud1GzEzTnvfqkXiqkX/G2+F5hIDv70WiqWKa1XjSVcTL6bMYvvdU2qV6OamjMgCY+AH2KrzIYt2+jnlatVWSgkeXPmNI7z9xVPcAcDTzyv6Jy9N/QLwqzfyIy2meMG8FlLx5bN9apaeqrtNpV66QO+86/xZJjI9BNRSmovNSnWnwbW58482PRmqxYqyQV+B3VcmhnOpNlz1Uf8HnayPJPmctZ1f363yPNqvZvyWQhEjYDXFAlzM6E04E/EMwTQUenEfuodWzRX2ZF0rejY9u3amYaMHac6tUPGjuf18Xo3xec4iidsJYClwJEMZVcB3fG0lkEwJf7MMnHEcFZuQhVG83a4eZjT2WIkvMbLFcxFPL4OP2IEE/f66FM12yvcq6AAREaguPXv3pW6D/xQje5hJE+nZ0V93w77XM3wi/UeHd+gdczlASvK6LjjD1lWdKAt7guUEkzU5Ux27z9I+IPgXj1+8tiYhwLbihYuSPVZUbAncCObzRMS4g+C4H1z4Cs6Du+yUmUOALdXjz9t8xR3XHNUn1eM+v6yZp36szKE3z0UB7N4su3meqN7vUOLZtTrzQ4uxRFEd1uk/vAE8P0uV7KE+oOl0uymhQEWxEdAYGGA66Or4q/vFnleXb3DUk4IuE4gzO7u+jFS0kcJ4KUBpcIsGDka/ckgY7Rc74N/9shPPjRmTbamE9Tl4ppcM/Q2Z0tH9VSvWIESmbJLVeV4D29MlgX//6XTJlGzBnXZ1SfMjUdfAzhAATOb+/U+6xIZp2Z/M5YqlinFLlm2nM3XjdiMSV8N5xdz2Gg/lAh03pFFZcrIL9V8Drr+oKC4etVYIkASVhAtcE3QliD413d4vRnPWjzcrvsS5g9A5yFhgvj6cBslAgGYE3jG41qVKxn7fWVFc3T03JldhazcPMFdc4jM8xr32X1EsOrkr77gSQBtLVx4/vp06cR+6v/TpzGWnmq7mZuVj3EyD67AIudKMLIHT+mwKvOzoQsFBfGXzkWxHo/vq6tHW4/FKd05t4tNjFIxPJdma/FUtmzq3xRYLtwVf3y3+NLz6i5vKS8EfJVAHE799sxRxVebGLl23WR3HwhiM/xRQq6E5vT2VNtxm5E+Fq45eXiCtvw8Ih5Io9GucILlBf7Cx0+dZkvME8qeOTPl5o59dE1Wh/OB+cmzZwmdf6Rr1O5PrrQXZeA6hlmQ4fOMdKJZM2VScw9groiIBGl2cf4rnDoYLmqYAAyB2qgjkMUT3D3FB1mADhw+yoH3malg3jw2HTl75/Cltttrn2wLDAKYZ6d2q3bKSorU1DPHjY70hcWmd0t8U3xZpIHJgUIgwAiIIuGjN9TTioSPXqY0SwgIASEgBLxMYNi4b2jWwlC3x2+HDVauTV5ugl+eThQJv7xt0uhoJhAjMRLRfE1SvRAQAkJACAgBIeCAQKlixSh3jhxsIYvLWZ5eclBKNgsBISAEIiYQsBaJiC/dt0uIRcK374+0TggIASEgBGIXAbFIxK77LVfrGgEJtnaNk5QSAkJACAgBISAEhIAQEAJCwERAFAkTDFkVAkJACAgBISAEhIAQEAJCwDUC4trkGicpJQSEgBAQAkJACAgBISAEhICJgFgkTDBkVQgIASEgBISAEBACQkAICAHXCASsIoF5JPRcEq6hkFJCQAgIASEgBISAEBACQkAIuEogYBUJVwFIOSEgBISAEBACQkAICAEhIATcJyCKhPvM5AghIASEgBAQAkJACAgBIRDrCYgiEesfAQEgBISAEBACQkAICAEhIATcJ+ATM1s/evSIbt++rVofJ04cSps2rftXIkcIASEgBISAEBACQkAICAEh4DUCPqFI7Nq1i65cuWJcdL169SgoSIwlBhBZEQJCQAgIASEgBISAEBACPkYgxnvr58+ft1EifIyPNEcICAEhIASEgBAQAkJACAgBOwRiVJEICQmh/fv322mWbBICQkAICAEhIASEgBAQAkLAlwnEqCJx4MABQnxEypQpKXny5L7MSdomBISAEBACQkAICAEhIASEgIlAjCkS165do7Nnz6qmFC1alBBkLSIEhIAQEAJCQAgIASEgBISAfxCIEUXi6dOntHfvXkUoe/bslDp1av+gJa0UAkJACAgBISAEhIAQEAJCQBGIEUXiyJEjFBwcTPHjx6fChQvLrRACQkAICAEhIASEgBAQAkLAzwh4XZHAfBHHjx9XmAoWLEgJEyb0M2TSXCEgBISAEBACQkAICAEhIAS8qkj8999/yqUJrk0pUqSgXLlyyR0QAkJACAgBISAEhIAQEAJCwA8JeFWROHXqFN28eVNhkgBrP3xapMlCQAgIASEgBISAEBACQuAZAa8pEg8ePKBDhw6p02bLlo3SpEkjN0EICAEhIASEgBAQAkJACAgBPyXgNUUCE889fvyY4sWLR88995yf4pJmCwEhIASEgBAQAkJACAgBIQACcThu4T9voFi3bp3K1IRz2QuwfvjwodEMvR8xFAUKFDC2u7OiXagktaw71KSsEBACQkAICAEhIASEgBBwjUA814p5tpRZabBXs94fEhJib7dsEwJCQAgIASEgBISAEBACQiCGCXhNkcibNy89evTI4eWeOHHC2A8rRFBQkExU55CW7BACQkAICAEhIASEgBAQAjFLwGuKRM6cOZ1e6YULFwxFIn/+/EqRcHqA7BQCQkAICAEhIASEgBAQAkIgxgh4Ldg6xq5QTiwEhIAQEAJCQAgIASEgBISAxwmIIuFxpFKhEBACQkAICAEhIASEgBAIfAKiSAT+PZYrFAJCQAgIASEgBISAEBACHifgtfSvHm95BBVK+tcIAMluISAEhIAQEAJCQAgIASEQBQJikYgCPDlUCAgBISAEhIAQEAJCQAjEVgKiSMTWOy/XLQSEgBAQAkJACAgBISAEokBAFIkowJNDhYAQEAJCQAgIASEgBIRAbCUgikRsvfNy3UJACAgBISAEhIAQEAJCIAoERJGIAjw5VAgIASEgBISAEBACQkAIxFYCAZu1KbbeULluISAEhIAQEAJCQAgIASHgDQJikfAGZTmHEBACQkAICAEhIASEgBAIMAKiSATYDZXLEQJCQAgIASEgBISAEBAC3iAgioQ3KMs5hIAQEAJCQAgIASEgBIRAgBEQRSLAbqhcjhAQAkJACAgBISAEhIAQ8AYBUSS8QVnOIQSEgBAQAkJACAgBISAEAoxAwCoSN2/eJPyJCAEhIASEgBAQAkJACAgBIeB5AgGrSHgeldQoBISAEBACQkAICAEhIASEgCYgioQmIUshIASEgBAQAkJACAgBISAEXCYgioTLqKSgEBACQkAICAEhIASEgBAQAppAPL3ijeX9+/cpODg4wlOlSJGCEiRIEGG5QC4QcuVKIF+eXJsQEAJCQAgIAb8iED9DBr9qrzRWCHiDgFcVidOnT9PRo0cjvK7ixYtT9uzZIywnBYSAEBACQkAICAEhIASEgBCIGQLi2hQz3OWsQkAICAEhIASEgBAQAkLArwl41SJhJlW6dGlKlCiReZOxnjRpUmNdVoSAEBAC/kLg/MVLdpuaIV06ih8/xn5u7bbJkxvv3runqkucMCHFjRvXk1W7VFd0cn/48CGFPHlC8YLi8jsroUvt8ddCjx8/pgePHlEcvoCkSZL462VIu4WAEPAigRh7s6VMmZISJ07sxUuVU2kCxWvUoSf8YmxQqwYNfW+A3izLACHw1sAP6O99+9XVfNy3F9WtXs24svINGtOTp0/U50VTJlDWTJmMfbFh5fK1a3T67Dl1qYXy5aMUyZN57LKvXLtOtVq2tVvfxBHDqELpUnb3+fvGY6dOUcM3OqvLeKdbZ+rYorlXLym6uXcZ8B79uWcfZcmYgVbPm+3Va/P2ycZNnU6T5/yoTrth4TxKnzaNt5vg0vnkN84lTFJICHiFQIwpEl65OjmJXQKPnzym//4jpUzYLSAb/ZrA3eB7hD/Iw0chNtfy7507xufHj0MVCmNDLFj56IuRtHnnnxQUJw4tnzXNo4pEUBDGcWOf4LdEy3/mD3pjNC+jm7u+phi4tGgmF756fa3YY14PXzJmt8hvXMzyl7MLATMBUSTMNGRdCAiBgCVw6NhxpUTgAmtWfplyZM3i0WtNlyYNHdiw2qjzl9Vr6d0hw43PshI9BIR79HCVWoWAEBACrhCIMUVi3759BN9TSLJkydQfMjU5iptw5WKkjGsEpo0ZSU+fPqUM6dK6doCUEgIBQGDKM5cNXEqnlq8HwBXJJQgBzxJo27QxvVKlkqo0XZrUnq1cahMCQiAgCcSYInH58mUD6K1bt9T6sWPHqHDhwpQrVy5jn6x4nkCpF4p5vlKpUQj4MIFzFy7Sbxs2qhaWK1mCni9YwIdbK00TAjFDADERvhoXETNE5KxCQAhERCBGFAlMNgcrBJaYpO4O+21jhBwZI2CpiBcvHmXLli2itst+E4EbN2/R4t9W0v0HD6hHh/amPUSbtu+gw8dP2GzDhwJ58lClsmXCbceG85cu0U+/rFD7qlUoT3OW/EwHDx+hIoUK0huvN6PMGdLTt9Nn0o5deyhl8uTUsHYtepWDt+3J7v0HaOXvm2jPgYPK7/bFos9TzUovq+DFZez+AalavhzlzZXT3uFR3rZj125aunI1X9NlusrBtsmSJeWXZVoqWqgQVa1QjjnkdngO+NP/uWcvZzGJQ13atKKQxyE07+dfaOuff9Plq1cpdapU9FyBfNS2SWPKliWz3XrOXrhAq7gTe+zUaf47xbEpTyk7ly1RtAi9Vqe2R/307TYgkhujwg3f5W+nzaT/+F/x55+jyuXKKo7zly2nk2fOUEjIY8qaORPVqVqF6lSrYjfTD3y0f1v/O+07dIiOnTxNF/iZTMf3LVf2rNSgZg0qWayoy1f2w7wF6jcGB3RqZd8asfS3VXTq3DlKxlnjOvAzjmdm+9+76OCRo5QjW1Z64bnC1LR+XUrNiSKiQ2Ch3cbn27R9J+GZQRBxvHhxKR8PrOTnZ7TGyxVdcseKCjd97J6DB+nQsRN0kwd58ufOTYX5GX+9YQNK5kImnzt379JKft537N5Dh44eU/e5FN8r/G44y+h06/ZtWrj8V/VbdZy/K4k5q1+hfHnU98ScMCBa2HOmInyv9x74h46cOEF5cuZQz1eTenVcOl1UuXnid8alhloK6fNaNqvfu85tWqp7YN2Hz/jt+3HpMrULz2Uizta1fM062sm/lQ+ZZbHCBfndUtbh+0XXiWd+Hv8m7OLkELjneAfgdxHfs/VbtvJ3/rJ6vzRrUE8fEqXlAj7XBR7EbFK3jsPf6yidQA4WArGQgFcViXScAjF16tSUgWeHjMPBjloecOcXCsQl7ihADhw4oMrE9tmtNR9HSyhfW//axR3+5bRu8xZWxJ5Q9YrlwxXHD7zusJt31q9RzeEP/ZnzF2jirLmquF7iAzrD6FgjnaXODITt23ftUj/4lcu9hI+G/LR8BX02aqzqPOuNe/85RHMWLaX2zZsaGULS8nPhaUUCfPp+MphWb/xDn9pmuX7zVho/dRrtW7/KZrv5wx87/qQZCxaqTehU9Br0Kf3DnSMtJzkDEDjs3L2XkAXJLOhczFm8lEZNmEwPnrnx6f1Q7NZs2kxjp/xAq+bOJPh5+4p4ghtSSE6YNUddUnPuBATzgEH/z4baXOLRk6dow5ZtnL0tET+3FWz2oSP94Rdf8bO2z2Y7eO/kDuqCZSuoXbMm9O7b3Wz22/tw/eZNWvzrb2rX8wXyEywS9mTpKigOuylNqpR0is+zaEXoMSh7/PQZwvOCju73XwxhZSa7vSqitK12q/Z05fr1cHUcPBL6vH0/YxZ9/m4/qlU51PUkXEHeEBVuV6/foPeHfUFbWEk2C77zv67fwMyX06hPPmLFOb95t806BjK6Dnif9hz8x9gOdhu37aBN/F2aOupLCgoKP30RBhve+WwIXbpy1TgOK7t4+9wly2jFug00dOCAaFG6r924QT0+GET7/jlsnBttxu/G2j+28Hf3kbHd3oonuEXld8Zem1zdZj6v9ZgWjV51qEic4zTH+r1w899/leJ4+85do4oDPOiE+9atbWvq0bG9zfteF8Lg19vvf0R4H2gB91U86ARl+m5wsHqOMnN/wVOKxFm2TE6ZO48mzZ5LZUuUUAoLfnsCOTWzZitLIRBdBLyuSNi7EMRFlCxZkjZu3KisE4+4EwLXJ5nd2h4tUiOVi7hjtIg7NRhlN4u93N8Y4XlqSjkCxcIdQYabV6pUpr/27lMdHbxE8IdgVXT+0cFC9SvWruOR5zBFYvPOv+jjEaONU2Ffobx56cjJk+oYnWbQKODhlZk/LTKUCHQO61avqtKd3vr3Np04c5Y2bt/OcTrOOwnmJg0e87VSIhImiK9GiJE6FaNbBw4fNRcz1kdPnMwvrfnGZ3RgC+fPxy9VInSiYdXA+TE6r2U1v0QxEueu9OrckTKycucJ8TS34zyj/S9rQi1PmTKkp4JsCYOl4tDR43Y7zujYNe38lpF5KiPH8rzE7HKwFQfPO0YvT507Txj5dkVwPTp7VadWLSI85Matf5USkSxpEmU5w7ODZxnB2uiIdOzTn1bOneXxzgesXZBsbKkpVrgQf7+yqhH8o/x9gdIZfO8+9fl4MI37/FOqZmfAICrcgnkeiNe7dqfLbAWBwGKG72uyJElpFw/sQMHCtXd6ZwCtmDXNoVXmu+mz1PFFChWgEkWK0DVW4mBVgnIKBRCWCligzALLS8e+/Y17BLez0sWLqfu/ngdIrnOHE78x/VjRQBpdT0vPDz42lAhcN6yjj0JCWInYrNrs7Hye4mY+h7u/M+Zj3V0vye8GDORp2c1W4yMnTuqPLi2h1ENgsStd/AVlrYAShsGT72fOZitiGmrJSolVen44yFAioCzAOowMXOtYeYOlJDpEvx/xvtr619/qD9/vhq/UYqWiTrQMEETHdUidQsCXCHhVkXB24RilysMdjD179qhicHcSCSOAFzFclBawu9HvW7cbbhookYRHdDFK2ajOKwQXAqs0f7U+4U8LOvz4IXVV0El9kztg6DTXfL2NOixt6lS0bPoU5YbWf/BQViLW21goUGjCzNBOBdY/eae3zagSRuqHjB2PXdEm6LRowUgqXnJmgSsFMuu4KhglK17kORrx0fvslpXROAwm+dWb/jA+Y+XU2bM0/ZklAx3SLz4YSFW4g2KWE6fP0Kejxti4e+w7dFi51JjLubLenkfntSIx9rOPlYsbjrMGTK7hPPh4liCZOS++PfE0t7/27qcE8ePTB716UKvXGhqnhPsT3EkypU9vbMPKSLbg6PS1NStVVKPwcDfSgvaD7VU7o/e6jF5iojTtgpGT3ZNQnyuC+SV+GP0Vu9bkVcX/16kD9f74M9WhRWd72eo11LhubVeqcrlMDW5btQoV6OWXSocbwYXLSMfe/dSAwLT5C+wqElHhhtFlrUTARRHf14TsrqIFrmFffTeRMOo8dvJU3t9H7wq3bN+8CfV/q6txDWAOBQiyhN0vrYoEBhS0oteEmX7Sr49htXirXRulZJxmxRGdS3R04SrnKYErmR4Rh7VqCltMkicLnVukS5uW1L7XO0qBcnQ+T3LT53Dnd0YfE9klnjn8aYH11F1FAsfivn3av69xz5vU30td+w9U93UaPzuv8/vHbImCy+BudiODwLV0yqgRyhKIz13btKb2vd8h/D46ksj+xnVt20opyHgO8dt/kweVMHCA5xt/pV4oqqwUeJ8mZNdrESEgBCIm4DOKBJqKuAktwWzWFCHVeYeLBf4uX71mIMGodqlixVh5qKWUiCTROLkf4iIg6DwnT5aUR4KDlXsDYlkgBfPmUYqEeY6Cwzx6iw4kpCj7y1pN0+hQQpk4yZaB6BJMPgaBomXPnz5VihTUpslrLp8e5Sd+OSzcjK+wyljdsjCxk56noWfHN8IpETgp/LCnjx1lc36M2DuL2bApbPpgntwxDSt5jsSR8mAu72luqLv7G21tlAhsw/PTunEjrBoCpWwZuxhBMnA8xBcfvhfuhY4OCWIYXJH5rKjgeYXgGHNnxtnxLTgeQCsRKIe2Dnz7LXbFCrW+4dn1tCLhrHNemhMklH7xBWUZ2HvwkFIGzdcSFW5w/dLue3gm0SGE4meWdk0b04z5C5UFacmvq+jDXj0VE3MZrGOAodebHY0OJbahUwYrC6yY1hmo4SMP10wIvqcDe3a3uUf4PvTo0I76Dw61RMxeuNijisScRUvUufFfr86dDCUCnzOyggtF5v3hI/AxnHiSm7lyd35nzMfF1HrChAlowNvdbO45ntdXOP7p55Wr1X3H4BcsDlpmm7j37fqmoURgP36/urdvqyxQurx1GZXfOHyvB/boTv26daENW7excruKXe+2K/dbuFLib+jX36iYv6b163GMUC7r6eWzEBACJgI+pUiEsDlZi7OgPF0mkJeYebr7ex/SFnapMLslYXZVBDY3YlOso+BeT3NJbhoNhmkYHTPzNq3E3GM/eIwWo4NznANqtdSvUV2v2iwRaIuA7egSmMvhc33v/gOaxR0QKA3mzpe754VPvjaNR3QsfIQh6BSYrUERHQcFyzxqH1H56NjvaW6wyLiqsB08etSwlrXjke2ojArCPUV3kJGJBt8bV8VecC++b3C72X/oCLvGhT3frtbpTjko5ZcuX6HrHOysrYf6NzGELTn4rpmtNFHhhqBqsILAXRHxCloQ56MFAwKIGcD5ETdhVrR0mQplStu9ZwhWhyJhjQG5eOWKYY2Ar7r+LdH1YVmDEzMkTjRaWdkQI+NJgYsjJHXKFBw782K4qmtxKtRBX40yBgXMBTzJzVyvO78z5uNiar3SS+wCZ3pH6Hbg9x2KBOQEuzeaFQltbQB3ezO+V3+5glJm9XOp6/TkEoMDCBTHH+I1YGVc/OtK5XYKy9ushUvUH1y2xrCVV9Kle5K+1BVIBHxKkbjBvtFaUnAHLDbLY1YkEAinJRe/iAf17UVlXixuM/Kj90fnEiNOWhI/c3cwz/ehO3vocyDYEp1tZNvQAr9je5I1c5h7kL39Ud2GfOgI1oR88c33HGD3ozJdwzUCcSOwtJiD/iM6n7bMRFQOMQ86diV3juzhRncjOj6m93uaWz622CADjyuCIGct9jqqep8rS3RiEAgLactKpHWU3Vkd2TPbf2az8XYoEohtgUsE/Ks9JVAO4Oo1k922tJuRo7rRmTdLVLid5kxVWhD8jr+IBJZEe/cns8VNTdeTMllytXqflXqz6O8JtmXPksW8y1jHfcuUPh1BiUA2OU8K3DUhsNTZG2TAc4tEEGZrsD6/J7npOrF09XfGfExMrjv6fYcVSgsURi1QTjV3WLntccc9h1vmBVamvSGwcCD5B/4wCAQXL7i9QZA4ANnLRJHwxp2Qc/gjAa8pEjBhwyc6qZ2RC4BDTMSJE2EpSpHdKTYLOrgIctbWCASXDh4zjl7jUdX6tWoY/vDeYBQvblzjNPpHP27cIGObeb8ewUQApRZH6TIRyBmdArcZZAuaPv8n5dt9g18GyAiCPwhedJ+/2y9c7ISjNmXN5Jrig5dkRHEIjs7hC9s9zS0LB6W7Kgjo1QLLSGQF/Kf+GBroDovI63aCPR3VjVSWiRKFxQeYy5lHXpEC01OKBJSI9r36cqrZY8bpkPoV2by0oo5gagRcQ2CxNEtUuJ3lDG1acD32rAJ6v17qNunPepmUWTsTBNmbxZylKa2TCdDQ0YMigZHiBw8eOrw/5rojWkddOtmC+b5aj4O7lj1FwpPczOd09XfGfExMrjtyM4I1Vsslk1vubU6SoGNiUjtRxJ3dE12vJ5d4HlasW09IA63jZnT9cdjKLiIEhIB9Al5TJK5zYORff/1FSAGblbORQKHAqDYyRlxjX/bjx48bna9M3PFIy/7RsVkwIrPyx5kq3eRixEdwxxyjgKMmTqExk6ZSuVIlqVHtmiptpjko0leYYW4JLXeC7+lVmyXyjUenQOlB+sE2rFAgbSfStG7jdLkIwIXA1aJzv4G0dNpkQiBuRIIOqStidvsKdnDtjupBoPMaS+C2o7Lm7f26dVY+3eZtkV33ODe2ULkqNuye3SdXjzWXA0ME6EJef9W1+Q/08XCn0C56epteagURn121suhjnS2RklIrEXCleIfvJ6xmZovZR1+OtElJa64vKtzMHbaP+vxPxTSY647OdbOroDl7kPWcUB4gGMBIwFnTPCGIydCDNeb7aq37/rNzW7dHFzdXf2es7Ympz47um9ktyfxdwVwk+I0Bc6R4dSTR/X7AedEGWP4RfI3MYOY2I+EC5qvBnBaRiVtzdF2yXQgEGgGvKRIaHJQG/DkSKBjFOIhYJDS4GYG6b7/RTgWDIWMT8rHjxw8ZTPCHl05t9kVtxJaKF4s87zPYzG5LVxzcb6u/dHQ1Hi98bbZGhwSdzO84NgNWHriIzPt5GQ3o3s1jp8cInQ5KP3cxbITdlRPArI4MWO7Kmy1f95gioc/tbW44b87s2fTplaIX2RmoJ8+Zp+qBQt6uWWOjTldW8P1CimB7I63Xb9w0qsCkjK6KOf7L3jHaSobOy4Qvh9oE/eryZquD3qaXUeGWO0cY82um69N1R+cSMV9arppcW/U2vdQuarBSaauo3uds6Yw7fORh8cHvkPm+WuuDJciexCQ3a3sQzIw5RLRAAUXCAB1Xo7dHx9LRM4NgdC1m6yLaBFc1uC1dvhpmudZlsYRl2xF3c7nIriP9NiwPiIuwtl8yN0WWqhwXWwl4TZGAggB3pVsqeNDWvA34+HHJly+f+nPnRREbbhx4IHUo/pBRBwFheg4JpMnEDNT4w6h61zat3AoqjS5+8CXXgrzgr3FqWqsgU4a3BS4r9WtWpyzsptS2Z2gKS7N/uafag3uhg3KRwaogZwpxReCrjTSU7kqSJIndPcSt8t7ilitbWKcWaYoRr+GuwLdZB7s3ZKtdZCb7Q7pV67nhmrn3n9CUlXABisgSiFnPtSCtrzX9r96HJdykIIgT0OlH1YZn/8Ht4uCR0AB+83a9HhVuOU3MMVO9N4P98T3UgpnU7QlSKetBh8ymtMv2ymKbO9zxfUPdp9m9C8oKgvLNcoQnjtRZv8zbsR6T3KxtmbtkqZrEzbwdyQVcmYncfExk1jE/iD3BvENarNnikLgAigRiJzA/izXeBsdqNz5dhyeWmA9m7KQpdODIUZvqEPQNXs3Y+hAdk03anEw+CIEAI+A1RSJlypRUsWJFnnwrhO7CR/JZzARmr0baV6SvNJvxA4yzxy4HcwXAXadL65ZqMh1MBrR+S+is1nDlwCRK7mSn8VjDLBXBLQNBeBhFRYq9g/zDbZ4Rdy8HsDl6AVmqivRH+F8jfaQ9MW935O9t7zhXt8EkDkUCAehfTZhE3w373G66TGTIKcQKtPbJx8RN9iZvcvW8nigXk9wwEVlGHq2ETzomYUOHHqkkrYKgfswObm9OgckcVA+B20rHFq9bD3XpM6xUtSq/bPObtGrjJpV3HhVU5OxEEYk5CBWzwTuT9DwyHnzvPP3D3xMoFUg9apbveU4WZx2rqHDDJIlw3cD8AWs2bSJ8N4uxe5U9we82Mh3hGE8IApn1ueHaheQIVssqsudoKV/K/qzkej+W7nCvXK6sCqaFFWrh8hXUrV0bc1U0hzvojiQmuTlqU0xsx2zU1u8pYnj0zPD4HpZnV1yzIOsglFbI9zNm84zpHxqWJtwLHd9kPsYT65i/QisR3CyZ3doTUKWOWE/A6xFE8dnVAJYJxEFk45GwDGyqTsI+k6JEuPcswkqBtHljPhtE6xbMJeTiRupGq2D2X3QMzX/o3EIQiGzejnWMunpC0D5MYgfBi6FDn34qBStGi+cu+Zk682RFuh2eOJ+9Ol59oxO17tFLmbCRv165rPAkdKt+38gTZH1mHOJKp9Ao7OIKlIH8uXOp0kjhC+sHOklwrUJnDIrVpyPHUJuevblz+q+LtXqnWExygy81JjPT0vmddwkTWiFbD9wd0MnGTMkN33hTWeF0Ob2EJQIz1kJqsiJg7zuhyzpbYibnD7/4Sn0/cL8w4/igL0epQ9AB6dQqYgUFwfzatxq56dv06K2COfWMurAyaNFKNpIrfDb6a6Vk43lF4D6ek+k8h4MziQo3fFff79VDVY/vZIc+/RVznBvM0U5MBPflt99TlaYtaDTHaXlK8Lv/VvuwzjtSXv/OAw9gDgsBJr/D7wUEcVfWeUfstcMd7vieIlYC8s0PM9TcNvDbR0au8T9MJz1rs73zxCQ3e+2JyW29P/qUYw12qhgD/Nbi9xXuQxB8D60xaMoq/MytbTUr6P/76BM1ozWs1zgWrlrRJcgG1bl1C/pt9gyaPPILdg2u7PFZ6qOr7VKvEPBFAl6zSPjixQdKmzCq14l95Du2aM4vwFs2lzV03LdGLm+bHfwBwWX4M8vEEcNZQbEdPTLvd2cd7kwIcF66crWaqXgYt8UsdatXjVQ8gLmOiNZ37z/IefEPqmLx2Sf68ZPHNgoMcuPXr1Etomrc3g9XvSED+1MvfsHCfI8sIOhI+ovEFDfwqVOtCk9muE91IBHDMoJnVMafK4KgZS34TkRWEKuAiarwZxXMiZEvVy7r5nCf0dHs370rdR/4oYrFgSKp0xGj8Ldspapc7iV1XA+OhVrH38UH3IHWKVgRWPzkSegs5GgPlBIoJI4kKtxg9cHEb99On6Xa4A5zR+1xdXtNnicCHNB5hNLS/b2Pwh0KFgPe7urSPC7ucAfXvl0705Cx41SGvCFjx/P6eOP8+M14wgodlDp7EpPc7LUnJraB0S0eoOk64P1wp0fGK8T5WQW/jyMGfUA93v9IWfms76K8PDEiykRmlm3rucyfO7RoxhMmdvBK7Ij5vLIuBAKZgNctEoEMM6avDaN7UCrMEpc7M+6ITutqPi4oKCz9K37cIXFN23RqPIzUmi1LKDv0vQEcyNxVTeSFuvHSKV7kOfqwd0+qx4qEFnPWGb0tqstGtV9RKV51PeiUYsQVghFczHQ88cvhTn3dHXEIrcX5/wgUXjptEs/qXZfPETYXhz4KI6xQ/jyVQlTXG9WlJ7jBnQHPA0Q/U6GfXPsfz8ekr4YT5k+xJ+jANXylps0uuPbBcgApV7KEeuZsCrj4IQ3HNmAGc8ysbRbcw/5vdVGz4pq3O1uHS8fsb8ayK1QplRffXNbMBSO2uF7MuaEFSgQYYrbpKSO/pKKFCuld7AYS9p00NvJKZLjp49/i2YTncFvhsqPvnd6HJUbuETdiDV7HvdZi/r7obVgG8XdfLe38HuE345uhg6lPl06E1LtWgVVpBs8Aj+fSVXGVO+qDVWL0J4MISoVZ8P0cyS43JYsVVZv/z955wDlRtGH8pffee5MiICBVigJSBARBsSBSFBUVURRFxQLyqVhBsdNFBASkiSC9d0SQDtJ77/0Av3nmbpbNXpJLLrlc7u55+YVsmZ2d/e9mb96Zt9jvl71cbLnZ67Bz83Rv7eWdy1Ce7IJbcuuu2PfEtBz1goypmG0/slpj0MjJB++/sT9+J8il405gljjmh29UQrjaOiM6yuA3d78a2Pnh04+UKWjkM47AFcEShCI3f8OCVSfrIYGkTiCZmrr2/82RAKidjooYkVDzUUSoUezEJgitp7qX1jTyr1OmygfKjAMyYciP0RzugnX9MNmCaQxMJVKlSikFlFkdOie+xMsPVhswoolwsztVRuAbN28IEp4VUx1ERBUKVwkHbmADUxNkUj6k7iEcpxGhCL5CTun9xZeWudPQ/p8p++c7nUW8rnfq3kNg0gRFYvHk8boslJMt/+7Qz0vpEsXjvBOC5wRhnncrB2Mou1AenB1crxdh2+krN9sh1iJ8UPCs7lORgDIrHzb4FBVWYbvj+nnF9e87eFD+3bVHhQhPL2VKlHAbPctqaBAX8KcQ7DEKXlx1fkuqGSD7wIgvp4ovbr60zZcyr/TqI7MXLdFFl0+d5PHZw4xhh5e763IIGYwIUbh2mMBdU2G9kVTPOagV0/kvqnDP9nDAd7d6RM+w31u7lnzzUZ+YDg/J/lQB5LYJSQN5EhKIBwI0bYoH6En1lM5OyNJVtzJ3I4pHXAk6QXbn6rg6j7d6MWII5SW2Nvve6o6rfeHADdeGMLQYvXTnWG2uHUoiMllDMBLqrxJh6nF+Y6bAad/tLBPMdTwnJdSsBD6Bii/cPJ0DSgw6g6HOsozrR9Sc+IicA6UBsz/4xFbii1ts2+s8zpjeIdqTvwosrh0zgbEVuxIB5d2Y6RYqEHd/G2LbVh5HAiRwi0CiVSQS6kzErVuTOJZ6fd5f27zXuLOSFZUDV4b43Yg2BYG5RCjCFOqT8b9ESSDieoS82fUFfW1I6EYhARLwnQB8U0b+NtHKqRCsqFzeWoDkm5gphomiffbi1Okzlp8KzOb8MWnzdj7uIwESiBsCiVaRiBtcrNVfAsgojQ/is5cqXlxFXskoCBeI0J0Q+Ex07/yMv9WyPAm4EMiv8gvAvIJCAiTgGwGYMSF6HOSk6rzD0d/Icx2eMItx9r1DRXX6fsRI+UrldUAI7MIqh8o5FWUQuVpM7o4HmzWxIp/FWUNYMQmQQEAEqEgEhI8Hx0QAigKcnGF6go9dEIUGkY3i0qzJfj4ukwAJkAAJRBJANLmDR4664EiTOpWa2esSkImSS4VeVuCvBkFQAYRtNkkksQ2O28+qXEnPt78VGhjbKSRAAuFHINE6W4cfav9alFicrREPHg54mIHAqBccruEngPB+d5Yvbzle+0eHpUkg+AQWrVilQ/UiOhESClJIIDETQM6G46ciB3dgQlRA5T2BSRMiG8UkMD+avXiJLla9UkWPkZliqueASli6RoUIh1JzWoUuz5o5s/JRKSLllZ8T2hNuQmfrcLsjbE84EKAiEQ53gW0gARIgARIgARIgARIggQRGwDX4dAJrPJtLAiRAAiRAAiRAAiRAAiQQPwQSrSKBPBIml0T8oOVZSYAESIAESIAESIAESCDxEki0ikTivWW8MhIgARIgARIgARIgARKIfwJUJOL/HrAFJEACJEACJEACJEACJJDgCFCRSHC3jA0mARIgARIgARIgARIggfgnEK95JC5evChnVMi3s2fPahJp06YVZKRmVur4fzDYAhIgARIgARIgARIgARLwRiBeFIkrV67IqlWrLAXC2cB8+fJJ1apVnZu5TgIkQAIkQAIkQAIkQAIkECYEQq5IYAZi9erVAmXCSPLkyQWf6yoDMiRCJS2jkAAJkAAJkAAJkAAJkAAJhC+BkCoS//33n6xZs8ZSInLmzCllypSRLCqTJhQJZEE+dOiQXL58OXyJsWUkQAIkQAIkQAIkQAIkQAISUkXiyJEjcunSJY09b968UqVKFa1AmPuQJk0aKVasmFnlNwmQAAmQAAmQAAmQAAmQQJgSCGnUpp07d2oMyZIlk3LlyrkoEWHKh80iARIgARIgARIgARIgARJwQyBkigT8H0ym6Vy5ckn69OndNIebSIAESIAESIAESIAESIAEEgKBkJk22Z2rc+TIof0hYOp0/Phx7RORMWNGyZw5sxQpUkRSpgxZsxLCPWIbSYAESIAESIAESIAESCDsCISsx253oIZp0+LFi12cqhHNCbJnzx658847JXv27GEHiw0iARIgARIgARIgARIgARKIJBAy0yb7jMTmzZu1EpEuXTopVKiQFC5c2DJ1gjM2wsOaULC8USRAAiRAAiRAAiRAAiRAAuFHIGQzEteuXXO5esw4VK9eXVKlSqW337hxQ/766y85duyYoOyOHTt0aFiXg7hCAiRAAiRAAiRAAiRAAiQQFgRCNiOROnVqlwuuUKGCpURgR4oUKXQkJ1MI/hMUEiABEiABEiABEiABEiCB8CQQMkUCOSKMZMqUSfBxChyuTTQnk2/CWYbrJEACJEACJEACJEACJEAC8U8gZIqEfUYCvhGeJG3atHoXTJ2Q6ZpCAiRAAiRAAiRAAiRAAiQQfgRCpkjYZySgJHgSu5M1w8B6osTtJEACJEACJEACJEACJBC/BEKmSGAWwpgtnT9/Xv77779oV45tJkwsZibgN0EhARIgARIgARIgARIgARIIPwIhUyRw6Qj1CkFUpn379ull+38HDhyQiIgIvcmdD4W9LJdJgARIgARIgARIgARIgATij0C8KBK43I0bN+rkc1AqoDzs379fNmzYYJEoWbKktcwFEiABEiABEiABEiABEiCB8CKQTJkTRbcxisM2YiZi/fr1bk2bzGkxc1GpUiWzGqvv06dP6+OyZcsWq+N5EAmQAAmQAAmQAAmQAAmQgGcCIUtIZ5qALNZwvMaMhDPEK5yry5YtK0WKFDHF+U0CJEACJEACJEACJEACJBCGBEI+I2FnALOmM2fOyM2bN3VeCThjJ0uWzF4k1suckYg1Oh5IAiRAAiRAAiRAAiRAAjESCPmMhL1FyC2RO3du+yYukwAJkAAJkAAJkAAJkAAJJAACIXW2TgA82EQSIAESIAESIAESIAESIAEfCFCR8AESi5AACZAACZAACZAACZAACbgSoCLhyoNrJEACJEACJEACJEACJEACPhCgIuEDJBYhARIgARIgARIgARIgARJwJRCvUZtcm8I1EiABEiABEiABEiABEiCBhEKAMxIJ5U6xnSRAAiRAAiRAAiRAAiQQRgSoSITRzWBTSIAESIAESIAESIAESCChEKAikVDuFNtJAiRAAiRAAiRAAiRAAmFEgIpEGN0MNoUESIAESIAESIAESIAEEgoBKhIJ5U6xnSRAAiRAAiRAAiRAAiQQRgQSrSJx+vRpwYdCAiRAAiRAAiRAAiRAAiQQfAKJVpEIPirWSAIkQAIkQAIkQAIkQAIkYAhQkTAk+E0CJEACJEACJEACJEACJOAzASoSPqNiQRIgARIgARIgARIgARIgAUMgpVmI6++rV6/K+fPnfT5NypQpJWvWrD6XT2wFI44dS2yXxOshARIggURBIFXu3IniOngRJEACJBAogZApEkePHpV//vnH5/ZmzJhR6tev73N5FiQBEiABEiABEiABEiABEggdgbA1bUqfPn3oKPBMJEACJEACJEACJEACJEACfhEI2YxEvnz5JHPmzF4bt23bNjkWZdJTuHBhr2W5MzgEYHIWceOGpEyeQtKmTROcShNJLQcPH3F7Jblz5pRUqUL203HbBm4kATuBaxERgk+K5MklXdq09l0+LV+9dk0irl+P9fE+nYSFSIAESIAEEh2BkPWGUqVK5dXn4ebNm3LmzBkNOHXq1JInT55EBzscL6jzGz3lr382SP48uWX22FE+NbFSw6ZyQykfLRo3lL493/DpmIRW6NiJk9L48fZumz3o84+ldrWqbvcl9Y1/b9goL7z1jsaQX/2GJw0bZCEZ9us4GTgy8hlrem89ef+1V619XAiMwJsffiyzFi6WtGnSyJqZf/hdWff3P5AFy1ZI5kwZZfnUSX4fH58H4HnDcwfp3b2bNGtwr9WcWi0ekhs3b+j1iUMHSoG8ea19XCABEiABEgicQMgUiZiaCh+Ka2pUDFKgQAFJrkbWKHFP4L///tMnifry6YTXb1wXlIcykVglefJkifXS4vS6MCp+4eIlfY7zFy66nOvKlavWvkuXr7js40pgBMzv9z+J/D37W9ut90Dsjvf3fMEsj+fNPHNXr0W4VH3WFuDj+vXE+75yuWiukAAJkEAICYSNIrF3717rsgsVKmQtc4EE4oNAzuzZZdOC2dap/5g9V9786BNrnQskQAIkQAIkQAIkkNQJhIUicenSJTlx4oS+F/CjyJIlS1K/L2F9/T991U9gipY7Z46wbicbRwIkQAIkQAIkQAIkEHcEwkKR2L9/vzKViZxSp5N13N3sYNVctWKFYFXFekiABEiABEiABEiABBIogXhXJKBAQJGAwC8C/hEU/wmcOn1GJs2YKZevXJGuT3V0qQARWcb+/oes37RFtu/aJcWLFJYqFe6Q1vc3dSnnaWXxylWybeeuaLtLFS8u99xVPdp2bBg1cbKcOHVK0ijnz+fbP+G2DDbuPXBQJqt2Q2opB+ZqcaSk7D90SGYtWCQ79uxVnz3Kv+OmFMqfTyrfUV4ebNpEO5nqRgTpP0TDWvH3Wlm8crXg3HDeTpkyhdxWtKiULF5MGt5dRwoXyB/j2VatXSdTZs6Wg0eOynE1a5cxYwbJlSOH3FGmjNSvXVNKqbo8yfkLF2T0pN9l49Ztckj5IEUo/4Uc2bNJQRVB7e4a1bTDeIYwDbMcaNsPHDosMxYslK3/7tT3O6ua6SxTsoTUr1VTalS+0xMy2bP/gCxcvkLWb9kqR44fl7Nnz0l+5aBbsnhRKVe6lDStX0+SJfPuP7N09V8qgMF6Sab+dW7XVkVDitC/v+V//S1HVZ3ZVKLNsqVuk/atH5KC6hl0J4E+r2s3bpJFK1bK6nXrte9Z6dtKSJuWLfQ1uDuffRveyb+rZ26levY2bduuHZQrlC2j3hfN1LOX3V7UWg7G8x4MblaDfFgYP3Wa/l20btbU433woRoWIQESIIEkTSDeFQmEe718+bK+CYjUhIhNFN8IwLxo+Zq18tsf02Te0mUCZ8IGdWq5HIzOfNd3esmGLdus7Tv37pPZi5bI3CXL5MrVSAd3a6ebhWlz5slU5SPglOYN7/WoSKADgg4w5J4a1VXHqaTzcL2OP+bDx47Xy3Ex04FO0ehJU6T/wCHqWq+6tAHK0ZzFS2XA0OEya8xIgV9EsKRJ245y7OTJaNVt3r5Db/vx51/kwzdfl8Z174lWBhtwbxFJB/fJncxfuly+HfaTbJg/y91u1YH8R99344RqCuHer1r7j0ycPkMpnB3khY7tza6w+Q607VBMPxrwrTgdulerzv0vEybJk48+Iq8820kpdq6vv9/+mC69v/gyGofdSrlAJxfyx6y58sk7b3lVPJes+kt+Hj9Bl4ey3q1XH9nyb+R9x0bUhyhD6OQjkpBdgvG8zlywSF7v86HcVM++kU3b/5Vpc+bKl316S92aNczmaN84///6D5Bx6ndpBMr3QqWUYNsPH38oUEqcEujzjvoC4eZsjy/r+5WyOXTMWBk8aozcVbmyPNy8mXp/1mZoZ1/gsQwJkAAJRBFw/UsaD1j27dtnnZVO1hYKrwsY3Z745wyZOO1PPVJtL+wcYX7pnd6WEoEReIzIIrLO3CVLdWfTfqynZYza2zslUCxikuaNGliKxPS5890qEui0TJ83X1eVI1tWqVmlckzV+r3/y0FDVGdhnHUcznF7ydvUqLLIv7v3CEaJryplKiLiulUmGAsYhYYUzJdXKtxeRs0+FJAUKVKoc+7WysvFS5fl1d4fyDcf9pF7Hcofjhv520RLicieNYsKaVlfjwyfUSPku/btl0UrV+p2o6xTcH9f7f0/K5INrrn6nRV1xxm5Mdas36Cv/ebNWx1N1DFbhQ+dv2y5s7oY17upTnkelVsjGBLbtptzowP/6Xc/6tXk6iY3uLu2lCxWTE6ePq3Coy6S04ofFNc0aVLLS52eNIfpb5wbgpmjqhUqSLHCBSVPrlzqmLMyVymcBxQ7dKg7de8hvw3+QZeN6b8PvvpaKxFpUqfSM1EIP4rZoU3b/nV7aKDPK55lhIJNny6d1Kt1l5r9yKKUoDWySymQiGjU78dBWvn3NKsCxRMKQ4b06fSsGZTrFWv+FigiR4+fkKde7SFzxo3S9dsvINDn3V4Xlv3l5jzel3XzrlSvITUg87f+4LfW8r7GSqloKkUZ9MMXjCxDAiSQxAnEqyJxRZnhIOwrJK1KopQ7d+4kfjs8Xz5GqGFiNF6Nmi5cvlKPWJvS6dOl1SPbrZrepzpAd5jN2rQGJhqQcmpGYGj/zyRTxox6vXO7x6Vjt9eU2c1hve7tv0cfaC74GJk+d54O/2rW3X3fpcxHciozmhOnTsuf8xfIa88/G80kBKOy6JxAkFcg2CF/9+zfLyOiRoYzZkgvn6qR5HpKkbILOlh9+n+lO/n27YEuN7ynjtxbu7Y2IXJ22jAy3umV17Vy9tO48W4VCYwqG+n//ntSrVJFs6q/z5w7J4gk5U5gDoUOMwSmYkP6fRqtGMo427VBmUCZWaRoB3jZ0PGR1pYigecPszsQ5I6xS8dHW6tOWiO9CSZa7iS2bUddMO/7bvjPulrc7x8/7St3li9nnQazLx1eflX2HTwkw1VOi4eUSVsBpegZQSe/iyqDZ91pwtO98zPSped7emYCswsrldmaNxMpUydM2yqVLyufv/e2ytVyKzfOTjXKP3ux62xTsJ7XrFkyy/Avv1CKUGT0O5gdtX+5uzZTwozUBvVOqFD2dtPEaN9gN6z/55YZFMI89/igr+CZRDhVzCJ2fPRhl+MCfd5dKlMr/nAb8L/e2qQTdeCdY5c5KjcO3p2QfCpXjl2ea99Wz85gBgu/JfxmTp05qxVNKJtVK96hZykwa5iGM+V2dFwmARIgAYtAvCoSdifrggULRuvYWK1MwgsYvYQZCj6m0w0cGFHHqGmrpo21EoERSKeMVn4KRro9+7SlRGAbRlpf6NBO3v7kc1MkqN9QCprdW19+ViPrR44dF9hsY2bDLpipMNK8YQOzGLTvb4aN0OZeqBCjz04lAtvhLzJiQH8sBlW8JVtD576amiFY+fc6Wb95q+7oOJWoo1FRzKAkwp/FKbD5b9f6QedmvY4ZKyN3e/BhqX5nJVPE+s6bO5dXnwuroGMhne3Zg7mQvXNuL4oRYDMKbN9uX45t21HHoFGj5YKKAAd5p9tLLkoEtkE56KCUng+/+kaPzkNp6vLkLdMumPx4MvvBdaHjaUyc1m7a7JMigfs06LOPo113MoTxJQAAQABJREFUiaJFBB+7BOt57fT4Y5YSgfrhp/TEgy2t3/qBI0e8KhIw8YE/iBHMpL3Z9QU9Y4WZSZgKOhWJQJ93cy7z7Q+37Go205M4lQdnuTLKTOutrl3k9ec7ywLlGzN5xiztWwIfKiTqxKfv19/JA40bKqXifjW7VdRZBddJgARIIEkTiHdFwtCnWZMhEfmNUcAuPd+VZcoswW5WhAzULZs0llZq+t2To6apCSYwkGxqhLJmlegOpo3r3SO9vuhvdbbNccH6hnkTFAkIlAa7IoHrg6kJpEjBAnKHMv8JtsBPA4JOiX1GJdjniak+jOIeOXpMTqrM7TCjgKBzBom4fl3Z8l+WjBlcR+jzqdk5KGCw84ddP5QGp7KhK3Dzn73zNEV1jJreW89lNNzNIXpTW9XZxCc+JbZtR5sx0m4EpnKY3TACMzqI3QTL7rdgypnv6+q+QJnDPTB+RKfV/TMCJ2xfBIpLTMqTqSdYz2uD2q5+Uqi/SKGC5jTKaf+WomlttC3cb8sMbTaDGxRazKYdVIoIzMBSO2acTNnYPO/mWPPtDzdzTCDfUBQRAAEfzGxNnT1HJv05U5sAnjt/Qf0GJ+tPRTWT85WaASnA2fNAcPNYEiCBREQg3hQJ5I24eDEy8222bNlUNJpIk5tExDagS7muOtpwPjRSVHW2e3XvpmzdK/k8c4PZDAg6Z+46oemUOVkOxd4+02HOF4xvjGqi3XtUZCaYRbz98otWOxDRCGYEEHcdl0DPD58HRDqCwMTDU6cn0PN4Oh7KASJljVSmVUdj6LhBmXDKfUrJwywOBDb/g0f9qk0tKpUrqxWy8mVKe3wO0NnJkyunvq8wZbnv8Q46ShA6goj2VKtaFcmSKZPzlGGxHkjb9+w/aF1D5x49rWVPC7uV6ZtT1m/eolkvUL4idgXeWc7dPXOWwTruky8SrOcVM5W4906x329EdvMm8KVyJ5hpgiIBnQwKlj3qWKDPu/N8vnJzHheMdcxwYMYFHyh3CNSA9xXkH/V8QKEsEIwTsQ4SIAESSAQE4k2RoJO196cH9utwFjWdGXTGP1AmGQ+q2YjmaprdPrLqriaMosHxEuIc7baXx8htXCkSOA9mJb5Vduun1B9f/DGuVbWKPr3dYRtlgi1QojzZRgf7XM760Knq2K27mAhN2A8HXjiuGltrRNOCwzUEszNOeeKhVnJR1TNi3G+Cewl+s5QzND4QOHEj6pPTdwL7YOb2Xd8P5PMfBmrzKXDYuHW7/mB/ihTJdcjbt1/qos1esC1cJLZtv6AGJeA3AoHSjJm7mMSZUBF28m/1/cSaNcLxmTNl1DNa+D3iPsHhGuLunukdjv8K5L3lF+HY5bIarOcVUe+c0ahcTqRWzOyMczvW8ZwaPyrn/kw2vxbM1hhFIhjPu/NcvnJzHhesdfzmEAgCM3rGz8zUnUw9XxQSIAESIIFIAvGiSFy7dk0OH4508oWJB3NHRH8cMYI+89eRMmHanzIJ/hFqVHu3MlXqP2iofDV4mNRUHfJWTRrpcIWwgXYKbOuNImI61M4yWL985aq7zUHbdr/yfYAiAYF5ExQJ5LVAFBxI+TKltGmTXgnif5lspkIXVSSaUApCSholAiPscDSHWZfdufm9z/ppvxdP7UJnGPk32imFAs8AHNNXqFC/xgcAHdpnX39Lpvw0xC0/RKaCwywiNP05b4E+3uQCgf03Qp3CfOejt3pYTcCs0RyHA7C108vC6+r64HMTLIlN2zG7BgUJ11ZczUCBiz9yUflWIPQrRtvBHuFh4StgH8nHKHyDR9v6U61S4tP7VD4+n1d7AxFCGrMjqVJF/9MAtkbs7Q3G827qNd++cjPlg/GN9yRmgeF8jfDKJooX6oZC2aIR/CSaxcqPKBjtYx0kQAIkEI4Eov+1CEErDxw4cGu0WCXHimkELQRNCstTIMoLnIRffLKDdgBExKZFK1ZpdnD6xAd/cJvUr6eUisYuzqVgihFw5DI4qSIneRKMjMelYNQS4U8xqodOau/ur+joU6ZDHBdO1rgemCdgBPX8hYtqFDnmyFT+MEBiN29iZg3Q+Rj4WV+3I7y+RMvCOTCbZMwsriilDwx/GDFSm4vBvGbs71PljS7Pe2wOzJmMszYS8Y2d8od2lsUBU2bOkp5qVsLMWMGMw+4A77FSx45nlHNvMBUJU70/bceARCH1LsHMHUK9+iuIEmTyjCAIwdPqmpyyP8jPkb3+uHxe7efxZfnUmdNu76f9XWH3ZQnm8+5L+4JdBmGgMfMAvwhEmbMLIzfZaXCZBEiABKITiBdF4uDBW7bMdLKOflOcWzBCiohD+MCkAE6AJocE4r5jdBkfOC0/166tdsZGHfhjD0Virwp3efzkqWghLberhGzoaMe1wHQJigTOhRC2prOK64IjcFwJeMCkZ5fKVbJtx063ibR8PTeyERtBmFR3EaDMfmQvhhTKn9+tEgGzic3bIx3BzTG+fKdNm0abiuVX5jLtX3pVH4JMzL4Ksmq/062r7Ny7V5s8YfQdmcVNhB48LwgT7K+kVzkH4lpiajvOD4diKBII47l9126/Ro7NPUM9hgeW7bJC5RyJSwnm8xpIO5Eoz2luiNH6f1SkKghmf+wzNYZdsJ/3QK7Bl2ORX2PA4KE6R4a9PIJTIKDFI2r2gbkk7GS4TAIkQALRCcSLInH33XdHbwm3+EQAvhEween8xOM6gdL4qdNVErHIrNboFCLRHP4IQurWvEs7B6ITMGHadHlejbTaZfTkKfbVOFtuqmZMPvn2Bz2TAoVnxdpIx8W7VCSpYGaTdl4ATBGgSKDD/MXAwTorr7vZr3XKqbnMbbepXCbRTcRMnXYH1L+Uw6k3yaVmgi5eOihbtiOJ1/Foo7s/jvzF8o/wVA/MaBCO1Z3YtxufC3s5+AqkU+Zu7kzeUA4RoYwgMZuRx1s9IPjEp8S27WjzA40b6RwrWP5KmQB+9/EHLuZk2G4Eo9BQnDKqkLQQe94I/J6cYWARlnbkhMgIZKaOYH8H83kNpG0IEoAEiFD0jSBRoQkaUE+9V+wSjOfdXl+olpELBIn2IMoFhtmtQwWe5yEBEkhUBG79pUhUl5X4LwZ/5GtXq6pCEfaSeePHSPfnnrGcH83Vo1MIXwkIEnUh/jucUhEt6dvhI1RiqemmqMfv8xcu6Agt6NiaDzrmEDgDm23mG3b3ToHZRq2qlfVmZAY2TuBxZdZkzo/rL1msqF5FGF2M4iMSEkyEkKRrs+pE9On3lbR76RWdvdgc5+4bzs2lihfTuxBbvl3XV7QzpsmIi1kGI2WjRvXhKP+/L7/WGcShzMGhFucbMW6CKerx+4Enn5YnunbTJhfIRo3j0clGyFxkrTZSp3o1s2h9w0yjbuvHdPx7RJmBGRmOx/V+/9NI+X3mbF0WCkmJIkWs48JhIZC2N6lfV2fwxnXgOYPDO5RERCmCczQUbThUIyldq6eeFSSFM3J7yVszMZgxGzP5d2Xmcko/K5hFa/P8izEqf6au2H4H83mNbRtwHPxxevb9VD+v8Geat2SZXjd1dnr8UbOov4PxvLtUGMIVJLB79ok2MmPUzzpxI54hd/4hIWwST0UCJEACCYpAvMxIJChCCaCxCOEKm+5ObR7V0X1Mk2Gj3/25Z+WjAd/o6E8fDfhWLX9rdksq5UdxQ3Uw0cn0JH2/+d7qeDrLwCERH7sM+vwTpeBERmayb4ephD2cLUbCG95d214k6Muwm4czcbf3+sjhY8e0eRUUgNgIFLceXZ6TLm+9q3M/QCEx4VlR3/cff2iNYnft9KTMU1xgc79g2Qr9MY7AKIv7AqUECok3Wbdxs+oIR5qT4F5dv3HdJaLQHbeXluYN73VbBczIRqmEhPhA4Lxvdx7FCOybLz7vccTebaUh2hhI25EY7aV3einzrX3K0XyjUsZe0aPNRvn1dAkIEQxHWsyYIZoWktbhd5NM/TOR0/C8zokKEuCpnkC2B/N5DaQd2bNmkT/mzNMfZz1tWrZQoYRvKV3YH6zn3XmuuF5/qs0j0u2Zp6ycLnF9PtZPAiRAAomRAGckEtFdRVQgKBV2wSjnl+/30p1X+3bYOPd7/13LERcdXXeSwmbe4G6/c5unehrUqS1pbdGl6it/D18TdTnP4c867N2n/DRYHmnRTJn63DLjMXWAAxQwdJ5iEkScGvXdAKlTvaoyyXLlbL9u2LoP/uITuc2WuRgRb9B5Rybtof0+0/kczPmSJ09hFq3vVk3u0yFezQY4VpvOMGzUn3rsEZUx+RO35kuIwV+zSmUVajaVOdxFiUCkrIEq23LjuvdY+8NlIdC2g/1vQ37UirWZjTPczDViluqFju2kWKFCZpP+7qkyHD/52MM6+hM24DgoETB/QqK+j3q+oe8h9tnvN9btYv/NuLu39rLO5dg+r6Y99nPb67abKblrU4qoZxDJG4d88Wm08Ln47bza+Wl579WX7dXq5WA876jI3nZ3bYx24gA3ZMuShUpEgAx5OAmQAAkkUzHFowxVEheM01GRW5DsLiFKhBpBD6bgNiN8LJxQER6zpBoRt4cjDea5wrUuzLwgbCpMWm7cvKGj/BRTHfu4SlaH84E5Ep+h849kcJiN8EdgMoZMwnCWh8lFgbx5tQkb8i3EJDBLwflh3w8TNeRNgKM26gh3CUbb8cxjJmrH7r06e3jeXDmlgIrsZPeHcMcBJmQ7lA8FmJcsXlT9Xgq7+Au4OyYutoX6eXVew/5Dh1RCtn9V0IB8UrpE8Rij6wXjeXe2IVzXU9n8jMK1jWwXCZAACYSCABWJUFCOxTmCrUjEogk8hARIgARIwA0BKhJuoHATCZBAkiSQaH0kEupMRJJ8CnnRJEACJEACJEACJEACCY6Ae8P4BHcZbDAJkAAJkAAJkAAJkAAJkEAoCVCRCCVtnosESIAESIAESIAESIAEEgkBKhKJ5EbyMkiABEiABEiABEiABEgglAQSrbN1KCHyXCRAAiRAAiRAAiRAAiSQ1AhwRiKp3XFeLwmQAAmQAAmQAAmQAAkEgUCiVSSQR8LkkggCJ1ZBAiRAAiRAAiRAAiRAAiRgI5BoFQnbNXKRBEiABEiABEiABEiABEggyASoSAQZKKsjARIgARIgARIgARIggaRAgIpEUrjLvEYSIAESIAESIAESIAESCDKBeMls/d9//8mJEyfkwoULcvHiRUmZMqWkT59ekI06U6ZMQb7EhFldxLFjCbPhbDUJkAAJkAAJkAAJJHECqXLnThIEQq5InDp1SjZs2CDnzp1zC7hgwYJSrlw5SZ06tdv93EgCJEACJEACJEACJEACJBD/BEJq2nT+/HlZuXKlpUSkSpVKsmfPLlmyZJFkyZJpGgcOHJC///47/smwBSRAAiRAAiRAAiRAAiRAAh4JhHRGYtu2bXL9+nXdmLx588qdd96pzZqwATMUK1askKtXr8rx48fl8OHDki9fPo8N5w4SIAESIIHEQeDg4SNuLyR3zpySKlVI/0y5bUdcbbwWESH4pEieXNKlTRtXp/FYb1xyx9/yiBs3JGXyFJI2bRqPbeAOEvCVwIVLl3TRdGnSSIoUKXw9jOXimEBI39Dwi4Bg9qFixYqWEoFtmTNnllKlSmmzJ6wjBwQVCZAIvlRq2FRuqBd8i8YNpW/PN4J/AtZIArEk8MJb78jfGzbqo3t37ybNGtxr1VSrxUNy4+YNvT5x6EApoAYjKJEEEjK3YydOSuPH27u9lYM+/1hqV6vqdl9i2Pjmhx/LrIWLJa3qGK2Z+UdILymuuXd+o6f89c8GyZ8nt8weOyqk1xaXJ8P7Cb83SP48eWTSsEHW6Yb9Ok4Gjoy81qb31pP3X3vV2uduYd2mzbJj9x7Ze+CgHmTNnSunFMqfT2rcWUkyZczo7pAku23Hnj3S8sln9fW/9vyz0qnNo36xSMjvSL8uNB4Kh0yRuHnzpkSokRcI/B/c+UDAxMnIpSjN06zzO3gErt+4LsrfXSsTwas1fGs6ofxyho4ZpxvY6J46UvmO8iFrbHyeO2QXGcQTXbh4SfCBXL0W+b4w1Z9VppFGrl+PVCjMuvM7IXOPTduDxc3JMRTryZNHmrWG4lzhdg68hyH/qX+hlrjmjqAqEHONob6+uDofZpDMO+r8hYsup7ly5aq179LlKy777Cvbd+6Svt98L6vX/WPfbC2nSJFcqlasIMP6f25tS+oL9ufIPFv+MEnI70h/rjM+yoZMkUiupm7TqFEXTHdiNNydXLt2zdqcLl06a5kLJBAIgeMnT8nP4yfoKvKqEZ9QKhLxee5AmCX0YxMy94Tc9tg8NzmVn9ymBbOtQ/+YPVfe/OgTa50LcUOA3OOGa0y17t63X57o2k2MopFcWWjkyplDUipTncNHj8lN1WO+ceOmrPx7XUxVcT8JhAWBkCkSuFr4Rezdu1dP4eG7SJEiFgRomLt27bLWUZYSNwR++qqfYIYot3p5UUiABEiABEiABEJD4I0P+1pKxP0N75XXnntG8uTKpU+OgdZ/Nm9RM+hjZcmqv0LTIJ6FBAIkEFJFonTp0jp3xMmTJ2X9+vWye/du7Qdx5coVOXLkiJgZCSgYOXKwkxvgvfV4OKZMKSRAAiRAAiRAAqEjgBmHzdt36BNWqVBePnn7TYG1hhFYbVRX/hH4YOaCQgIJgUBIFQn8SGrVqqUViI0bNwrCweJjxDhhFypUyGzit48ETp0+I5NmzJTLSinr+lRHl6MWr1wl25RNplNKFS8u99xV3bnZWj999qxlElT3rhpSomgRmblgkaxSdp1b/90hBfLllaoV7pAnH3vEbQSFKTNmyR4VzjdjhgzylCozZeZsNV27Vr1I/5XCBQtIxbK3y8PNm0k2m2+MOfkZFcVrzKQpehXOlhVUWafMXbJUYGuaXEUFea59W5fd3w3/WeALAoFToZEFy1cI6rZL4QIF5MGm99k3BbQcyLn3HzokE6fP0OevotjWqV7NY1vmL10u67ds0fsfbdFc8imnRkgg3HUFUf8dOHRYZixYqO71ToGjW1YVEKFMyRJSv1ZNqVH5TnvRsFgOhLv9AjA7OmP+QjUyuFm27tglp8+ckZLFisntpW6Tx1q2kIwqeaZT5ixeIpu2bdebG95dR8qVLuUsotfH/f6HHI5KNvlQsybKsTK/3h6strs9aRxvPKqi7P06Zao+C64djsPT5syT1f+sV34u16TC7aXVe+Yur++aQJu4Z/8BWah+2+u3bJUjqj1nz56T/GpWu2TxovpeNK1fzwox7u1c+P3NUu+4HXv26mceJiZwfoU55INNm0jmTO4dYGPzzLhrx9qNm2TRipXKdn69HlgrfVsJaaOeOU/Pk6ljyarVsnT1GvWe36me17NSROVjKnNbcWnRqKF+T5tywf7G/R2rnun1m7bIdmVRULxIYcF7q/X9TX0+VSDvmaWr/1IO3eslmfrXuV1bibgeoduz/K+/Bc9ltqxZpaz63bZv/ZAUVPcxvgXO1UbwbrcrEWa7+S5W2Hs/KLbcMOuxQv0dXrxyteB5x9/HlClTyG1Fi6rfSzHBb7hwgcj3kmmL8zsY3GP7WzNtOa8SGvvTHzHH+fs9fuo0OXT0qLRu1jQsniF/2x+K8iFVJHBB27dvl3///dftteFljBCxyHLNGQm3iFw2wjxp+Zq18tsf02Te0mXKZOyGNKhTy6UMVvBHfaqyO3ZKczWt6k2ROHHqtAz6ZYw+DKHWPvt+oJ52NfXs3LtP/dFbJYvVFOyw/p9FeylOmQXFYZ1kz5pF8IfedJBxPI5FR3jCtD/lx08/kqIO5RF24t8qZQACx3x3isSfcxfIn/MXqA6CRFMkflSRM8DHKavW/iP42KWamqEJpiIRyLkRqeOnsb/pkJAliiz1qEjgt/LJt9/LARU2E2Ejn2nbxrqkQLibSiYrpfSjAd9aU/BmOzqHv0yYJE8++oi88mwnl8hrpkx8fQfC3bQZz93bH38qy1RHxC7oWOJZwx+V/u+/pzonJe27pZAKVf3GB321g/jUWXMFUaWcnc5ZCxdJn/4D9HEVbi8jLz7ZwaojGG23KgvxAp5B857A4AP+uJ87f8FqBRSsMZOnyvPtn5CunTr61KG3DvZh4bc/pkvvL76MVnK3euegwwP5Q92TT955K9o9MQfh9zRaDVz0HzhErqiOll0wCDNn8VIZMHS4zBozUuBbYJfYPjP2OrAMbq/3+VDbyJt9m9Sgy7Q5c+XLPr2lbs0aZrP1DcffT7/9wVLkzI7tu3bL7EWLZfjY8fLRmz2koQoyEWxBUICu7/SSDVu2WVXjvT570RKZu2SZ4njN2u5pIdD3DMx/jP8blJduvfrIFjXIZQTPAKIsQTHDbzK+xe5Ub+fmb7sC4dakbUc5pqxCnGJmSn78+Rf58M3XpXHde5xFrPVAuAfyWzMNwIDpc2+87Vd/xBzr7/d+NaAGU7PBo8bIXZUr68HPBnVqJ+qw1P4yCqkisUWNnu7YEfkjz5Qpk85gjUhNyC2BvBFQIi5fvqzzSWDmIlu2bP5eT5IojxGEiX/OkImqE37wyFGXa87gZrQUo2lw4DICxcJf+WHEL/qQ8mVKSeXy5eXE6dN61BaddUSewB9BhLtzJ6fUCBmUiIwZ0kuje+7WigVGz7bu2KlGRA5Lp1d7yMwxvwT1h4lRPJOz5KRqK/6wQe5Qo6O333abSzOLqVG0YEog58aof8O7a8v0eQu0srVBjbDeoTqdTlmzfoNWIrC9Sf264u6+x5Y7/jB/+t2P+pRwBGyg2oMReXBEZ/i0Gu1FByVNmtTyUqcndTn8N1uFsZy/bLm17utCt2c7SZ6cOX0t7rFcINxR6UUVKe6x57rI0agZLIxEo/OWMX0GWbtpk1aK8bw+/dobMv2Xn1xm0jBy/FbXLlpRwIzDe599IQM+eN9qK0a0en3eX69Dwej3/rsuSligbbdOFM8L46dO1y3AbGO1ShX1qDA6luicQ1nKmSO7PN7qgaC2Ep1pCEZVq1aoIMUKF9Q251Bq5ioFAIrOQjXK36l7D/lt8A9uz/3loCFWZDcUqFmlstxe8jY9SPHv7j2CEe6rqmMcERE5y2kqCeSZMXXgG3UjFGx6FWSkXq271Eh6Fj3DsEt1zBG9rN+Pg/Sgj0ncao794odBlhKRIX06NZBUW3Ips2Aobxh1RqQadK5Hf/+1ngE2xwXj+6V3eltKBH4rmKnEvcBMsadoRPbzxvY9Y6/DvvzBV19rJSJN6lR6ZB3hofG727Tt1sBlfL+jihe+9bcGlgLrN29xO0hmvy7ncqDcMGsDKagsCjCggRl5DBT+q0zNoTBfvHRZXu39gXzzYR+5183ApLM9vnC3HxPb35q9jkD6I/Z6fFk2f1vRhVq+5m/9weBoy/saK6WiabRBUF/qTGxlQqZIwA/COFNjhLl2bWh0qTRPrJcoUUJHdVq7dq0eSd66davUrFkzsfGO9fWgw44Xz3g1+rZw+UqX0fb06dLq0YNWyjwHpkZOefSB5oKPkelz58UqJF/HR1tLjxees0YUEUoVLxwIRkg8KRLYj87T8C+/UNPtJbAqLz/9lLzS+396VgIdt6mz5whMPYIl73TralWFESqjSMDEoeOjD1v74mIh0HO3VuZeUCQgk/6c6VaRgJmYEW9mBP5yh4kczGwgUPx+/LSv3Fm+nDmVvNCxvXR4+VXZd/CQDFcx0x9S5h4wcYNs2LpNm69ZhX1c6PhIa0uRGPC/3to8D4fmzO46kDBHxaI3s0zGjMt+ikC5Y1TdKBEPNG6oYsC/ot9J5hxQntBxw2j7gCHDosWIx28Ms12YucAf5DGTf9edZkSp66FmK0yoSIz2If68XQJteyDc7O0IxnJr9Tvu06O79Z5o3Xy9PNfjLd0h/kkxfExx8mbS4W8b0GHsop5L8M+lFBW7dO/8jHTp+Z6emcB7AKaVTrO8Pfv3y4ioqG545j9VMxf1VKfYLujQ9+n/VTQTzkCfGfs5smbJrN+RxqQFJijtX+6ulQKM9GNQwT4ziwElzEZDsqiBuSH9PnWZKRsy+lf5ctBQvR+/aeTkCJZASYEZGaScmp0bqmakTd6Dzu0el47dXtODRJ7OF8h7xlOdMNWpVL6sfP7e2y6/r51qNnG2Mj2EBOMdhb+xmJmCmD6MXlH/4W9ky/sa6dWMGTOYzdZ3yWJFlQlREW06F6EGUJ94sZvcVeVOqV+7lg73iv1OZdE6WC0Egxtmp+5V/a+7a1SLdi7MOHd65XU98PjTuPE+KRK+cDfXEMhvzdRhvv3tj8T2HQmzaQwooY+DiHIYSMMgHf4e4FO14h16lgIzOGlUXzYpyi0vnzi++lNqGtR0AgooDdj5A8TpCyq7TpNfAuUxBZbUBSMq3w4fIQ0fe0L/QYQ5EDjCnAcmOR+99bosnDhOfffQ695eQoGwzJEtq3R7ppPLiwc/HIxqQDxlSDXnxIirUSKwLWXKlPLWiy/o68A6zAookQSQjMhwnT5vvrYzt7NBrPKZyncBgk6HvaNvL4dlf7kPGjVaTPbQd7q9FK1udNQ6qI4/BCOldoUmb+5cUkrZ2Pr7sYd6zq6eMygm+MCnyi5QHsy+YHZEcQ7MthgTCdh5oyPsPH+Hhx+S3FFBICb/Ocua8bK3sU+PV5V9egG96fPvf9Q+PN//NFLWbYy0jUYdGDUOtsQXN+d1YJbqjRefd3lP4D11n1LgIXp2QA2EBFPwR/7FpzpEUyJwDrxn7P5Ta2026qYN3wwboc1CsY4ZNqcSge14JkYM6O8S6S5Yzwzqh3R6/DH9e45cE/38PfFgS7MqB1RAErvAzM7kWnnioVYuSgTKwdyxWKGC+hCYeKETFywZPXGyVVW3Z5+2lAhsRASiFzq0s/a7WwjkPeOuPmzDbO6gzz52USKwHb59MKuDBOMdhWfKvIeckQ8xem32QblzCkb+8bfa7IOlAMwoYUb6YKfO+u98vx8H64Ea57FYDwY3JMmDSbO7vgJ+q9XurKhPvX7zVqvP5q4tZpsv3E3Z2P7WzPHmOzb9kUDekei7YMZ5wYSxaqa5t1L8aqpBhcjuM5IuvvXRp1Kv9WPy8TffqZmdPaaZSeY7ZDMSMFkyYu84mG3mG/sQvQmdZcxieCtrjkmM3xjF7NLzXVm2eo2LWRKyhLZs0lhaqWm1UDqP1VaOYe60bThNo3PgzubSfl/sGYrNdrQfToQbt26XXfv2mc1J/hsveMwyDBgyXI9iz1WjaXZ+sxcv1tPPAOVtNgL77cdhHeKNO0Y9jeBlvWrtrVjmRrG3myHZ7ZHbqk4PPglR4FRtTGTgaLhOOb0aMdeNdZjGYXYLo4nwm7Arx9iPjkS/3u9K2y4v604ezKDOqBEsCMwCuz8XmZlVb0iE/91TQ5mCqeAKTsFM4O9Rs2i7VOhv/CGOC4E549ETJ+TIseOWjT6c5Y3ACdspxkkeHSL7zK2znHM9WM+MqbeBGpV2SpEoRQDbj0eZ3JkydsXggfsams0u3y0aN5KvlW8HZPe+A0Ezw9i1L1IpyaZmUWqqEXWnNK53j/T6or+loDn3B/KecdZl1jHAYcxQzDbndzi8o8qXKa2yYQ/UPoB/zltgzcCirXhukR0bA2vvvfqStGpyn8slBJsbknweUZGkTqrfiBm3hbIDwTvukuq3ufs92xvlC3dTPra/NXO8+Q60P2Lq8fcbSiSc0fHB7BAsKWA1AOUBM9W/TJisPzDt/ErNrhfIHRkAxd/zJLTyIVMk7DMQUBA8iX1fsEcdPZ0zHLdfV4qEPY50UdVh79W9mw4L524kIa6vIV9UnGvnebJkjBx1uewliyeOgTOqOymotkORgI0wpgthe0gRHSEGM1GIGoMXlV0hwGg4BDbhLVVHwZv4y33P/oNWdZ179LSWPS3sDuIop6dzhGL7XhVdzMiCZSsEn5gE4RmdigSOgW39m11fkA++/Fo/09iWSZk59O/9XlD9gFBvuAls5d2JmWHDPhO1yl252G6DrfngUb+q+6ZmbE2PyE1l6BzZBT4Pxs8Ms3upo8xt7WU8LQfzmcEMcx6VLNMpZuQa2+FgahfTbvgxwbzLnRQqcOt+HHTMaLgr7+s2zJRDMEvo7u80AkDkUD6OR4+fcFtlXLxn0EFPKIJZmw/eeE16vtRFD9asWb9Rm9+Z6IrwKXrnky+kaMGCylzrlmlpMLhBOUCkrZHKnM+Ycnri5vy9uCvnK/dAfmvO8wbaH3HWF5t1zHDATBofKEgI1ACTPwhygWAAI3JuOja1J6xjQqZIZFajPUYOHjwopUqVimbehFwSsAuFIHKT07TAHJ8UvqEs4A+E+aO458BB+eCrb+RBNRvRvHFDy6Y8VCwyKNthb2KPRuEsh3CQadO6mqmYMvbRDoTroyIRSQYmRHXvuktH41qhInNhpArT8ohDbmYJ6tW8S/Ay8yT+cr9w8aIVGhedA8x+xSTOqf2Yyofr/v3K58MInkE4vcYk7mbozDGPtrhfvv/pZ2UyFTkaHtdhOM154/vb0/OI0X4jRzx0Ls1+f79ht/xW30+sEVUcD98gnBPvUczuYtYUgmW7oENsTG7d+d3YyzqXg/nMwKQXo53exD4zhnIIcwvJqgKWuOvMY18OFf7UiKdOvdnv6zdGXjHwA7G/v53HY0bT3Tnj6j1TIK+r35GzPeG4HulcX1Ob0732/LM6d8R7n/UThAGGIFIYfAshweAGJaJjt+5WLgvUiwEpRCIz7zNE44LDNcT5e9EbHf/5yj2Q35rjlBJIf8RZVyDr+C3A/Bgh143PkKkvmS0/iNmWWL+9v7mCeNVQJBCpCXkjoCwsX75cypcvL1nViw4PK5SITSoyipH8UfHVzXpS+8bI2MxfR+rwqJNUxCOMHGAEtP+gofLV4GFSs2oVNe3ZSNtbh7vCBZMR/LF298fO/BHH/cUolj9y46Zrp8CfYxNCWUSEQFhfKJOTZ87Sdr6/z5pjKZcPqbjW3sRf7uAPu0/MghRXo7NTfhrirfpo+xC5C/kU/JXX1R9Qk9nV32ODVd7eIXrv1Ze9hj705ZzfKrt7o0SgPEKUIsSwM2ysL3UlpDL2GWV7u43ZGLb5+zu31+NcRtQkhH7FJATeLwhJjNw09pF8KOENHm3rPFSvZ7KZYV1UEY78kWA/M/6cG2WNGc+Vq64zFfZ67KFsEZQjGIJ6zCCX/f3trPuy8uVyJ4G+Z9zViW1wlI9Jwv0dhVmx919/RVo+GWkCiZxLRoLBDWFMTZhXmN9AeUFUR7uVAxQZe6h2c35P375wx7GB/NY8nTs+tuOZh7UInK/hs2p/t2EAA4NGeAfBVzCpSMgUCbzkK1euLIuVfTduxFkVmm/p0qVuOUO5QBbspC6I7ALnP8SbR5IiRGxC3gbwg/McPvgRN1H2x63UTIU3p9v4ZIn2wk7c3WjlSZWrwkg+NeJuJGWUnSbWPU2vIn57Ypa7a1RXM085tBI5WZk3PdeurXJujjRrwnZE3fAm/nKHbSxMoTD7BUdSfwXTu9Pnzvf3MHlGOZnGtyKBkKFGkD8lEMHvEk6REMzqwH8If2xeVVHKJgz50esobiDnDYdjPbGzP0/5/LAbjlDcvAkixpjOMhx8n1bPklP2q9DingTvJJidIaLWAS/l3B0fzGfGXf0xbcOzhWhSl5RZKUaa3c2i2d+RSNDnq3jjjpkTjGDjuba/v511Y2TbnQT6nnFXp6/bEsI7Conh4NyPe4vwvRj1Rgc1GNxmqRDdENQ38LO+Lk7yhiFCXMeFBPJbi4v2+Fsn/CAw8wC/COd7LqlHbgqZIoGbhlmJevXqyWaVMRYzEE7BC+q2226T4irjsrvRa2f5pLIOFogkgg8cCWEzb3JI4EWD0U58EC0GnU04Y4ebIKzcfcoBzy5wjDSZmWFOYp9ZyWIzhTjhJnkOZrHsNsr2ep3LZsoW28ErlBLIuXHfkU0X8fdNUpy9qpMPgROeL78Rf7nDuROKBELcIamVP6MqMA1BKEh/Jb2Kfx9s8Zc7MgEbQQjX2DqN4/f51keRZjYYuR3S7zM9q4SwsTCveffTfsoJr5c5ldtvf9vutpJ42ugpfwDynhiJyYQI2YiNIFynuyhKZj/MIY14yv68wpFc0JQ333hvmoAP23bsFOQE8UWC9cz4ci53ZewhhGHu6I7TSluwhPwxmP74wx33EIrEXmUSCGXFGXZ3u0riZ8Idu2t7IO8Zd/X5ui2c3lHe2mwG0hAFzT7iHyg383sppCw+TLheezugtGxWSYPjSmL7W4ur9vhSL3JeDRg8VJAc0i4INIC+1iNq9sGZUNdeLiksh1SRANAMaiq5WrVqKrFPhFxUNtmX1NQ0NG1sh1+EL52jpHBjPF0jIuYglF3nJx7XiVGQAGr+ssis1uhkIhlQOCoSY3+fqsxF7naZQp21aLHusOJa66ioUHbBjzSVUiwxG4HweLAPtk+/TlMj33DO9kXgW2Bk87+uLwOzPa6+Az33Q/c3kYG/jNKmGyYmvDL79jnnhr/cH1DO28hTAvlKmdF99/EHLtztnDBCgz/MGdXvFoJEY8FONmY/nz/L/nKHgzSUJihPc9SsqbdEUTDNRNQaHGMXKLc9/veR9Vy++8rLWrl/8tGHZYVKZITpcGQbHqVCZyJcpyfxt+2e6omP7ch3AOUVYSSNgIsxlYBJTC1llulN7A7bf6m6vIm9A4v3oDP7M3ItjJww0VsV2hQBioR6xcgXAwfLDx9/6NZfAZG8yqiBLuPvFYxnxmvDYtgJjuOmTtOl8EzVVT5T9ncklNo5i5bo/TD1Kut4Xp3V+8Md54JDKWY9J0ybLs+r2SC7jJ7sPZx3IO8Z+3n8XY7vdxSUrq9Up/TZJ9p47Hyi47pDvVshmJ2w94kC5ZZLzSRdvHRQtqhOMZQK50zwjyN/sfwjdAOC/B/MfmLzWwtyM/yqDrlnjBKBv73Mbh0dX8jySDhPjShOMGGCL0QeZcKTMWNGlx+MszzXXQng5VK7WlU9ujlv/BgVVvIZlaEyv2shtXb+wgXtqAs7YfPBH0zIRTUdbraZb5MNOrJE8P5f+fc6NRr7hT4fOmLIMNrrs/76BPhxPt3W1SQBfxBNtAooSIiAg5fwmXPntN9In35f+dw4TPkbh7CFy1fo6ArooOzYs0eQrAjXHlcS6LkRjQVZdu1StWJFn0P/+ssdWbKrR8URRzZgOOahA4WIMZGzQAd1Uh4kpWv11LOan71t4bLsL3f8nt7uFpnEEL+Pp17tIUieBgdBKLEYqVunchB8pnJD1Hu4jZXoy369Xw/9SRB9BdK84b1WYio8yx/3fNNKsPf59wPVH9Nt9kNdlv1tu8vBYbDyynt9lNK0WptzIb8MTLpMbPVGajDB5Nnw1FREeDIzYYjR3q7rK9qh0WSVxb0wcnvJWzNgMKtDEkCY1CDXChJ4tnn+xRg7RuhclixWVFeJcNvtX3pVO7uiDryrYKeO9027l15RAx+3Bi+C8cyY64jNNxKLGU4YbOnZ91OdzwfvcDjrdlDXYey3EVnG+FR4Opc/3MHM+Fwg2R3ClcIZGIM7iDZnMpx7Oldiec94uj5P22GCNlmZx7To8LQedEByWMyC4e8afiNg+WrvPpYf3P0N6rtUFSg346MFv7v/qb+pmEGEMoj3HJ7xEeMmuJwv2Cux/a0Fux3+1ofkqFD+Zoz6WSd+xH1IlSrk4/D+Njtk5ZOpP5JR3cqQnTMkJzodZeOdTYWgS4gSceyY383GrTylQo4h7J6Rnh9/ZsVvN9u8fQ/6/BOloESOGOLFhs4iBIqKO/vj1/t8pDP5QhnYOH+2S9WduvdQmWTX6W2wybR3AOwF2z/8oE72Yt+GZYRyfPFt92YgmLHIq2ytkcfA3bmddcGuEUlj3AlGT38a0M/drqBsC/TccBDs/v4HVlv6qoRG3madAuUOxe2ld3oJRpeNgLG7N8Xo778WOO2Fo8SG+w8jRsr3I37Rf1y9XROUeHumYPguden5jmaEkV34Qjg7bsv+WiOdVYZncIRiizLuzAtw3ti03Vt743IfzJY6qAzMEDOL6O58iOKDpG4mc7O7MmYbWHV56123/lHfqxkD+8wDnK1h2mkEz2oy9c9EvGt4d22daRz7EU2r92uvmKLWN2znuykFKKbQtMiu7jTNiu0zg5O/0ut/epYKJix/z4ycXbAapRYQYKN5h056U1eVdA+Z5e2C0dKX3u3tVVnCzMkI9X5zPo/2esyyP9yhtH004Bu37wU8BzdUBxWdVPjEzBk3ypzC+g7Ge+bT7360EkkunDhW+25YJwjDBVxzs3ZP+tSyWlUrq3fMJy6zTDgwEG449qGnn7P8ilCfCbCBZfydhnIKBR7iiWkg3GP7Wwu0P6IvKBb/YfAgsxrohuWMv5LKD38wf+sOp/LxNiMRThASS1sw8mlXInBdKdRIqz9isjXiGJghGPFUT/Ko7I726VdzjPnOrmaekHHUZAU22/HHs8cLnd0qESgDm9931CgxwtPZBdlaf/y0r3ZIw3Zv5zbHYUr11x++kfvVSDHCQtqPMddgygb7O9Bz27NoYhQQyZ58kdhyx4jxb6qTC8XRjDo6lQiM4L7QsZ3KnFvIl6bES5nYcEdHbfR3A7TZku3xt9oPHvD16fDIQ9Y2ZALHaDAY4VlFQjp3nTaYonRqEznzhhwAfb/+zqrDuRCbtjvriI91ZLVGdCr7ewTtgP/C2B+/80mJQHmwGqXuQ53qVa2ZHGyHOOvuqTLOPvnYw9Z23AcoETC5g6/LRz3f0IMN7o7VFar/0L4pPw2WR1o0U75aqc1m6xumQZ3aPOo2PHVsnhlTsbkWj+9X2/s7eXLX9yDqqFH5Thk/6Aed7NDUab7RmccIMJR9d8+jKWf/9oc76v7y/V6682mvA6z6vf+uVKlwh95srtFeBsvBeM/Yubnj4zxnfK/nVblCkDuiWqWKLn+D7O2CuR7+7n3/8UfRlAiUC4Qbjh38xSfKZKqIdUpE6cO7Dg7eQ5VP1x1lylj7PDENhHtsf2vB6o9YF+fjQjYVXjk2SoSP1SeKYpyRCNPbGJsZiXC7FDMyjg7t4snjdfMwIoJZBJhhlS5R3KcfKMyztirnvTNq2rxiubKSWHIX+Hq/4EgJUxsIMln/r0fk6K+n44PFHfVjlgujtDt279WRYfCHsICK7GS3TffUjoS+HeZcMH3bd+iQHpGC70LhAgX8SlqW0Bn40n77jARC57Zp2UKbwsEU7Nq1a6qTWzraAIcv9fpbBuYhsC2HCWTJ4iryTeHCHjtr3urGKDoc43HvEWIakcyKqU6WL8nq4vOZwXsSCc0QUQbhm9ExjCk3hTcOvu7DOwIzJ/AvwnlLqhFtu6+GL/UkxfcMBiAOqecMeVUuXLwguXKqd6uaqcyrktXZB7q88YstNzzjuGdIKIqwslAeMBsRagnktxbqtsbmfEllRoJGXrF5OnhMrAlgRAQffwTmH3bnTX+OTQxlR/42ybqMh5UiERuJDXecBx0CRIexR4iJzfkT4jH4A4tOsK+ZWxPiNcZVm8HO6dsTV+cy9WKmsaoyUwxU0InDQIc7n7OY6o7PZwbvyWBcf0zX6NyPdwSUFnxiK0nxPYMZs1JqMA2f2EpsueEZL6FmJfCJTwnktxaf7ea5XQkkWkUiofpGuN4eriVlAnDMg+03ktJBMCVcIUz9EZLyfeK1kwAJkAAJkEBSJZBoFYmkekN53QmfAEyZEEEDU94m2RbsjJG1l0ICJEACJEACJEAC4UKAikS43Am2gwSiCJxXYRSRFM4IbLM/ffetGOPvm/L8JgESIAESIAESIIFQEEi0ztahgBeX50gMztYIiQlHXUS6QRQaim8EDh89JotUDHzEzCqqIlQhvKo963dMtZB7TIS4P5gETp0+I7MXL9FVVlfRaHwJ7xrM87MuEiABEghHAknF2ZqKRDg+fWwTCZAACZAACZAACZAACYQ5Af+SDIT5xbB5JEACJEACJEACJEACJEACoSGQaBUJZLY22a1Dg5JnIQESIAESIAESIAESIIGkQyDRKhJJ5xbySkmABEiABEiABEiABEgg9ASoSISeOc9IAiRAAiRAAiRAAiRAAgmeABWJBH8LeQEkQAIkQAIkQAIkQAIkEHoC8ZJH4vr163Lq1Ck5f/68XFbZezNkyCBZs2aVLFmyCFKmU0QSQ/jXpHgfk0q4t6R4b3nNJEACJEACJEACrgRCrkicOHFC1q1bpxUI16aIpE2bVmrUqCGZM2d27uI6CZAACZAACZAACZAACZBAGBEI6fA/ZiGWL19uKRGpVMZezETgG3LlyhVZunSpnq0II0ZsCgmQAAmQAAmQAAmQAAmQgINASGckNm7caJ2+WLFiUq5cOUmWDPl7RbZt2ybbt28XmD1t3rxZ6tSpY5XlQvgSuHr1qkTcuCEpk6dQM0ppwrehbBkJkAAJkAAJkAAJkEBQCYRsRuLMmTNy9uxZ3fiMGTNK+fLlLSUCG0uXLi25c+fW+5H/4cKFC3qZ/8UtgaPK1GzV2nX6c+68/8w7v9FTajRrKS06dvKpoQNHjpY76jfWn4OHj/h0DAuRAAmQAAmQAAmQAAmEH4GQzUhcvHjRuvqCBQtay/aFIkWKyLFjx/SmAwcOSJkyZey7uRwHBN77tJ8sXf2XJFczQ9N++UkyZ8ro11n+++8/XT7qK8Zjb968ITejCt+4eTPG8ixAAiRAAiRAAiRAAiQQngRCNiNhVyTSpUvnlgaiNxkxsxdmnd/BJ7B1x06tRKDmRnXvlsIF8gf/JKyRBEiABEiABEiABEggURII2YyE8YXwRtFeBrb3lLglMHT0r9YJnn78MWs5LhcebNpEqlS4Q58iX5QpW1yej3WTAAmQAAmQAAmQAAnEDYGQKRLp06e3rgC5I9yJfdbi2rVr7opwW5AIHDh0WGYsWKRrq1mlspQrXSpINXuvJm/uXIIPhQRIgARIgARIgARIIGETCJkiYTdbOnjwoJQsWTIauT179ljbOCNhofBp4dTpMzJpxky5rELodn2qY4zHDB87Xm5G+Sg83db7bMRVpdSN/f0PWb9pi2zftUuKFymsZxVa3980xvNcvHRJxkz+3W25Nq0ekIw2BdMU2rlnr/wxZ65erXtXDalUvpzZFe0b7Tqi/GpSpEhhXff4qdPk0NGj0rpZUymYP1+0Y7iBBEiABEiABEiABEggcAIhUySQtRof+D4go/WmTZukbNmyVuQmhH41jta4LHRy8WGma883GXyWr1krv/0xTeYtXaZC596QBnVqeT4gas9JFRVr0p8z9Fq5UiUFMxKe5ITK/dH1nV6yYcs2q8jOvftk9qIlMnfJMrly1fvM0SkVrevLQUOtY+0Ljeve41aRSJsmjQz6ZYwuun3Xbvmu7wf2w6zls+o56vv1t/q6K5a93VIk9qvZlqFjxsrgUWPkrsqV5eHmzRSX2ipfScged6uNXCABEiABEiABEiCBxEogZD0r+D9AcUBCOsguNbK9f/9+geM1EtHBlAlKA8rdUHkJkKSOSoT7x+7YiZMyUSkCE6f9KQePHHUplMHNCL9LAbUy8reJcvVahN78dNs2zt0u6y+909tSIgqp0f36tWrKtYgIpUQsldXr/nEp624lo3Kgv7/hvdaurf/uECgi3qRAvrxqFqKsrNu4WZau+ksQltZdNKnZixZrJQJ1NW/UwKrSMEBwqOVr/taf7FmzSMv7GiuloqkULVTIKssFEiABEiABEiABEiCB2BEImSKB5uXMmVNq1Kgh69atE53ITHVII9QHAgWiYsWKsnPnTjl37pxKbpZWb+d/kQQw+7B45SoZ/8d0Wbh8pWWWhL3p06UVjO63anqfVI1yZPbE7YIyNfp1ylS9u0jBAtLoHs+J/1b8vVbWb9mqy2LmYmj/zySTygEC6dzucenY7TXB6L83yaZmoT57t6dV5IcRI+Xb4T9b654WmjdsoBWJCJWgEAqDOzOq6XPn68NTpEguTerXs6p6rn1bqVuzhkxWpl5/zJ4rp8+ek1NnzgrMufCpWvEOPUsBZmlSp7aO4wIJkAAJkAAJkAAJkIDvBEKqSKBZSDpXv359OaVMZqAwYCYie/bsWsnALARMniCeQsTqnUnoP9j6T5yuZh/U5+jxE9aVK71LKQ0VlPLQWCsR6T2E1LUOiFoYp3wKzl+IzOnx1GOPeJ31GT1xsnV4t2eftpQIbMyTK5e80KGdvP3J51aZYC40qV9XPvn2ez3jAIXBqUgcP3lKVq+NnBGpVbWKYMbBLmVuKyFvde0irz/fWRYsX6GUilmyaMVKNdt1U/76Z4P+9P36O3mgcUOlVNwvJYsVtR/OZRIgARIgARIgARIggRgIhFyRQHugMOTJk0d/7O2DcmGiNSV1RQLmXV16vivLVq+xEriBVf48uaVlk8bSSpnp+OtIDJOkn8dP0Mhz5ciu67Hzdy7v2rdfb8qWJbPyo7jTuVsa17tHen3R3zIvilYggA2YyahdtaosVJ3/VcqECn4dObJls2qcuWChxQWzF54kZcqU0vDuOvoDh/Sps+co/5CZ8u/uPdpk6pcJkwUf+Fh89b/ekjtnDk9VcTsJkAAJkAAJkAAJkICNQHLbcrwv2qM2FShQIN7bE58NuK4UiSXKP8BkgS6qzJCGKdOiWb/+op2K/VUicC2/z5wtGMmHtG/9oKRWCp03wWwIJJ9SXtz5q6RT5mf2zr23umKzr3mjSN8KmHXNmL/QpQpj1oQ2NLi7tss+TyvZs2WVjo8+LJOHD5ZxA79Tjti3lKN/Nm+R08oxnEICJEACJEACJEACJOAbgbBRJPbt2yeHDh3SrUZ0pxw5kvbIMHxGksN+KUr2HDgoH3z1jQxT0YiOnrhl4mT2x/SNzviwX8fpYhkzpJfHVOhVbwIH56tREZngMO1JcqjOeVzJvbVra/8P1D99XqQ/BJYPHj4i6PhD7lVRqqBM+Cq4LviIfKhYwgfELsmUsz+FBEiABEiABEiABEjANwIhNW1Cwrlly5ZJkSJFtKKQRoX5RCjY48ePy969e60W33bbbdZyUl3AbMHMX0fKBBWZaRL8I1Skpt3K1Ki/CqX61eBhUlP5BbRq0kiHNQXHmGTO4iWyVykjkMceaOE27Kq9DjhwQ5HBjAiUEE9y+UrcZSBPmzaNvr6pymH6n02bdW6I/Mokzq5UeDNrMm1G+zG7A+fr+UuX66hTZh+iQbVoBD+JZlKqeDGzmd8kQAIkQAIkQAIkQAIxEAipIvGf6pQi1Ou2bbdyEtjbh1H4cuXKSf78+e2bk+wyOs0vdXpSXnyyg3YURsSmRStW6Y790tV/CT6YXUDEolbKb+JOL4nbhoweqzlCQenwyEMxMoVvQU7lBH/s5Ek5eeq0x/LIMxGXgrCuUCTUoyN/zlsgTz/+mBizJjhY165WxePp4QcxRTlZwy/ihOMaGLnJIzbuIAESIAESIAESIAGfCIRUkYCTdebMmXW0JnvroEBkVGFFoUTkUtGAKK4E4J9QT+VvwAdmTXAWNjkkLly8pBLSTdcfhHN9rl3baE7UMOHZtG27rrSlmsWAguCLwDcCisTeg4e0bwUctO2yfecuKwKUfXswl5EsL3vWrCp86xmtQNSreZfKrr1bn+K+enV1Rmvn+ZYqB/UBg4fKpu3/uuyC0zgc1R9Rsw/MJeGChiskQAIkQAIkQAIk4DeBkCoSMMGpW7eunpW4cAE2+Fd1mFf4RKRIkcLvxifFA/KoXBzPt39COj/xuE60Nn7qdJmvzMWQ1RqmS0gUh86yXYaM+lWvwlSpU5vH7Lu8LtdVnXb4IsA0aMK06fK8Cvdql9GTp9hX42QZz0XTe+vJKBWKduuOnSoHxQjrPPYkdNZGtbASilOUEqEumdmt7XC4TAIkQAIkQAIkQAJBIhBSRcmPhfUAABR9SURBVMK0GcnmmHDO0IjdN2Ypalerqj8IjYo8CZiZcApmIpDdGdKo7t1SuIDvZmOPK4fsIaPHyKXLV+Q7lUQuc6ZMOu/CtYjrMnrSZIES401gymbPfYGyZ5VPjJGjyjfGHjkqTZrUgrCvTmmuMmNDkYDMWrhYfxdE9utyZfWyu/9yZs8mD6oEfQ/f38zvMLnu6uM2EiABEiABEiABEiABVwLJVGdPWZ8nPjmtOteQbLbcAwnpKiOOHfO7ubiVMAGyh2Tt/v4HMnPBIl0XQp6WK13Kr3rHTP5dPhrwjfZRcB6YSvlR3FCzFZixyKcSDc4ZN8qlCKIrNX68vcs2byuVyt0uo7772m2RJm07uGTRhgnXy8885bbs6bNnJbMylYuPWa5UigOFBEiABEiABEiABJICAca7TER3Gb4mdiUCpk6zo0bw4WvgrxIBNJiV+PL9Xmo2IqMLqSxqdqLf++9KlQp36O0pUkR/lNzlnnCpxLGSPLln8zanGZNz3V4VZjXiQ4mwt4HLJEACJEACJEACJJDYCXBGIkzvcGxmJJyX0vuLLy1zp6EqmZ09AZuzbEzrmO1A+Fk4OhcvXEhKqlCpUFworgQ4I+HKg2skQAIkQAIkQAKJl0C8+EgkXpzhc2XIYI1M1hDMRASiRKAOKA3FixTWH6xTSIAESIAESIAESIAEkjaBRKtIJFTfiGA9jhHXI+TNri/o6iqWvT1Y1bIeEiABEiABEiABEiABEtAEEq1pU0K/v8EwbUroDBJi+2nalBDvGttMAiRAAiRAAiQQGwLRPWRjUwuPIQESIAESIAESIAESIAESSFIEqEgkqdvNiyUBEiABEiABEiABEiCB4BCgaVNwOLIWEiABEiABEiABEiABEkhSBDgjkaRuNy+WBEiABEiABEiABEiABIJDINEqEshsbbJbBwcVayEBEiABEiABEiABEiABEjAEEq0iYS6Q3yRAAiRAAiRAAiRAAiRAAsEnQEUi+ExZIwmQAAmQAAmQAAmQAAkkegJUJBL9LeYFkgAJkAAJkAAJkAAJkEDwCQSc2frq1aty5coV3bI0adJI2rRpfWrljRs3tA/D2bNnJUWKFJI9e3bJlCmTJEuWzKfjWYgESIAESIAESIAESIAESCD+CMRakbh48aLs2LFDDhw4IDdv3tRXULhwYalYsWKMV7N7927ZtGmT/Pfffy5l06VLJzVq1NAKhcsOrpAACZAACZAACZAACZAACYQVAb8ViXPnzmkF4tChQ9EUAV+ubOfOnbJ582araPLkkdZVUEYuX74sy5Ytk5o1a0rmzJmtMlwgARIgARIgARIgARIgARIILwJ+KRKYQVi4cKHLFaRKlUoiIiJctnlauXTpkqVEwISpSpUqkjdvXoGZE2Yo9u3bJ9euXZP169dLnTp1PFWTpLbDdCwi4roy/0oumLEJN7mi2nddtS9lyhQ+m7WF2zWwPSRAAiRAAiRAAiRAAv4TiLWzNXwaYIZUvXp1n8+6f/9+q2zp0qUlX7582iciZcqUUq5cOcs/AvkfLly4YJVN7AtHjx6TFStX6w9mfOzS7dUeUrl6LbmnfmP75rBZfvrZ53X7mjRvFTZtYkNIgARIgARIgARIgATinoBfMxKYRcAMQvHixSVHjhy6dadOnfK5lXZFAv4Udtm2bZuLqRTK3n777fYiiXb57Xd7y+KlyyR58mQyc/rvLmZd/0mkH4nTnyRcYFhuLtZCuLSM7SABEiABEiABEiABEohLAn4pEmhItWrVYtUe+D/gA4H/AyI8GUHkJjhg2+XkyZP21US7vGXrNq1E4ALva9RQijgUrER74bwwEiABEiABEiABEiCBBE0g1qZN/l41bP2NZM2a1SzqWQj4RGDEHQqGCf8KX4mkIIOGDLMu89lnOlnLXCABEiABEiABEiABEiCBcCYQL4oEHLSN7NmzR86cOaMViEqVKlkzFSY3hSmXGL/37z8gM2bM0pdWq2YNKV+ubGK8TF4TCZAACZAACZAACZBAIiTgt2lTbBnYZySMIgFlYevWrbpK+F1kyZJFsA/bEckJHySrSyhy8uQpmTh5ijbherlrlxibPXT4CLkRlYOjsw+zEZi1mTxlqqxYtVo2btwkBQrkl4oV7pBHH35IcuXK5fV8i5YslaXKD2PL1u1y6vQpKVa0qJQpXUpatmguBQsW8Hos7t2YseNl3T/rZfv2f5WPTDGpVrWKPNL6QY/HjR33mxw8dFgriC++0FlSp07ttizM3X4YOETvK1qksDz0YEsxx6L+QoUKuj2OG0mABEiABEiABEiABOKXQMgUCXuIWKMcbNiwQa5fvy7p06cXRHGCmH1YxjH2dWwLN0H+i2XLV8i48RNlzrz5+noaNqgfYzNPKB+QCZMm63Lly90utWre5fUYKBG9+3wov6oOupF/d+yUBQsXq473BBn0wzdSpkwkQ7Mf3zAR6/vJ5zL613H2zUoh2CEzZ82RYcN/lo8/+p80btTAZb9ZOX7ihLzwYjdZv2Gj2SQ7du6SWbPnypy58+TK1cis5tbOqIXde/bKsJ9+1mtlypSSpve5jzqFNvw4KFKRgMIB2a+SHA4aMlwGDh4iNe+qIY890loaNrhXK5m6AP8jARIgARIgARIgARKIdwIhUyTsI9JQEI4cOaI/IFChQgVLYYBiYcR+jNkWLt/Hjh2X3yZOkvETJsnBg4dcmpUhQwaXdXcrI34eJVevRvqB+OIbcV6Fw4USkSFDetXpbyi5cubQCszGTVvkyNGj0v6pZ2Th3JlaKbOf79PP+1tKBI5FhzxP7lyyYeNmWb5ipaDert26y7gxI6VSxQr2Q/Vyl66vWEpEYTU7cG/9elo5ma2UiJWr/opW3mzALIlRJCZMnOxRkZg4aYo+RAUEk4cfipzhMPyU7qSucaX+ZM+eTR5s+YCefSlWrKg+hv+RAAmQAAmQAAmQAAnEH4GQKRL2KE1ITGdCwRYsWNDFLMfMXMDEyWS9jj88rmeGGdKiRUvU7MMENROwyDJLQqn06dNJk8aNtGkOzH68yYULF2VM1AwBzHkQrckXyZQxo4wYNkjKly+ni8P0q/vrb8qfM2fL2bPntEnQU092sKqCsjPutwl6PUuWzPLT0EFSruytkLoDBw+Vfl9+rfd/8+0PMnTwD9axWICi8c/6DXobZk1+GjZYMmfKpNef7/yMtOvYSfYpPw93AvOnKpXvlDV/r1UmVcsFbcmtFBi7HFTZ0VeuXq03YeYBplqQF557VurVvUegZPz+xzQ5ffqMnDp1WmAKhk+1qpXlUTVLAd7250ofzP9IgARIgARIgARIgARCQiBkztb2Dt8BZboC23jMOCARnRGY7xhFwl7e7I+vb3R4v/72e6nfoIk81+UlmTt/gVYiMIpevVoV+USZBi1bNE8+6fuBWq9qRZ7y1N5fx42Xc+fP691PP9XRZ4XpETXKb5QIHAyzr7ffekPnn8D6yNG/4suSseN/s2Y9OrRr66JEoNBzzz4txYoVVUuiQ9Du3r1HL5v/Ro4aYxal+ysvW0oENubNm0defOE5a7+7BZgkQaCATZrye7Qi8PfArAPkkdYPRS5E/X+7MtN6p+cbsnThXPnu6y+lgZoJMWZuq//6W3q8+Y7UqdtQPuz7qWz/d4fLsVwhARIgARIgARIgARKIewLxokiYyypfvryLEy7yScDnABIOigRG/J/u3EUaNG4m334/UJsQoW358+eTrl2ekzkzpskvI4bpWQj4efgi8FkYPmKkLporV055sNUDvhymy7Ro3ixa2Tx5ckvVKpX19oMHD2qzI1Nol00xaPlAc7PZ5buVbfuuPXtc9u3aFZnbI1u2rG59OJrc10iQldyTNGnSWDCLApk4OboiMSlqG2ZLGjW81201qB/7fvhugCxZMEd6vvGalCp5my57VmUB//mX0dK8ZWt59PH2etbDbSXcSAIkQAIkQAIkQAIkEHQCIVMk0qZN65KxOXfu3MqUxTVa0PHjx60LxP74FvhrLFbRjm7ejBw2L1q0iPw8fLDMn/2nICpTbCIKYRT++PET+tI6tn/CRZGK6Xo9na9gFEeM7h9WvidGjO8GMmY7WZsyhQsVMovRfD0OqahLkPz58rmdNUmXLp3kjMpwblViW0irkg4+0OJ+vQWzHX+vXWfthcmTMYtC5Chf/GFy5MguMN36Y8oEmTh+jHbENhUiopQ/WdbNcfwmARIgARIgARIgARKIHYGQKRJoXiFbp9WYqZhmw6Rp3759ehVJ6eA7Ed+CdqATbmSPikT0/v8+ksFDh8vRo8fMZp+/MdsyZNhPujxG6tu2ecznYzEyb/wTnAdlivJbwHZ7u44cOaqLZsuaTVIkd3+r0Tk3Yspj/Zwa7b8SlUTQzCqYcvZv+/H27WYZ5lhGJkQ5VmPdPkPhLYysOdZ8o12IQNXng77ah8Nsx3cyD9doL8NlEiABEiABEiABEiCB4BDwbJfioX7kFIAJjZGLFy+aRd353LVrl7WODNbZs9/qqEI52LJlizZfOnz4sF4uUqSIsuO/qvNJwAkbgtkIzGDEt2CUfO6s6fKbisz0m4o8hE46zIW+6D9A+n/1tdSuWVObJjVUpjcYfY9JZs2ZK3v2RipLj7d5RDJmzBDTIdZ+zI5A2TI5OKwdagEmWEbsSgWiNEEuX7lsdkf7vnz5irXNbp6FZShRmI25cfNW/VbhqAX4uniTsreXUYn2bhdEl5r+5wx57+03VY8/mfw5Y6Y+rHz5sir0bylvVWgfiyVqZgjO1/BPuXYtwiqfRWVDx6wHnK9LlyppbecCCZAACZAACZAACZBA3BLwW5FAZ3/Tpk1uW4UM1fgYKVGihIsigY55lSpVZM2aNVqZ2LFjh+BjF3SEK1asaN8Ur8sF8ueXbi+9KF1ffEEWqpwNiNi0cNFi3bldrBK84YMR+6ZNG8tDLVtK5cqVPLZ30JBhel/q1KmkY4d2Hst52oGEd3BydsqJEyetTfnz5b21rNq+U/k5XLp0WX0uRQsNi4J2c7KCUVGTsB0zIDlz5tR+ByfUeT2J/dyeyqCTv3HTh3Lx4iWZofJGYHYEkasgCBPrSeBEDT+K36f+Icdt14jyjNzkiRq3kwAJkAAJkAAJkEBoCLi3d/Fybpj7+CruyubNm1eqVasWrVOLUK/ouNaqVSssHK2d14jO773168qP338tC1S+hldeftEKV4pcDEhI16ZdR2nctIXu/DqPRyjVjSp3AwQO1rnUtforq/6KnrcBEZHW/vOPrgo+C8gObqSAcgo3smLlarPo8o0s2UbgRG4X+EZA9qlZFLvCYcps27bdij5ltrn7bt6smaBtkIlqZgfZvyGYdcI+pyxRytlDj7TRTtQI92qUCDh9d1I+EjOnTZFRPw/XWbnDwSnf2X6ukwAJkAAJkAAJkEBSIOD3jATMlVq0aBEQG5guNWjQQJs0nT59WpvroF6n30RAJ4nDgxEpqcvznQW5FJYuU1mtVa6GufMW6KzWMF1CsjZnNCbkbIDAXOiZTk/qZX//G/PreNXxburi+DxfmfoYv4j69e5xqbJ2rZpWJuyRo0YL9tuVOxw3a/YcfQwiJ9lzTGAjysOJGcrKuN8mRgv3+ssY13CzLie3rcCEq5mK4AQfCbvigqhP7sy7VqxcpU2hUAX0Vma3tsHkIgmQAAmQAAmQAAmECQG/ZySC2W6MJmOGIoeK/JNQlAj79WMW5e46teSbr/rJovmzpMdrr0iRwreiIJmyGzdt1tmZsY7kc0UKFza7/PpGpKM33npHkNcCfiVz582XHmrdyLNPP2UW9XfjRg2kVKnIUKlQeHDsgQMHtcLz99/rpG37Jy1/A4z0m4zSppInHn9MJ9rD+jff/SC/qDwV589f0MnhkFdj7LjIZHemvLdvu9O1KffwQ63MYrRvZO5GnguE2EUivaZN7nPrHxLtQG4gARIgARIgARIgARIICYFkKglcVEqwkJwvZCfBTAckW7ZsITsnTgScJ0+dcgmL2u3V13X2aexH2NLy5cpi0SdBArz5CxbpstmzZ9OdeHcHtm3zqLzf65ZSYcpgdP+Frt20f4LZ5vyGQ/Son4dFUyRQbtSYsfK/D/taiePsx6ZKlVJu3ripZyzgmwGTL2/SrMWDsmPnLl2kYMECMnfmNJcZEnMsMllnzpwpQSqX5hr4TQIkQAIkQAIkQAKJnUC8zkgkRrgwHbLnVoCp08wo86FaNWv4pUSAD2Y9IFmzZpGfhgzUyfD0hqj/EC3qtVdfdqtEoMhdNarLpN/Gyh3ly9kP08tQBJ5o+5iMGzPSrRKBQpiV+PrLfoLoSHaBKdSA/p9L1aqV9ebkKst2THJf44ZWkYdatXSrRKAAfCES4gyVdXFcIAESIAESIAESIIEkQIAzEnF8k9/t3Uc7YuM0I4YNckmiFttT79u/X0XO2qzzcpRRoVO9ZZe2n+Pc+fMCB+kTJ05I8WLFpESJ4j4fi5mWXbt3y/bt/+pjS6lQq3Z/C/t5PC0/0eEpWf3X39pPZP6cGZJPmbVRSIAESIAESIAESIAEEiYBKhJxeN8Q6ah+o6baDwH5EiaOGxOHZwvvqjdv2SqtWj+mG3l3ndoydND34d1gto4ESIAESIAESIAESMArAb+jNnmtLYx2hto3wt2lX1MJ5N5+6w29q1LFCu6KJIltUCLe7fW+da3tn2hjLXOBBEiABEiABEiABEggYRJItDMSCfN2JK5Wv/jyqyp3xiY5fOSodWE1qleVn4cP8dssyqqACyRAAiRAAiRAAiRAAmFBgM7WYXEbEmcj9u8/4KJEIBv1wO+/oRKROG83r4oESIAESIAESCCJEeCMRBK74aG83Fmz5+pQuBkypJc7K1ZUzuEFQ3l6nosESIAESIAESIAESCAOCVCR+H97d0wDAADCAOzBv0S0cKBhz1IDI3QvCUFc0QQIECBAgAABAgRaBZw2tTZrLwIECBAgQIAAAQJBgdn9T8PBGaIJECBAgAABAgQIECgTOIYccDz2fIJPAAAAAElFTkSuQmCC;imageBorder=#808080;" vertex="1" parent="1">
          <mxGeometry x="30" y="9" width="395.18" height="181" as="geometry" />
        </mxCell>
      </root>
    </mxGraphModel>
  </diagram>
</mxfile>
